<?xml version='1.0' encoding='UTF-8'?>
<svg data-v-7032db0d="" class="svg-container" id="army-military-comparison-container" width="800" height="500" viewBox="0 0 800 500"
    xmlns="http://www.w3.org/2000/svg"
    xmlns:xlink="http://www.w3.org/1999/xlink" version="1.1" style="width: 800px; height: 500px;">
    <g id="army-military-comparison-top-grp">
        <text id="army-military-comparison-y-axis-title" class="scene chart army-military-comparison axis y-axis title y-title" x="160" y="375" dx="-70" dy="50" font-size="30" font-weight="bold" fill="black" text-anchor="middle">GDP</text>
        <g id="army-military-comparison-x-axis-symbol-group">
            <g id="army-military-comparison-x-axis-symbol-0" class="scene chart army-military-comparison axis x-axis symbol symbol-0 data-item data-item-0 x-symbol" ac-data="{&quot;name&quot;:&quot;USA&quot;,&quot;value&quot;:18.5}">
                <g transform="translate(172.68292682926827,395)">
                    <svg t="1631588606897" class="icon-0" viewBox="0 0 1542 1024" version="1.1"
                        xmlns="http://www.w3.org/2000/svg" p-id="4361" width="65" height="45">
                        <path d="M7.68 1017.856h1521.152V6.144H7.68v1011.712z m1523.2 2.56v-3.584 3.584zM1.024 1024V0h1533.44v1024H1.024z" fill="#353636" p-id="4362"></path>
                        <path d="M3.584 707.072H1530.88v77.824H3.584v-77.824z" fill="#FFFFFF" p-id="4363"></path>
                        <path d="M3.584 629.248H1530.88v77.824H3.584v-77.824z" fill="#C22045" p-id="4364"></path>
                        <path d="M3.584 864.256H1530.88V942.08H3.584v-77.824z" fill="#FFFFFF" p-id="4365"></path>
                        <path d="M3.584 942.08H1530.88v77.824H3.584V942.08z m0-155.648H1530.88v77.824H3.584v-77.824z" fill="#C22045" p-id="4366"></path>
                        <path d="M3.584 550.912H1530.88v77.824H3.584v-77.824z" fill="#FFFFFF" p-id="4367"></path>
                        <path d="M3.584 315.904H1530.88v77.824H3.584V315.904z" fill="#C22045" p-id="4368"></path>
                        <path d="M3.584 80.384H1530.88V158.72H3.584V80.384z" fill="#FFFFFF" p-id="4369"></path>
                        <path d="M3.584 158.72H1530.88v77.824H3.584V158.72z m0 312.832H1530.88v77.824H3.584V471.552zM3.584 2.56H1530.88v77.824H3.584V2.56z" fill="#C22045" p-id="4370"></path>
                        <path d="M3.584 237.568H1530.88v77.824H3.584V237.568z m0 156.16H1530.88v77.824H3.584V393.728z" fill="#FFFFFF" p-id="4371"></path>
                        <path d="M3.584 2.56h611.328v548.352H3.584V2.56z" fill="#004981" p-id="4372"></path>
                        <path d="M462.848 31.232l3.584 13.824h13.824l-11.264 7.68 5.12 12.8-11.264-7.68-11.264 7.68 5.12-12.8L445.44 45.056h13.824l3.584-13.824z m0 114.688l3.584 12.8h13.824l-11.264 8.704 5.12 12.8-11.264-7.68-11.264 7.68 5.12-12.8L445.44 158.72h13.824l3.584-12.8z m0 114.688l3.584 12.8h13.824l-11.264 7.68 5.12 13.824-11.264-8.704-11.264 8.704 5.12-13.824-11.264-8.192h13.824l3.584-12.288z m0 115.712l3.584 13.824h13.824l-11.264 7.68 5.12 12.8-11.264-7.68-11.264 7.68 5.12-12.8-11.264-7.68h13.824l3.584-13.824z m0 111.616l3.584 12.8h13.824l-11.264 8.704 5.12 12.8-11.264-7.68-11.264 7.68 5.12-12.8-11.264-8.704h13.824l3.584-12.8zM360.96 31.232l3.584 13.824H378.88l-11.264 7.68 5.12 12.8-11.264-7.68-11.264 7.68 3.584-12.8-10.24-7.68h12.8l4.608-13.824z m0 114.688l3.584 12.8H378.88l-11.264 8.704 5.12 12.8-11.264-7.68-11.264 7.68 3.584-12.8-10.24-8.704h12.8l4.608-12.8z m0 114.688l3.584 12.8H378.88l-11.264 7.68 5.12 13.824-11.264-8.704-11.264 8.704 3.584-13.824-10.24-7.68h12.8l4.608-12.8z m0 115.712l3.584 13.824H378.88l-11.264 7.68 5.12 12.8-11.264-7.68-11.264 7.68 3.584-12.8-10.24-7.68h12.8l4.608-13.824z m0 111.616l3.584 12.8H378.88l-11.264 8.704 5.12 12.8-11.264-7.68-11.264 7.68 3.584-12.8-10.24-8.704h12.8l4.608-12.8zM259.072 31.232l3.584 13.824H276.48l-11.264 7.68 3.584 12.8-10.24-7.68-11.264 7.68 3.584-12.8-11.264-7.68h13.824l5.632-13.824z m0 114.688l3.584 12.8H276.48l-11.264 8.704 3.584 12.8-10.24-7.68-11.264 7.68 3.584-12.8-10.752-8.704h13.824l5.12-12.8z m0 114.688l3.584 12.8H276.48l-11.264 7.68 3.584 13.824-10.24-8.704-11.264 8.704 3.584-13.824-11.264-7.68h13.824l5.632-12.8z m0 115.712l3.584 13.824H276.48l-11.264 7.68 3.584 12.8-10.24-7.68-11.264 7.68 3.584-12.8-11.264-7.68h13.824l5.632-13.824z m0 111.616l3.584 12.8H276.48l-11.264 8.704 3.584 12.8-10.24-7.68-11.264 7.68 3.584-12.8-11.264-8.704h13.824l5.632-12.8zM156.16 31.232l5.12 13.824H174.08l-10.24 7.68 3.584 12.8-11.264-7.68-11.264 7.68 5.12-12.8L138.24 45.056h13.824l4.096-13.824z m0 114.688l5.12 12.8H174.08l-10.24 8.704 3.584 12.8-11.264-7.68-11.264 7.68 5.12-12.8L138.24 158.72h13.824l4.096-12.8z m0 114.688l5.12 12.8H174.08l-10.24 7.68 3.584 13.824-11.264-8.704-11.264 8.704 5.12-13.824-11.776-8.192h13.824l4.096-12.288z m0 115.712l5.12 13.824H174.08l-10.24 7.68 3.584 12.8-11.264-7.68-11.264 7.68 5.12-12.8-11.776-7.68h13.824l4.096-13.824z m0 111.616l5.12 12.8H174.08l-10.24 8.704 3.584 12.8-11.264-7.68-11.264 7.68 5.12-12.8-11.776-8.704h13.824l4.096-12.8zM54.272 31.232l3.584 13.824H71.68l-11.264 7.68 5.12 12.8-11.264-7.68-11.264 7.68 5.12-12.8-11.776-7.68h13.824l4.096-13.824z m0 114.688l3.584 12.8H71.68l-11.264 8.704 5.12 12.8-11.264-7.68-11.264 7.68 5.12-12.8L36.352 158.72h13.824l4.096-12.8z m0 114.688l3.584 12.8H71.68l-11.264 7.68 5.12 13.824-11.264-8.704-11.264 8.704 5.12-13.824-11.264-7.68h13.824l3.584-12.8z m0 115.712l3.584 13.824H71.68l-11.264 7.68 5.12 12.8-11.264-7.68-11.264 7.68 5.12-12.8-11.264-7.68h13.824l3.584-13.824z m0 111.616l3.584 12.8H71.68l-11.264 8.704 5.12 12.8-11.264-7.68-11.264 7.68 5.12-12.8-11.264-8.704h13.824l3.584-12.8z m461.312-398.848l3.584 12.8h13.824l-11.264 7.68 3.584 13.824-10.24-8.704-11.264 8.704 3.584-13.824-11.264-7.68h13.824l5.632-12.8z m0 117.248l3.584 13.824h13.824l-11.264 7.68 3.584 12.8-10.24-7.68-11.264 7.68 3.584-12.8-10.24-7.68h13.824l4.608-13.824z m-1.024 115.712l3.584 12.8h13.824l-11.264 8.704 5.12 12.8-11.264-7.68-11.264 7.68 3.584-12.8-11.264-8.704h13.824l5.12-12.8z m-1.536 114.688l3.584 12.8h13.824l-11.264 7.68 5.12 13.824-11.264-8.704-11.264 8.192 3.584-13.824-10.24-7.68h13.824l4.096-12.288zM412.672 89.088l5.12 12.8H430.08l-10.24 7.68 3.584 13.824-11.264-8.704-11.264 8.704 5.12-13.824-11.264-7.68h13.824l4.096-12.8z m0 117.248l5.12 13.824H430.08l-10.24 7.68 3.584 12.8-11.264-7.68-11.264 7.68 5.12-12.8-11.264-7.68h13.824l4.096-13.824z m-1.536 115.712l5.12 12.8H430.08l-11.264 8.704 3.584 12.8-11.264-7.68-10.24 7.68 3.584-12.8-11.264-8.704h13.824l4.096-12.8z m0 114.688l3.584 12.8h13.824l-11.264 7.68 3.584 13.824-10.24-8.704L399.36 471.04l3.584-13.824-11.264-7.68h13.824l5.632-12.8zM310.784 84.48l3.584 13.824h13.824l-11.264 7.68 5.12 12.8-11.264-7.68-11.264 7.68 5.12-12.8-11.264-7.68H307.2l3.584-13.824z m0 118.272l3.584 12.8h13.824l-11.264 8.704 5.12 12.8-11.264-7.68-11.264 7.68 5.12-12.8-11.776-9.216H307.2l3.584-12.288z m-1.536 115.712l5.12 12.8h12.8l-10.24 7.68 3.584 13.824-11.264-8.704-11.264 8.704 5.12-13.824-11.264-8.192h13.824l3.584-12.288z m-1.024 113.152l5.12 13.824h13.824l-11.264 7.68 3.584 12.8-11.264-7.68-10.24 7.68 3.584-12.8-10.752-7.68h13.824l3.584-13.824zM208.896 84.48l3.584 12.8h13.824L215.04 104.448l3.584 13.824-10.24-8.704-11.264 8.704 3.584-13.824-11.264-7.68h13.824l5.632-12.288z m0 116.736l3.584 12.8h13.824L215.04 222.72l3.584 12.8-10.24-7.68-11.264 7.68 3.584-12.8-11.264-8.704h13.824l5.632-12.8z m-1.536 115.712l3.584 12.8H225.28l-11.264 7.68 5.12 13.824-11.264-8.704-11.264 8.704 3.584-13.824-10.24-7.68h13.824l3.584-12.8zM206.336 430.08l3.584 13.824h13.824l-10.24 7.68 3.584 12.8-11.264-7.68-11.264 7.68 5.12-12.8-11.264-7.68h13.824l4.096-13.824zM105.472 81.92l5.12 12.8h13.824l-11.264 8.704 3.584 12.8-11.264-7.68-10.24 7.68 3.584-12.8-11.264-8.704h13.824l4.096-12.8z m0 116.736l5.12 13.824h13.824L113.152 220.16l3.584 12.8-11.264-7.68-10.24 7.68 3.584-12.8-11.264-7.68h13.824l4.096-13.824z m0 115.712l3.584 12.8H122.88l-11.264 8.704 3.584 12.8-10.24-7.68-11.264 7.68 3.584-12.8-10.24-8.704h13.824l4.608-12.8z m-1.024 114.688l3.584 12.8h13.824l-11.264 7.68 5.12 13.824-11.264-8.704-11.264 8.704 3.584-13.824-10.24-7.68h12.8l5.12-12.8z m460.288-397.824l5.12 13.824h13.824l-11.264 7.68 3.584 12.8-11.264-7.68-10.24 7.68 3.584-12.8-11.264-7.68h13.824l4.096-13.824z m0 114.688l5.12 12.8h13.824l-11.264 8.704 3.584 12.8-11.264-7.68-10.24 7.68 3.584-12.8-11.264-8.704h13.824l4.096-12.8z m0 114.688l5.12 12.8h13.824l-11.264 7.68 3.584 13.824-11.264-8.704-10.24 8.704 3.584-13.824-11.264-7.68h13.824l4.096-12.8z m0 115.712l5.12 13.824h13.824l-11.264 7.68 3.584 12.8-11.264-7.68-10.24 7.68 3.584-12.8-11.264-7.68h13.824l4.096-13.824z m0 111.616l5.12 12.8h13.824l-11.264 8.704 3.584 12.8-11.264-7.68-10.24 7.68 3.584-12.8-11.264-8.704h13.824l4.096-12.8z" fill="#FFFFFF" p-id="4373"></path>
                    </svg>
                </g>
            </g>
            <g id="army-military-comparison-x-axis-symbol-1" class="scene chart army-military-comparison axis x-axis symbol symbol-1 data-item data-item-1 x-symbol" ac-data="{&quot;name&quot;:&quot;EU&quot;,&quot;value&quot;:15.40125}">
                <g transform="translate(299.5121951219512,395)">
                    <svg t="1631589387956" class="icon" viewBox="0 0 1536 1024" version="1.1"
                        xmlns="http://www.w3.org/2000/svg" p-id="6423" width="65" height="45">
                        <path d="M0 0v1024h1536V0z m1048.96 294.4a48 48 0 1 1-17.6 65.6 48.32 48.32 0 0 1 17.6-65.6zM368 512a48 48 0 1 1 48 48 48 48 0 0 1-48-48z m119.04 217.6a48 48 0 1 1 17.6-65.6 48.32 48.32 0 0 1-17.6 65.6z m17.6-369.6a48 48 0 1 1-17.6-65.6 48 48 0 0 1 17.6 65.6z m128 480a48 48 0 0 1-83.2-48 48 48 0 1 1 83.2 48z m-16.64-591.36a48 48 0 1 1-48-83.2 48 48 0 0 1 48 83.2zM768 912a48 48 0 1 1 48-48 48 48 0 0 1-48 48z m0-704A48 48 0 1 1 816 160 48 48 0 0 1 768 208z m200 650.56a48 48 0 1 1-48-83.2 48 48 0 1 1 48 83.2z m17.6-627.52a48 48 0 1 1-83.2-48 48 48 0 0 1 83.2 48z m128 480a48 48 0 1 1-17.6-65.6 48.32 48.32 0 0 1 18.56 66.56z m6.4-151.04a48 48 0 1 1 48-48 48 48 0 0 1-48 48z" fill="#003399" p-id="6424"></path>
                        <path d="M768 160m-48 0a48 48 0 1 0 96 0 48 48 0 1 0-96 0Z" fill="#FFCC2B" p-id="6425"></path>
                        <path d="M768 864m-48 0a48 48 0 1 0 96 0 48 48 0 1 0-96 0Z" fill="#FFCC2B" p-id="6426"></path>
                        <path d="M416 512m-48 0a48 48 0 1 0 96 0 48 48 0 1 0-96 0Z" fill="#FFCC2B" p-id="6427"></path>
                        <path d="M1120 512m-48 0a48 48 0 1 0 96 0 48 48 0 1 0-96 0Z" fill="#FFCC2B" p-id="6428"></path>
                        <path d="M568 165.44a48 48 0 1 0 65.6 17.6 48.32 48.32 0 0 0-65.6-17.6zM920 775.36a48 48 0 1 0 65.6 17.6 48 48 0 0 0-65.6-17.6zM439.04 646.4a48 48 0 0 0 48 83.2 48 48 0 0 0-48-83.2zM1096.96 377.6a48 48 0 0 0-48-83.2 48 48 0 0 0 48 83.2zM487.04 294.4a48 48 0 1 0 17.6 65.6 48.32 48.32 0 0 0-17.6-65.6zM1096.96 646.4a48 48 0 1 0 17.6 65.6 48 48 0 0 0-17.6-65.6zM616 775.36a48 48 0 1 0-48 83.2 48 48 0 0 0 48-83.2zM968 165.44a48 48 0 1 0-48 83.2 48 48 0 0 0 48-83.2z" fill="#FFCC2B" p-id="6429"></path>
                    </svg>
                </g>
            </g>
            <g id="army-military-comparison-x-axis-symbol-2" class="scene chart army-military-comparison axis x-axis symbol symbol-2 data-item data-item-2 x-symbol" ac-data="{&quot;name&quot;:&quot;China&quot;,&quot;value&quot;:11.8}">
                <g transform="translate(426.3414634146342,395)">
                    <svg t="1631589364057" class="icon" viewBox="0 0 1546 1024" version="1.1"
                        xmlns="http://www.w3.org/2000/svg" p-id="5336" width="65" height="45">
                        <path d="M11.322 1017.71h1520.904V6.29H11.322v1011.42zM1536 1021.484v-3.774 3.774zM5.032 1024V0h1533.484v1024H5.032z" fill="#353636" p-id="5337"></path>
                        <path d="M8.806 2.516H1536v1017.71H8.806z" fill="#D64B24" p-id="5338"></path>
                        <path d="M264.177 118.25l32.708 99.381h104.412l-84.285 60.384 31.45 99.38-84.285-61.64-84.285 61.64 32.708-99.38-84.286-60.384h104.413z m271.725-52.835l-1.258 35.224 31.45 12.58-33.966 8.806-1.258 33.965L512 127.057l-32.708 7.547 21.386-26.417-17.612-28.934 31.45 13.838z m116.992 111.96L637.8 207.569l23.901 23.901-33.965-5.032-15.096 30.192-5.032-33.966-33.966-5.032 30.192-15.095-5.032-33.966 23.902 23.902z m-35.223 138.38l11.322 32.707h33.965l-27.675 20.128 10.063 32.707-27.675-20.127-27.676 20.127 11.322-32.707-27.676-20.128h33.966z m-81.77 105.67l-2.515 33.966 32.707 12.58-33.965 8.805-2.516 33.966L512 481.808l-33.966 8.806 22.644-26.417-18.87-28.934 32.708 12.58z" fill="#FBDC00" p-id="5339"></path>
                    </svg>
                </g>
            </g>
            <g id="army-military-comparison-x-axis-symbol-3" class="scene chart army-military-comparison axis x-axis symbol symbol-3 data-item data-item-3 x-symbol" ac-data="{&quot;name&quot;:&quot;Japan&quot;,&quot;value&quot;:4.8}">
                <g transform="translate(553.170731707317,395)">
                    <svg t="1631589416454" class="icon" viewBox="0 0 1544 1024" version="1.1"
                        xmlns="http://www.w3.org/2000/svg" p-id="8033" width="65" height="45">
                        <path d="M10.04 1016.47h1517.176V7.53H10.039v1008.94z m1519.685 3.765v-3.764 3.764zM3.765 1024V1.255H1533.49v1021.49H3.765z" fill="#353636" p-id="8034"></path>
                        <path d="M6.275 5.02h1523.45v1015.215H6.275z" fill="#FFFFFF" p-id="8035"></path>
                        <path d="M463.059 512a304.941 304.941 0 1 0 609.882 0 304.941 304.941 0 1 0-609.882 0z" fill="#C01D3C" p-id="8036"></path>
                    </svg>
                </g>
            </g>
        </g>
        <g class="group content">
            <g class="group bar-group">
                <rect id="army-military-comparison-bar-0" class="scene chart army-military-comparison mark bar-0 data-item data-item-0 bar" ac-data="{&quot;name&quot;:&quot;USA&quot;,&quot;value&quot;:18.5}" width="65" height="292.50000000000006" x="172.68292682926827" y="82.49999999999994" fill="#eb2324" opacity="0.9"></rect>
                <text id="army-military-comparison-bar-label-0" class="scene chart army-military-comparison mark bar-label-0 data-item data-item-0 bar-label" ac-data="{&quot;name&quot;:&quot;USA&quot;,&quot;value&quot;:18.5}" x="205.18292682926827" y="82.49999999999994" dy="-20" font-size="23" font-weight="bold" text-anchor="middle">$18.5 TRILLION</text>
            </g>
            <g class="group bar-group">
                <rect id="army-military-comparison-bar-1" class="scene chart army-military-comparison mark bar-1 data-item data-item-1 bar" ac-data="{&quot;name&quot;:&quot;EU&quot;,&quot;value&quot;:15.40125}" width="65" height="243.50625000000002" x="299.5121951219512" y="131.49374999999998" fill="#2169e4" opacity="0.9"></rect>
                <text id="army-military-comparison-bar-label-1" class="scene chart army-military-comparison mark bar-label-1 data-item data-item-1 bar-label" ac-data="{&quot;name&quot;:&quot;EU&quot;,&quot;value&quot;:15.40125}" x="332.0121951219512" y="131.49374999999998" dy="-20" font-size="23" font-weight="bold" text-anchor="middle">$15.4 TRILLION</text>
            </g>
            <g class="group bar-group">
                <rect id="army-military-comparison-bar-2" class="scene chart army-military-comparison mark bar-2 data-item data-item-2 bar" ac-data="{&quot;name&quot;:&quot;China&quot;,&quot;value&quot;:11.8}" width="65" height="186.5675675675676" x="426.3414634146342" y="188.4324324324324" fill="#f7d24d" opacity="0.9">
                </rect>
                <text id="army-military-comparison-bar-label-2" class="scene chart army-military-comparison mark bar-label-2 data-item data-item-2 bar-label" ac-data="{&quot;name&quot;:&quot;China&quot;,&quot;value&quot;:11.8}" x="458.8414634146342" y="188.4324324324324" dy="-20" font-size="23" font-weight="bold" text-anchor="middle">$11.8 TRILLION</text>
            </g>
            <g class="group bar-group">
                <rect id="army-military-comparison-bar-3" class="scene chart army-military-comparison mark bar-3 data-item data-item-3 bar" ac-data="{&quot;name&quot;:&quot;Japan&quot;,&quot;value&quot;:4.8}" width="65" height="75.89189189189189" x="553.170731707317" y="299.1081081081081" fill="#67bf27" opacity="0.9">
                </rect>
                <text id="army-military-comparison-bar-label-3" class="scene chart army-military-comparison mark bar-label-3 data-item data-item-3 bar-label" ac-data="{&quot;name&quot;:&quot;Japan&quot;,&quot;value&quot;:4.8}" x="585.670731707317" y="299.1081081081081" dy="-20" font-size="23" font-weight="bold" text-anchor="middle">$4.8 TRILLION</text>
            </g>
        </g>
    </g>
</svg>