<svg xmlns="http://www.w3.org/2000/svg" xmlns:xlink="http://www.w3.org/1999/xlink" version="1.1" class="marks"
  width="1048" height="684" viewBox="0 0 524 342">
  <rect width="524" height="342" fill="white" />
  <g fill="none" stroke-miterlimit="10" transform="translate(19,107)">
    <g class="mark-group role-frame root" role="graphics-object" aria-roledescription="group mark container">
      <g transform="translate(0,0)">
        <path class="background" aria-hidden="true" d="M0,0h500v200h-500Z" stroke="0" />
        <g>
          <g class="mark-group role-axis" aria-hidden="true">
            <g transform="translate(0.5,0.5)">
              <path class="background" aria-hidden="true" d="M0,0h0v0h0Z" pointer-events="none" />
              <g>
                <g class="mark-rule role-axis-grid" pointer-events="none">
                  <line transform="translate(0,200)" x2="500" y2="0" stroke="#ddd" stroke-width="1" opacity="1" />
                  <line transform="translate(0,175)" x2="500" y2="0" stroke="#ddd" stroke-width="1" opacity="1" />
                  <line transform="translate(0,150)" x2="500" y2="0" stroke="#ddd" stroke-width="1" opacity="1" />
                  <line transform="translate(0,125)" x2="500" y2="0" stroke="#ddd" stroke-width="1" opacity="1" />
                  <line transform="translate(0,100)" x2="500" y2="0" stroke="#ddd" stroke-width="1" opacity="1" />
                  <line transform="translate(0,75)" x2="500" y2="0" stroke="#ddd" stroke-width="1" opacity="1" />
                  <line transform="translate(0,50)" x2="500" y2="0" stroke="#ddd" stroke-width="1" opacity="1" />
                  <line transform="translate(0,25)" x2="500" y2="0" stroke="#ddd" stroke-width="1" opacity="1" />
                  <line transform="translate(0,0)" x2="500" y2="0" stroke="#ddd" stroke-width="1" opacity="1" />
                </g>
              </g>
              <path class="foreground" aria-hidden="true" d="" pointer-events="none" display="none" />
            </g>
          </g>
          <g class="mark-group role-axis" role="graphics-symbol" aria-roledescription="axis"
            aria-label="X-axis for a discrete scale with 28 values: 1995, 1996, 1997, 1998, 1999, ending with 2022">
            <g transform="translate(0.5,200.5)">
              <path class="background" aria-hidden="true" d="M0,0h0v0h0Z" pointer-events="none" />
              <g>
                <g class="mark-rule role-axis-tick" pointer-events="none">
                  <line transform="translate(9,0)" x2="0" y2="5" stroke="#888" stroke-width="1" opacity="1" />
                  <line transform="translate(27,0)" x2="0" y2="5" stroke="#888" stroke-width="1" opacity="1" />
                  <line transform="translate(45,0)" x2="0" y2="5" stroke="#888" stroke-width="1" opacity="1" />
                  <line transform="translate(62,0)" x2="0" y2="5" stroke="#888" stroke-width="1" opacity="1" />
                  <line transform="translate(80,0)" x2="0" y2="5" stroke="#888" stroke-width="1" opacity="1" />
                  <line transform="translate(98,0)" x2="0" y2="5" stroke="#888" stroke-width="1" opacity="1" />
                  <line transform="translate(116,0)" x2="0" y2="5" stroke="#888" stroke-width="1" opacity="1" />
                  <line transform="translate(134,0)" x2="0" y2="5" stroke="#888" stroke-width="1" opacity="1" />
                  <line transform="translate(152,0)" x2="0" y2="5" stroke="#888" stroke-width="1" opacity="1" />
                  <line transform="translate(170,0)" x2="0" y2="5" stroke="#888" stroke-width="1" opacity="1" />
                  <line transform="translate(188,0)" x2="0" y2="5" stroke="#888" stroke-width="1" opacity="1" />
                  <line transform="translate(205,0)" x2="0" y2="5" stroke="#888" stroke-width="1" opacity="1" />
                  <line transform="translate(223,0)" x2="0" y2="5" stroke="#888" stroke-width="1" opacity="1" />
                  <line transform="translate(241,0)" x2="0" y2="5" stroke="#888" stroke-width="1" opacity="1" />
                  <line transform="translate(259,0)" x2="0" y2="5" stroke="#888" stroke-width="1" opacity="1" />
                  <line transform="translate(277,0)" x2="0" y2="5" stroke="#888" stroke-width="1" opacity="1" />
                  <line transform="translate(295,0)" x2="0" y2="5" stroke="#888" stroke-width="1" opacity="1" />
                  <line transform="translate(313,0)" x2="0" y2="5" stroke="#888" stroke-width="1" opacity="1" />
                  <line transform="translate(330,0)" x2="0" y2="5" stroke="#888" stroke-width="1" opacity="1" />
                  <line transform="translate(348,0)" x2="0" y2="5" stroke="#888" stroke-width="1" opacity="1" />
                  <line transform="translate(366,0)" x2="0" y2="5" stroke="#888" stroke-width="1" opacity="1" />
                  <line transform="translate(384,0)" x2="0" y2="5" stroke="#888" stroke-width="1" opacity="1" />
                  <line transform="translate(402,0)" x2="0" y2="5" stroke="#888" stroke-width="1" opacity="1" />
                  <line transform="translate(420,0)" x2="0" y2="5" stroke="#888" stroke-width="1" opacity="1" />
                  <line transform="translate(438,0)" x2="0" y2="5" stroke="#888" stroke-width="1" opacity="1" />
                  <line transform="translate(455,0)" x2="0" y2="5" stroke="#888" stroke-width="1" opacity="1" />
                  <line transform="translate(473,0)" x2="0" y2="5" stroke="#888" stroke-width="1" opacity="1" />
                  <line transform="translate(491,0)" x2="0" y2="5" stroke="#888" stroke-width="1" opacity="1" />
                </g>
                <g class="mark-text role-axis-label" pointer-events="none"><text text-anchor="end"
                    transform="translate(8.928571428571416,7) rotate(270) translate(0,3)" font-family="sans-serif"
                    font-size="10px" fill="#000" opacity="1">1995</text><text text-anchor="end"
                    transform="translate(26.785714285714274,7) rotate(270) translate(0,3)" font-family="sans-serif"
                    font-size="10px" fill="#000" opacity="1">1996</text><text text-anchor="end"
                    transform="translate(44.64285714285713,7) rotate(270) translate(0,3)" font-family="sans-serif"
                    font-size="10px" fill="#000" opacity="1">1997</text><text text-anchor="end"
                    transform="translate(62.499999999999986,7) rotate(270) translate(0,3)" font-family="sans-serif"
                    font-size="10px" fill="#000" opacity="1">1998</text><text text-anchor="end"
                    transform="translate(80.35714285714285,7) rotate(270) translate(0,3)" font-family="sans-serif"
                    font-size="10px" fill="#000" opacity="1">1999</text><text text-anchor="end"
                    transform="translate(98.21428571428571,7) rotate(270) translate(0,3)" font-family="sans-serif"
                    font-size="10px" fill="#000" opacity="1">2000</text><text text-anchor="end"
                    transform="translate(116.07142857142856,7) rotate(270) translate(0,3)" font-family="sans-serif"
                    font-size="10px" fill="#000" opacity="1">2001</text><text text-anchor="end"
                    transform="translate(133.92857142857142,7) rotate(270) translate(0,3)" font-family="sans-serif"
                    font-size="10px" fill="#000" opacity="1">2002</text><text text-anchor="end"
                    transform="translate(151.78571428571428,7) rotate(270) translate(0,3)" font-family="sans-serif"
                    font-size="10px" fill="#000" opacity="1">2003</text><text text-anchor="end"
                    transform="translate(169.64285714285714,7) rotate(270) translate(0,3)" font-family="sans-serif"
                    font-size="10px" fill="#000" opacity="1">2004</text><text text-anchor="end"
                    transform="translate(187.5,7) rotate(270) translate(0,3)" font-family="sans-serif" font-size="10px"
                    fill="#000" opacity="1">2005</text><text text-anchor="end"
                    transform="translate(205.35714285714286,7) rotate(270) translate(0,3)" font-family="sans-serif"
                    font-size="10px" fill="#000" opacity="1">2006</text><text text-anchor="end"
                    transform="translate(223.2142857142857,7) rotate(270) translate(0,3)" font-family="sans-serif"
                    font-size="10px" fill="#000" opacity="1">2007</text><text text-anchor="end"
                    transform="translate(241.07142857142856,7) rotate(270) translate(0,3)" font-family="sans-serif"
                    font-size="10px" fill="#000" opacity="1">2008</text><text text-anchor="end"
                    transform="translate(258.92857142857144,7) rotate(270) translate(0,3)" font-family="sans-serif"
                    font-size="10px" fill="#000" opacity="1">2009</text><text text-anchor="end"
                    transform="translate(276.78571428571433,7) rotate(270) translate(0,3)" font-family="sans-serif"
                    font-size="10px" fill="#000" opacity="1">2010</text><text text-anchor="end"
                    transform="translate(294.6428571428571,7) rotate(270) translate(0,3)" font-family="sans-serif"
                    font-size="10px" fill="#000" opacity="1">2011</text><text text-anchor="end"
                    transform="translate(312.5,7) rotate(270) translate(0,3)" font-family="sans-serif" font-size="10px"
                    fill="#000" opacity="1">2012</text><text text-anchor="end"
                    transform="translate(330.3571428571429,7) rotate(270) translate(0,3)" font-family="sans-serif"
                    font-size="10px" fill="#000" opacity="1">2013</text><text text-anchor="end"
                    transform="translate(348.21428571428567,7) rotate(270) translate(0,3)" font-family="sans-serif"
                    font-size="10px" fill="#000" opacity="1">2014</text><text text-anchor="end"
                    transform="translate(366.07142857142856,7) rotate(270) translate(0,3)" font-family="sans-serif"
                    font-size="10px" fill="#000" opacity="1">2015</text><text text-anchor="end"
                    transform="translate(383.92857142857144,7) rotate(270) translate(0,3)" font-family="sans-serif"
                    font-size="10px" fill="#000" opacity="1">2016</text><text text-anchor="end"
                    transform="translate(401.78571428571433,7) rotate(270) translate(0,3)" font-family="sans-serif"
                    font-size="10px" fill="#000" opacity="1">2017</text><text text-anchor="end"
                    transform="translate(419.6428571428571,7) rotate(270) translate(0,3)" font-family="sans-serif"
                    font-size="10px" fill="#000" opacity="1">2018</text><text text-anchor="end"
                    transform="translate(437.5,7) rotate(270) translate(0,3)" font-family="sans-serif" font-size="10px"
                    fill="#000" opacity="1">2019</text><text text-anchor="end"
                    transform="translate(455.3571428571429,7) rotate(270) translate(0,3)" font-family="sans-serif"
                    font-size="10px" fill="#000" opacity="1">2020</text><text text-anchor="end"
                    transform="translate(473.21428571428567,7) rotate(270) translate(0,3)" font-family="sans-serif"
                    font-size="10px" fill="#000" opacity="1">2021</text><text text-anchor="end"
                    transform="translate(491.07142857142856,7) rotate(270) translate(0,3)" font-family="sans-serif"
                    font-size="10px" fill="#000" opacity="1">2022</text></g>
                <g class="mark-rule role-axis-domain" pointer-events="none">
                  <line transform="translate(0,0)" x2="500" y2="0" stroke="#888" stroke-width="1" opacity="1" />
                </g>
              </g>
              <path class="foreground" aria-hidden="true" d="" pointer-events="none" display="none" />
            </g>
          </g>
          <g class="mark-group role-axis" role="graphics-symbol" aria-roledescription="axis"
            aria-label="Y-axis for a linear scale with values from 0 to 16">
            <g transform="translate(0.5,0.5)">
              <path class="background" aria-hidden="true" d="M0,0h0v0h0Z" pointer-events="none" />
              <g>
                <g class="mark-text role-axis-label" pointer-events="none"><text text-anchor="end"
                    transform="translate(-2,203)" font-family="sans-serif" font-size="10px" fill="#000"
                    opacity="1">0</text><text text-anchor="end" transform="translate(-2,178)" font-family="sans-serif"
                    font-size="10px" fill="#000" opacity="1">2</text><text text-anchor="end"
                    transform="translate(-2,153)" font-family="sans-serif" font-size="10px" fill="#000"
                    opacity="1">4</text><text text-anchor="end" transform="translate(-2,128)" font-family="sans-serif"
                    font-size="10px" fill="#000" opacity="1">6</text><text text-anchor="end"
                    transform="translate(-2,103)" font-family="sans-serif" font-size="10px" fill="#000"
                    opacity="1">8</text><text text-anchor="end" transform="translate(-2,78)" font-family="sans-serif"
                    font-size="10px" fill="#000" opacity="1">10</text><text text-anchor="end"
                    transform="translate(-2,53)" font-family="sans-serif" font-size="10px" fill="#000"
                    opacity="1">12</text><text text-anchor="end" transform="translate(-2,28)" font-family="sans-serif"
                    font-size="10px" fill="#000" opacity="1">14</text><text text-anchor="end"
                    transform="translate(-2,3)" font-family="sans-serif" font-size="10px" fill="#000"
                    opacity="1">16</text></g>
              </g>
              <path class="foreground" aria-hidden="true" d="" pointer-events="none" display="none" />
            </g>
          </g>
          <g class="mark-group role-scope layer_0_layer_0_pathgroup" role="graphics-object"
            aria-roledescription="group mark container">
            <g transform="translate(0,0)">
              <path class="background" aria-hidden="true" d="M0,0h500v200h-500Z" />
              <g>
                <g class="mark-line role-mark layer_0_layer_0_marks" role="graphics-object"
                  aria-roledescription="line mark container">
                  <path aria-label="legend-none: Unadjusted" role="graphics-symbol"
                    aria-roledescription="line mark"
                    d="M8.929,133.625L26.786,127.875L44.643,122.125L62.5,115.375L80.357,108.25L98.214,105.875L116.071,96.25L133.929,85.5L151.786,85.125L169.643,83.875L187.5,90L205.357,85.5L223.214,77.875L241.071,78.125L258.929,67L276.786,69L294.643,72.625L312.5,62.625L330.357,63.875L348.214,71.625L366.071,60.5L383.929,59.125L401.786,62.625L419.643,50.625L437.5,59.25L455.357,175.125L473.214,143.5L491.071,106.5"
                    stroke="#0666E5" stroke-width="3" />
                </g>
              </g>
              <path class="foreground" aria-hidden="true" d="" display="none" />
            </g>
            <g transform="translate(0,0)">
              <path class="background" aria-hidden="true" d="M0,0h500v200h-500Z" />
              <g>
                <g class="mark-line role-mark layer_0_layer_0_marks" role="graphics-object"
                  aria-roledescription="line mark container">
                  <path aria-label="legend-none: Adjusted to 2022 ticket prices"
                    role="graphics-symbol" aria-roledescription="line mark"
                    d="M8.929,60L26.786,50.375L44.643,44.375L62.5,34.5L80.357,34.375L98.214,39.875L116.071,32L133.929,19.375L151.786,25.25L169.643,28.5L187.5,42.625L205.357,39.625L223.214,37.25L241.071,44.375L258.929,37.375L276.786,47.625L294.643,52.75L312.5,41.75L330.357,46.5L348.214,55.875L366.071,48.25L383.929,50.75L401.786,59.5L419.643,49.75L437.5,59.125L455.357,175.125L473.214,143.5L491.071,106.5"
                    stroke="#7BC306" stroke-width="3" />
                </g>
              </g>
              <path class="foreground" aria-hidden="true" d="" display="none" />
            </g>
          </g>
          <g class="mark-symbol role-mark layer_0_layer_1_marks" role="graphics-object"
            aria-roledescription="symbol mark container">
            <path aria-label="x-none: 2022; y-none: 7.48; legend-none: Unadjusted" role="graphics-symbol"
              aria-roledescription="point" transform="translate(491.07142857142856,106.5)"
              d="M2.739,0A2.739,2.739,0,1,1,-2.739,0A2.739,2.739,0,1,1,2.739,0" fill="#0666E5" stroke-width="2"
              opacity="1" />
            <path aria-label="x-none: 2021; y-none: 4.52; legend-none: Unadjusted" role="graphics-symbol"
              aria-roledescription="point" transform="translate(473.21428571428567,143.5)"
              d="M2.739,0A2.739,2.739,0,1,1,-2.739,0A2.739,2.739,0,1,1,2.739,0" fill="#0666E5" stroke-width="2"
              opacity="1" />
            <path aria-label="x-none: 2020; y-none: 1.99; legend-none: Unadjusted" role="graphics-symbol"
              aria-roledescription="point" transform="translate(455.3571428571429,175.125)"
              d="M2.739,0A2.739,2.739,0,1,1,-2.739,0A2.739,2.739,0,1,1,2.739,0" fill="#0666E5" stroke-width="2"
              opacity="1" />
            <path aria-label="x-none: 2019; y-none: 11.26; legend-none: Unadjusted" role="graphics-symbol"
              aria-roledescription="point" transform="translate(437.5,59.25)"
              d="M2.739,0A2.739,2.739,0,1,1,-2.739,0A2.739,2.739,0,1,1,2.739,0" fill="#0666E5" stroke-width="2"
              opacity="1" />
            <path aria-label="x-none: 2018; y-none: 11.95; legend-none: Unadjusted" role="graphics-symbol"
              aria-roledescription="point" transform="translate(419.6428571428571,50.62500000000001)"
              d="M2.739,0A2.739,2.739,0,1,1,-2.739,0A2.739,2.739,0,1,1,2.739,0" fill="#0666E5" stroke-width="2"
              opacity="1" />
            <path aria-label="x-none: 2017; y-none: 10.99; legend-none: Unadjusted" role="graphics-symbol"
              aria-roledescription="point" transform="translate(401.78571428571433,62.625)"
              d="M2.739,0A2.739,2.739,0,1,1,-2.739,0A2.739,2.739,0,1,1,2.739,0" fill="#0666E5" stroke-width="2"
              opacity="1" />
            <path aria-label="x-none: 2016; y-none: 11.27; legend-none: Unadjusted" role="graphics-symbol"
              aria-roledescription="point" transform="translate(383.92857142857144,59.12500000000001)"
              d="M2.739,0A2.739,2.739,0,1,1,-2.739,0A2.739,2.739,0,1,1,2.739,0" fill="#0666E5" stroke-width="2"
              opacity="1" />
            <path aria-label="x-none: 2015; y-none: 11.16; legend-none: Unadjusted" role="graphics-symbol"
              aria-roledescription="point" transform="translate(366.07142857142856,60.5)"
              d="M2.739,0A2.739,2.739,0,1,1,-2.739,0A2.739,2.739,0,1,1,2.739,0" fill="#0666E5" stroke-width="2"
              opacity="1" />
            <path aria-label="x-none: 2014; y-none: 10.27; legend-none: Unadjusted" role="graphics-symbol"
              aria-roledescription="point" transform="translate(348.21428571428567,71.625)"
              d="M2.739,0A2.739,2.739,0,1,1,-2.739,0A2.739,2.739,0,1,1,2.739,0" fill="#0666E5" stroke-width="2"
              opacity="1" />
            <path aria-label="x-none: 2013; y-none: 10.89; legend-none: Unadjusted" role="graphics-symbol"
              aria-roledescription="point" transform="translate(330.3571428571429,63.87499999999999)"
              d="M2.739,0A2.739,2.739,0,1,1,-2.739,0A2.739,2.739,0,1,1,2.739,0" fill="#0666E5" stroke-width="2"
              opacity="1" />
            <path aria-label="x-none: 2012; y-none: 10.99; legend-none: Unadjusted" role="graphics-symbol"
              aria-roledescription="point" transform="translate(312.5,62.625)"
              d="M2.739,0A2.739,2.739,0,1,1,-2.739,0A2.739,2.739,0,1,1,2.739,0" fill="#0666E5" stroke-width="2"
              opacity="1" />
            <path aria-label="x-none: 2011; y-none: 10.19; legend-none: Unadjusted" role="graphics-symbol"
              aria-roledescription="point" transform="translate(294.6428571428571,72.625)"
              d="M2.739,0A2.739,2.739,0,1,1,-2.739,0A2.739,2.739,0,1,1,2.739,0" fill="#0666E5" stroke-width="2"
              opacity="1" />
            <path aria-label="x-none: 2010; y-none: 10.48; legend-none: Unadjusted" role="graphics-symbol"
              aria-roledescription="point" transform="translate(276.78571428571433,69)"
              d="M2.739,0A2.739,2.739,0,1,1,-2.739,0A2.739,2.739,0,1,1,2.739,0" fill="#0666E5" stroke-width="2"
              opacity="1" />
            <path aria-label="x-none: 2009; y-none: 10.64; legend-none: Unadjusted" role="graphics-symbol"
              aria-roledescription="point" transform="translate(258.92857142857144,67)"
              d="M2.739,0A2.739,2.739,0,1,1,-2.739,0A2.739,2.739,0,1,1,2.739,0" fill="#0666E5" stroke-width="2"
              opacity="1" />
            <path aria-label="x-none: 2008; y-none: 9.75; legend-none: Unadjusted" role="graphics-symbol"
              aria-roledescription="point" transform="translate(241.07142857142856,78.125)"
              d="M2.739,0A2.739,2.739,0,1,1,-2.739,0A2.739,2.739,0,1,1,2.739,0" fill="#0666E5" stroke-width="2"
              opacity="1" />
            <path aria-label="x-none: 2007; y-none: 9.77; legend-none: Unadjusted" role="graphics-symbol"
              aria-roledescription="point" transform="translate(223.2142857142857,77.875)"
              d="M2.739,0A2.739,2.739,0,1,1,-2.739,0A2.739,2.739,0,1,1,2.739,0" fill="#0666E5" stroke-width="2"
              opacity="1" />
            <path aria-label="x-none: 2006; y-none: 9.16; legend-none: Unadjusted" role="graphics-symbol"
              aria-roledescription="point" transform="translate(205.35714285714286,85.5)"
              d="M2.739,0A2.739,2.739,0,1,1,-2.739,0A2.739,2.739,0,1,1,2.739,0" fill="#0666E5" stroke-width="2"
              opacity="1" />
            <path aria-label="x-none: 2005; y-none: 8.8; legend-none: Unadjusted" role="graphics-symbol"
              aria-roledescription="point" transform="translate(187.5,89.99999999999999)"
              d="M2.739,0A2.739,2.739,0,1,1,-2.739,0A2.739,2.739,0,1,1,2.739,0" fill="#0666E5" stroke-width="2"
              opacity="1" />
            <path aria-label="x-none: 2004; y-none: 9.29; legend-none: Unadjusted" role="graphics-symbol"
              aria-roledescription="point" transform="translate(169.64285714285714,83.87500000000001)"
              d="M2.739,0A2.739,2.739,0,1,1,-2.739,0A2.739,2.739,0,1,1,2.739,0" fill="#0666E5" stroke-width="2"
              opacity="1" />
            <path aria-label="x-none: 2003; y-none: 9.19; legend-none: Unadjusted" role="graphics-symbol"
              aria-roledescription="point" transform="translate(151.78571428571428,85.125)"
              d="M2.739,0A2.739,2.739,0,1,1,-2.739,0A2.739,2.739,0,1,1,2.739,0" fill="#0666E5" stroke-width="2"
              opacity="1" />
            <path aria-label="x-none: 2002; y-none: 9.16; legend-none: Unadjusted" role="graphics-symbol"
              aria-roledescription="point" transform="translate(133.92857142857142,85.5)"
              d="M2.739,0A2.739,2.739,0,1,1,-2.739,0A2.739,2.739,0,1,1,2.739,0" fill="#0666E5" stroke-width="2"
              opacity="1" />
            <path aria-label="x-none: 2001; y-none: 8.3; legend-none: Unadjusted" role="graphics-symbol"
              aria-roledescription="point" transform="translate(116.07142857142856,96.24999999999999)"
              d="M2.739,0A2.739,2.739,0,1,1,-2.739,0A2.739,2.739,0,1,1,2.739,0" fill="#0666E5" stroke-width="2"
              opacity="1" />
            <path aria-label="x-none: 2000; y-none: 7.53; legend-none: Unadjusted" role="graphics-symbol"
              aria-roledescription="point" transform="translate(98.21428571428571,105.87499999999999)"
              d="M2.739,0A2.739,2.739,0,1,1,-2.739,0A2.739,2.739,0,1,1,2.739,0" fill="#0666E5" stroke-width="2"
              opacity="1" />
            <path aria-label="x-none: 1999; y-none: 7.34; legend-none: Unadjusted" role="graphics-symbol"
              aria-roledescription="point" transform="translate(80.35714285714285,108.25)"
              d="M2.739,0A2.739,2.739,0,1,1,-2.739,0A2.739,2.739,0,1,1,2.739,0" fill="#0666E5" stroke-width="2"
              opacity="1" />
            <path aria-label="x-none: 1998; y-none: 6.77; legend-none: Unadjusted" role="graphics-symbol"
              aria-roledescription="point" transform="translate(62.499999999999986,115.375)"
              d="M2.739,0A2.739,2.739,0,1,1,-2.739,0A2.739,2.739,0,1,1,2.739,0" fill="#0666E5" stroke-width="2"
              opacity="1" />
            <path aria-label="x-none: 1997; y-none: 6.23; legend-none: Unadjusted" role="graphics-symbol"
              aria-roledescription="point" transform="translate(44.64285714285713,122.125)"
              d="M2.739,0A2.739,2.739,0,1,1,-2.739,0A2.739,2.739,0,1,1,2.739,0" fill="#0666E5" stroke-width="2"
              opacity="1" />
            <path aria-label="x-none: 1996; y-none: 5.77; legend-none: Unadjusted" role="graphics-symbol"
              aria-roledescription="point" transform="translate(26.785714285714274,127.875)"
              d="M2.739,0A2.739,2.739,0,1,1,-2.739,0A2.739,2.739,0,1,1,2.739,0" fill="#0666E5" stroke-width="2"
              opacity="1" />
            <path aria-label="x-none: 1995; y-none: 5.31; legend-none: Unadjusted" role="graphics-symbol"
              aria-roledescription="point" transform="translate(8.928571428571416,133.62500000000003)"
              d="M2.739,0A2.739,2.739,0,1,1,-2.739,0A2.739,2.739,0,1,1,2.739,0" fill="#0666E5" stroke-width="2"
              opacity="1" />
            <path aria-label="x-none: 2022; y-none: 7.48; legend-none: Adjusted to 2022 ticket prices"
              role="graphics-symbol" aria-roledescription="point" transform="translate(491.07142857142856,106.5)"
              d="M2.739,0A2.739,2.739,0,1,1,-2.739,0A2.739,2.739,0,1,1,2.739,0" fill="#7BC306" stroke-width="2"
              opacity="1" />
            <path aria-label="x-none: 2021; y-none: 4.52; legend-none: Adjusted to 2022 ticket prices"
              role="graphics-symbol" aria-roledescription="point" transform="translate(473.21428571428567,143.5)"
              d="M2.739,0A2.739,2.739,0,1,1,-2.739,0A2.739,2.739,0,1,1,2.739,0" fill="#7BC306" stroke-width="2"
              opacity="1" />
            <path aria-label="x-none: 2020; y-none: 1.99; legend-none: Adjusted to 2022 ticket prices"
              role="graphics-symbol" aria-roledescription="point" transform="translate(455.3571428571429,175.125)"
              d="M2.739,0A2.739,2.739,0,1,1,-2.739,0A2.739,2.739,0,1,1,2.739,0" fill="#7BC306" stroke-width="2"
              opacity="1" />
            <path aria-label="x-none: 2019; y-none: 11.27; legend-none: Adjusted to 2022 ticket prices"
              role="graphics-symbol" aria-roledescription="point" transform="translate(437.5,59.12500000000001)"
              d="M2.739,0A2.739,2.739,0,1,1,-2.739,0A2.739,2.739,0,1,1,2.739,0" fill="#7BC306" stroke-width="2"
              opacity="1" />
            <path aria-label="x-none: 2018; y-none: 12.02; legend-none: Adjusted to 2022 ticket prices"
              role="graphics-symbol" aria-roledescription="point"
              transform="translate(419.6428571428571,49.75000000000001)"
              d="M2.739,0A2.739,2.739,0,1,1,-2.739,0A2.739,2.739,0,1,1,2.739,0" fill="#7BC306" stroke-width="2"
              opacity="1" />
            <path aria-label="x-none: 2017; y-none: 11.24; legend-none: Adjusted to 2022 ticket prices"
              role="graphics-symbol" aria-roledescription="point" transform="translate(401.78571428571433,59.5)"
              d="M2.739,0A2.739,2.739,0,1,1,-2.739,0A2.739,2.739,0,1,1,2.739,0" fill="#7BC306" stroke-width="2"
              opacity="1" />
            <path aria-label="x-none: 2016; y-none: 11.94; legend-none: Adjusted to 2022 ticket prices"
              role="graphics-symbol" aria-roledescription="point"
              transform="translate(383.92857142857144,50.75000000000001)"
              d="M2.739,0A2.739,2.739,0,1,1,-2.739,0A2.739,2.739,0,1,1,2.739,0" fill="#7BC306" stroke-width="2"
              opacity="1" />
            <path aria-label="x-none: 2015; y-none: 12.14; legend-none: Adjusted to 2022 ticket prices"
              role="graphics-symbol" aria-roledescription="point"
              transform="translate(366.07142857142856,48.24999999999999)"
              d="M2.739,0A2.739,2.739,0,1,1,-2.739,0A2.739,2.739,0,1,1,2.739,0" fill="#7BC306" stroke-width="2"
              opacity="1" />
            <path aria-label="x-none: 2014; y-none: 11.53; legend-none: Adjusted to 2022 ticket prices"
              role="graphics-symbol" aria-roledescription="point"
              transform="translate(348.21428571428567,55.87500000000001)"
              d="M2.739,0A2.739,2.739,0,1,1,-2.739,0A2.739,2.739,0,1,1,2.739,0" fill="#7BC306" stroke-width="2"
              opacity="1" />
            <path aria-label="x-none: 2013; y-none: 12.28; legend-none: Adjusted to 2022 ticket prices"
              role="graphics-symbol" aria-roledescription="point"
              transform="translate(330.3571428571429,46.50000000000001)"
              d="M2.739,0A2.739,2.739,0,1,1,-2.739,0A2.739,2.739,0,1,1,2.739,0" fill="#7BC306" stroke-width="2"
              opacity="1" />
            <path aria-label="x-none: 2012; y-none: 12.66; legend-none: Adjusted to 2022 ticket prices"
              role="graphics-symbol" aria-roledescription="point" transform="translate(312.5,41.75)"
              d="M2.739,0A2.739,2.739,0,1,1,-2.739,0A2.739,2.739,0,1,1,2.739,0" fill="#7BC306" stroke-width="2"
              opacity="1" />
            <path aria-label="x-none: 2011; y-none: 11.78; legend-none: Adjusted to 2022 ticket prices"
              role="graphics-symbol" aria-roledescription="point"
              transform="translate(294.6428571428571,52.75000000000001)"
              d="M2.739,0A2.739,2.739,0,1,1,-2.739,0A2.739,2.739,0,1,1,2.739,0" fill="#7BC306" stroke-width="2"
              opacity="1" />
            <path aria-label="x-none: 2010; y-none: 12.19; legend-none: Adjusted to 2022 ticket prices"
              role="graphics-symbol" aria-roledescription="point"
              transform="translate(276.78571428571433,47.62500000000001)"
              d="M2.739,0A2.739,2.739,0,1,1,-2.739,0A2.739,2.739,0,1,1,2.739,0" fill="#7BC306" stroke-width="2"
              opacity="1" />
            <path aria-label="x-none: 2009; y-none: 13.01; legend-none: Adjusted to 2022 ticket prices"
              role="graphics-symbol" aria-roledescription="point" transform="translate(258.92857142857144,37.375)"
              d="M2.739,0A2.739,2.739,0,1,1,-2.739,0A2.739,2.739,0,1,1,2.739,0" fill="#7BC306" stroke-width="2"
              opacity="1" />
            <path aria-label="x-none: 2008; y-none: 12.45; legend-none: Adjusted to 2022 ticket prices"
              role="graphics-symbol" aria-roledescription="point"
              transform="translate(241.07142857142856,44.37500000000001)"
              d="M2.739,0A2.739,2.739,0,1,1,-2.739,0A2.739,2.739,0,1,1,2.739,0" fill="#7BC306" stroke-width="2"
              opacity="1" />
            <path aria-label="x-none: 2007; y-none: 13.02; legend-none: Adjusted to 2022 ticket prices"
              role="graphics-symbol" aria-roledescription="point"
              transform="translate(223.2142857142857,37.25000000000001)"
              d="M2.739,0A2.739,2.739,0,1,1,-2.739,0A2.739,2.739,0,1,1,2.739,0" fill="#7BC306" stroke-width="2"
              opacity="1" />
            <path aria-label="x-none: 2006; y-none: 12.83; legend-none: Adjusted to 2022 ticket prices"
              role="graphics-symbol" aria-roledescription="point" transform="translate(205.35714285714286,39.625)"
              d="M2.739,0A2.739,2.739,0,1,1,-2.739,0A2.739,2.739,0,1,1,2.739,0" fill="#7BC306" stroke-width="2"
              opacity="1" />
            <path aria-label="x-none: 2005; y-none: 12.59; legend-none: Adjusted to 2022 ticket prices"
              role="graphics-symbol" aria-roledescription="point" transform="translate(187.5,42.625)"
              d="M2.739,0A2.739,2.739,0,1,1,-2.739,0A2.739,2.739,0,1,1,2.739,0" fill="#7BC306" stroke-width="2"
              opacity="1" />
            <path aria-label="x-none: 2004; y-none: 13.72; legend-none: Adjusted to 2022 ticket prices"
              role="graphics-symbol" aria-roledescription="point"
              transform="translate(169.64285714285714,28.499999999999993)"
              d="M2.739,0A2.739,2.739,0,1,1,-2.739,0A2.739,2.739,0,1,1,2.739,0" fill="#7BC306" stroke-width="2"
              opacity="1" />
            <path aria-label="x-none: 2003; y-none: 13.98; legend-none: Adjusted to 2022 ticket prices"
              role="graphics-symbol" aria-roledescription="point"
              transform="translate(151.78571428571428,25.249999999999993)"
              d="M2.739,0A2.739,2.739,0,1,1,-2.739,0A2.739,2.739,0,1,1,2.739,0" fill="#7BC306" stroke-width="2"
              opacity="1" />
            <path aria-label="x-none: 2002; y-none: 14.45; legend-none: Adjusted to 2022 ticket prices"
              role="graphics-symbol" aria-roledescription="point"
              transform="translate(133.92857142857142,19.375000000000007)"
              d="M2.739,0A2.739,2.739,0,1,1,-2.739,0A2.739,2.739,0,1,1,2.739,0" fill="#7BC306" stroke-width="2"
              opacity="1" />
            <path aria-label="x-none: 2001; y-none: 13.44; legend-none: Adjusted to 2022 ticket prices"
              role="graphics-symbol" aria-roledescription="point"
              transform="translate(116.07142857142856,32.00000000000001)"
              d="M2.739,0A2.739,2.739,0,1,1,-2.739,0A2.739,2.739,0,1,1,2.739,0" fill="#7BC306" stroke-width="2"
              opacity="1" />
            <path aria-label="x-none: 2000; y-none: 12.81; legend-none: Adjusted to 2022 ticket prices"
              role="graphics-symbol" aria-roledescription="point"
              transform="translate(98.21428571428571,39.87499999999999)"
              d="M2.739,0A2.739,2.739,0,1,1,-2.739,0A2.739,2.739,0,1,1,2.739,0" fill="#7BC306" stroke-width="2"
              opacity="1" />
            <path aria-label="x-none: 1999; y-none: 13.25; legend-none: Adjusted to 2022 ticket prices"
              role="graphics-symbol" aria-roledescription="point" transform="translate(80.35714285714285,34.375)"
              d="M2.739,0A2.739,2.739,0,1,1,-2.739,0A2.739,2.739,0,1,1,2.739,0" fill="#7BC306" stroke-width="2"
              opacity="1" />
            <path aria-label="x-none: 1998; y-none: 13.24; legend-none: Adjusted to 2022 ticket prices"
              role="graphics-symbol" aria-roledescription="point" transform="translate(62.499999999999986,34.5)"
              d="M2.739,0A2.739,2.739,0,1,1,-2.739,0A2.739,2.739,0,1,1,2.739,0" fill="#7BC306" stroke-width="2"
              opacity="1" />
            <path aria-label="x-none: 1997; y-none: 12.45; legend-none: Adjusted to 2022 ticket prices"
              role="graphics-symbol" aria-roledescription="point"
              transform="translate(44.64285714285713,44.37500000000001)"
              d="M2.739,0A2.739,2.739,0,1,1,-2.739,0A2.739,2.739,0,1,1,2.739,0" fill="#7BC306" stroke-width="2"
              opacity="1" />
            <path aria-label="x-none: 1996; y-none: 11.97; legend-none: Adjusted to 2022 ticket prices"
              role="graphics-symbol" aria-roledescription="point"
              transform="translate(26.785714285714274,50.37499999999999)"
              d="M2.739,0A2.739,2.739,0,1,1,-2.739,0A2.739,2.739,0,1,1,2.739,0" fill="#7BC306" stroke-width="2"
              opacity="1" />
            <path aria-label="x-none: 1995; y-none: 11.2; legend-none: Adjusted to 2022 ticket prices"
              role="graphics-symbol" aria-roledescription="point"
              transform="translate(8.928571428571416,60.00000000000001)"
              d="M2.739,0A2.739,2.739,0,1,1,-2.739,0A2.739,2.739,0,1,1,2.739,0" fill="#7BC306" stroke-width="2"
              opacity="1" />
          </g>
          <g class="mark-group role-legend" role="graphics-symbol" aria-roledescription="legend"
            aria-label="Symbol legend for fill color and stroke color with 2 values: Adjusted to 2022 ticket prices, Unadjusted">
            <g transform="translate(120,-40)">
              <path class="background" aria-hidden="true" d="M0,0h261v13h-261Z" pointer-events="none" />
              <g>
                <g class="mark-group role-legend-entry">
                  <g transform="translate(0,0)">
                    <path class="background" aria-hidden="true" d="M0,0h0v0h0Z" pointer-events="none" />
                    <g>
                      <g class="mark-group role-scope" role="graphics-object"
                        aria-roledescription="group mark container">
                        <g transform="translate(0,0.25)">
                          <path class="background" aria-hidden="true" d="M0,0h172.755859375v12.5h-172.755859375Z"
                            pointer-events="none" opacity="1" />
                          <g>
                            <g class="mark-symbol role-legend-symbol" pointer-events="none">
                              <path transform="translate(6,6)" d="M5,0A5,5,0,1,1,-5,0A5,5,0,1,1,5,0" fill="#7BC306"
                                stroke="#7BC306" stroke-width="1.5" opacity="1" />
                            </g>
                            <g class="mark-text role-legend-label" pointer-events="none"><text text-anchor="start"
                                transform="translate(16,10)" font-family="sans-serif" font-size="12px" fill="#000"
                                opacity="1">Adjusted to 2022 ticket prices</text></g>
                          </g>
                          <path class="foreground" aria-hidden="true" d="" pointer-events="none" display="none" />
                        </g>
                        <g transform="translate(184,0.25)">
                          <path class="background" aria-hidden="true" d="M0,0h76.708984375v12.5h-76.708984375Z"
                            pointer-events="none" opacity="1" />
                          <g>
                            <g class="mark-symbol role-legend-symbol" pointer-events="none">
                              <path transform="translate(6,6)" d="M5,0A5,5,0,1,1,-5,0A5,5,0,1,1,5,0" fill="#0666E5"
                                stroke="#0666E5" stroke-width="1.5" opacity="1" />
                            </g>
                            <g class="mark-text role-legend-label" pointer-events="none"><text text-anchor="start"
                                transform="translate(16,10)" font-family="sans-serif" font-size="12px" fill="#000"
                                opacity="1">Unadjusted</text></g>
                          </g>
                          <path class="foreground" aria-hidden="true" d="" pointer-events="none" display="none" />
                        </g>
                      </g>
                    </g>
                    <path class="foreground" aria-hidden="true" d="" pointer-events="none" display="none" />
                  </g>
                </g>
              </g>
              <path class="foreground" aria-hidden="true" d="" pointer-events="none" display="none" />
            </g>
          </g>
          <g class="mark-group role-title">
            <g transform="translate(250,-102)">
              <path class="background" aria-hidden="true" d="M0,0h0v0h0Z" pointer-events="none" />
              <g>
                <g class="mark-text role-title-text" role="graphics-symbol" aria-roledescription="title"
                  aria-label="Title text 'Annual box office earnings in North America (in Billion)'"
                  pointer-events="none"><text text-anchor="middle" transform="translate(0,20)" font-family="sans-serif"
                    font-size="25px" font-weight="bold" fill="#000" opacity="1">
                    <tspan>Annual box office earnings</tspan>
                    <tspan x="0" dy="27">in North America (in Billion)</tspan>
                  </text></g>
              </g>
              <path class="foreground" aria-hidden="true" d="" pointer-events="none" display="none" />
            </g>
          </g>
        </g>
        <path class="foreground" aria-hidden="true" d="" display="none" />
      </g>
    </g>
  </g>
</svg>