<svg xmlns="http://www.w3.org/2000/svg" xmlns:xlink="http://www.w3.org/1999/xlink" version="1.1" class="marks" width="900" height="724" viewBox="0 0 450 362"><rect width="450" height="362" fill="white"/><g fill="none" stroke-miterlimit="10" transform="translate(125,90)"><g class="mark-group role-frame root" role="graphics-object" aria-roledescription="group mark container"><g transform="translate(0,0)"><path class="background" aria-hidden="true" d="M0,0h200v200h-200Z"/><g><g class="mark-arc role-mark layer_0_marks" role="graphics-object" aria-roledescription="arc mark container"><path aria-label="Global Greenhouse Gas emissions by Sector: 16.2; legend-none: Transport" role="graphics-symbol" aria-roledescription="arc mark" transform="translate(100,100)" d="M76.59,-47.266A90,90,0,0,0,0,-90L0,-50A50,50,0,0,1,42.55,-26.259Z" fill="#971D37" stroke="#fff"/><path aria-label="Global Greenhouse Gas emissions by Sector: 17.5; legend-none: Energy in buildings" role="graphics-symbol" aria-roledescription="arc mark" transform="translate(100,100)" d="M76.885,46.784A90,90,0,0,0,76.59,-47.266L42.55,-26.259A50,50,0,0,1,42.714,25.991Z" fill="#D9005D" stroke="#fff"/><path aria-label="Global Greenhouse Gas emissions by Sector: 24.2; legend-none: Energy in industry" role="graphics-symbol" aria-roledescription="arc mark" transform="translate(100,100)" d="M-42.861,79.138A90,90,0,0,0,76.885,46.784L42.714,25.991A50,50,0,0,1,-23.812,43.966Z" fill="#E1737D" stroke="#fff"/><path aria-label="Global Greenhouse Gas emissions by Sector: 1.7; legend-none: Energy in Agri &amp; Fishing" role="graphics-symbol" aria-roledescription="arc mark" transform="translate(100,100)" d="M-51.054,74.118A90,90,0,0,0,-42.861,79.138L-23.812,43.966A50,50,0,0,1,-28.363,41.177Z" fill="#EDA2A8" stroke="#fff"/><path aria-label="Global Greenhouse Gas emissions by Sector: 7.8; legend-none: Unallocated fuel combustion" role="graphics-symbol" aria-roledescription="arc mark" transform="translate(100,100)" d="M-79.932,41.362A90,90,0,0,0,-51.054,74.118L-28.363,41.177A50,50,0,0,1,-44.407,22.979Z" fill="#FFB7AB" stroke="#fff"/><path aria-label="Global Greenhouse Gas emissions by Sector: 5.8; legend-none: Fugitive emissions" role="graphics-symbol" aria-roledescription="arc mark" transform="translate(100,100)" d="M-89.425,10.157A90,90,0,0,0,-79.932,41.362L-44.407,22.979A50,50,0,0,1,-49.681,5.643Z" fill="#C7C9C8" stroke="#fff"/><path aria-label="Global Greenhouse Gas emissions by Sector: 3; legend-none: Cement" role="graphics-symbol" aria-roledescription="arc mark" transform="translate(100,100)" d="M-89.744,-6.779A90,90,0,0,0,-89.425,10.157L-49.681,5.643A50,50,0,0,1,-49.858,-3.766Z" fill="#A9ADAD" stroke="#fff"/><path aria-label="Global Greenhouse Gas emissions by Sector: 2.2; legend-none: Chemical &amp; petrochemical" role="graphics-symbol" aria-roledescription="arc mark" transform="translate(100,100)" d="M-87.954,-19.081A90,90,0,0,0,-89.744,-6.779L-49.858,-3.766A50,50,0,0,1,-48.863,-10.6Z" fill="#006FBD" stroke="#fff"/><path aria-label="Global Greenhouse Gas emissions by Sector: 5.8; legend-none: Livestock &amp; Manure" role="graphics-symbol" aria-roledescription="arc mark" transform="translate(100,100)" d="M-75.378,-49.175A90,90,0,0,0,-87.954,-19.081L-48.863,-10.6A50,50,0,0,1,-41.876,-27.32Z" fill="#006FBD" stroke="#fff"/><path aria-label="Global Greenhouse Gas emissions by Sector: 1.3; legend-none: Rice Cultivation" role="graphics-symbol" aria-roledescription="arc mark" transform="translate(100,100)" d="M-71.114,-55.162A90,90,0,0,0,-75.378,-49.175L-41.876,-27.32A50,50,0,0,1,-39.508,-30.645Z" fill="#50D568" stroke="#fff"/><path aria-label="Global Greenhouse Gas emissions by Sector: 4.1; legend-none: Agricultural Soils" role="graphics-symbol" aria-roledescription="arc mark" transform="translate(100,100)" d="M-54.714,-71.459A90,90,0,0,0,-71.114,-55.162L-39.508,-30.645A50,50,0,0,1,-30.397,-39.7Z" fill="#10C04E" stroke="#fff"/><path aria-label="Global Greenhouse Gas emissions by Sector: 3.5; legend-none: Crop Burning" role="graphics-symbol" aria-roledescription="arc mark" transform="translate(100,100)" d="M-37.808,-81.674A90,90,0,0,0,-54.714,-71.459L-30.397,-39.7A50,50,0,0,1,-21.004,-45.374Z" fill="#00AC38" stroke="#fff"/><path aria-label="Global Greenhouse Gas emissions by Sector: 2.2; legend-none: Forest Land" role="graphics-symbol" aria-roledescription="arc mark" transform="translate(100,100)" d="M-26.193,-86.104A90,90,0,0,0,-37.808,-81.674L-21.004,-45.374A50,50,0,0,1,-14.552,-47.836Z" fill="#00983A" stroke="#fff"/><path aria-label="Global Greenhouse Gas emissions by Sector: 1.4; legend-none: Cropland" role="graphics-symbol" aria-roledescription="arc mark" transform="translate(100,100)" d="M-18.528,-88.072A90,90,0,0,0,-26.193,-86.104L-14.552,-47.836A50,50,0,0,1,-10.293,-48.929Z" fill="#00832E" stroke="#fff"/><path aria-label="Global Greenhouse Gas emissions by Sector: 0.1; legend-none: Grassland" role="graphics-symbol" aria-roledescription="arc mark" transform="translate(100,100)" d="M-17.974,-88.187A90,90,0,0,0,-18.528,-88.072L-10.293,-48.929A50,50,0,0,1,-9.985,-48.993Z" fill="#006E32" stroke="#fff"/><path aria-label="Global Greenhouse Gas emissions by Sector: 1.9; legend-none: Landfills" role="graphics-symbol" aria-roledescription="arc mark" transform="translate(100,100)" d="M-7.343,-89.7A90,90,0,0,0,-17.974,-88.187L-9.985,-48.993A50,50,0,0,1,-4.08,-49.833Z" fill="#C60020" stroke="#fff"/><path aria-label="Global Greenhouse Gas emissions by Sector: 1.3; legend-none: Wastewater" role="graphics-symbol" aria-roledescription="arc mark" transform="translate(100,100)" d="M0,-90A90,90,0,0,0,-7.343,-89.7L-4.08,-49.833A50,50,0,0,1,0,-50Z" fill="#971D37" stroke="#fff"/></g><g class="mark-text role-mark layer_1_marks" role="graphics-object" aria-roledescription="text mark container"><text aria-label="Global Greenhouse Gas emissions by Sector: 16.2; legend-none: Transport" role="graphics-symbol" aria-roledescription="text mark" text-anchor="start" transform="translate(148.72501257253322,12.673754519007986) rotate(-60.84) translate(0,2)" font-family="sans-serif" font-size="8px" fill="#971D37">Transport</text><text aria-label="Global Greenhouse Gas emissions by Sector: 17.5; legend-none: Energy in buildings" role="graphics-symbol" aria-roledescription="text mark" text-anchor="start" transform="translate(199.99950652018583,99.68584125141206) rotate(-0.1799999999999784) translate(0,2)" font-family="sans-serif" font-size="8px" fill="#D9005D">Energy in buildings</text><text aria-label="Global Greenhouse Gas emissions by Sector: 24.2; legend-none: Energy in industry" role="graphics-symbol" aria-roledescription="text mark" text-anchor="start" transform="translate(126.0841506289897,196.5381638833274) rotate(74.88) translate(0,2)" font-family="sans-serif" font-size="8px" fill="#E1737D">Energy in industry</text><text aria-label="Global Greenhouse Gas emissions by Sector: 1.7; legend-none: Energy in Agri &amp; Fishing" role="graphics-symbol" aria-roledescription="text mark" text-anchor="end" transform="translate(47.75014352840512,185.26401643540925) rotate(-58.49999999999997) translate(0,2)" font-family="sans-serif" font-size="8px" fill="#EDA2A8">Energy in Agri &amp; Fishing</text><text aria-label="Global Greenhouse Gas emissions by Sector: 7.8; legend-none: Unallocated fuel combustion" role="graphics-symbol" aria-roledescription="text mark" text-anchor="end" transform="translate(24.988893036954025,166.13118653236515) rotate(-41.39999999999998) translate(0,2)" font-family="sans-serif" font-size="8px" fill="#FFB7AB">Unallocated fuel combustion</text><text aria-label="Global Greenhouse Gas emissions by Sector: 5.8; legend-none: Fugitive emissions" role="graphics-symbol" aria-roledescription="text mark" text-anchor="end" transform="translate(4.328794844116928,129.10361668282712) rotate(-16.919999999999987) translate(0,2)" font-family="sans-serif" font-size="8px" fill="#C7C9C8">Fugitive emissions</text><text aria-label="Global Greenhouse Gas emissions by Sector: 3; legend-none: Cement" role="graphics-symbol" aria-roledescription="text mark" text-anchor="end" transform="translate(0.017764761919096372,101.8848439715408) rotate(-1.079999999999984) translate(0,2)" font-family="sans-serif" font-size="8px" fill="#A9ADAD">Cement</text><text aria-label="Global Greenhouse Gas emissions by Sector: 2.2; legend-none: Chemical &amp; petrochemical" role="graphics-symbol" aria-roledescription="text mark" text-anchor="end" transform="translate(1.0423881397349106,85.59892174477471) rotate(8.28000000000003) translate(0,2)" font-family="sans-serif" font-size="8px" fill="#006FBD">Chemical &amp; petrochemical</text><text aria-label="Global Greenhouse Gas emissions by Sector: 5.8; legend-none: Livestock &amp; Manure" role="graphics-symbol" aria-roledescription="text mark" text-anchor="end" transform="translate(7.73272601298855,61.44160077226025) rotate(22.680000000000007) translate(0,2)" font-family="sans-serif" font-size="8px" fill="#006FBD">Livestock &amp; Manure</text><text aria-label="Global Greenhouse Gas emissions by Sector: 1.3; legend-none: Rice Cultivation" role="graphics-symbol" aria-roledescription="text mark" text-anchor="end" transform="translate(18.54792729294904,41.9865545608151) rotate(35.45999999999998) translate(0,2)" font-family="sans-serif" font-size="8px" fill="#50D568">Rice Cultivation</text><text aria-label="Global Greenhouse Gas emissions by Sector: 4.1; legend-none: Agricultural Soils" role="graphics-symbol" aria-roledescription="text mark" text-anchor="end" transform="translate(29.51181460576383,29.06752704277264) rotate(45.18000000000001) translate(0,2)" font-family="sans-serif" font-size="8px" fill="#10C04E">Agricultural Soils</text><text aria-label="Global Greenhouse Gas emissions by Sector: 3.5; legend-none: Crop Burning" role="graphics-symbol" aria-roledescription="text mark" text-anchor="end" transform="translate(48.286900986184264,14.409373232886708) rotate(58.860000000000014) translate(0,2)" font-family="sans-serif" font-size="8px" fill="#00AC38">Crop Burning</text><text aria-label="Global Greenhouse Gas emissions by Sector: 2.2; legend-none: Forest Land" role="graphics-symbol" aria-roledescription="text mark" text-anchor="end" transform="translate(64.3588121286748,6.567105754338854) rotate(69.12) translate(0,2)" font-family="sans-serif" font-size="8px" fill="#00983A">Forest Land</text><text aria-label="Global Greenhouse Gas emissions by Sector: 1.4; legend-none: Cropland" role="graphics-symbol" aria-roledescription="text mark" text-anchor="end" transform="translate(75.13101128351447,3.1416838871369066) rotate(75.60000000000002) translate(0,2)" font-family="sans-serif" font-size="8px" fill="#00832E">Cropland</text><text aria-label="Global Greenhouse Gas emissions by Sector: 0.1; legend-none: Grassland" role="graphics-symbol" aria-roledescription="text mark" text-anchor="end" transform="translate(79.72127046434876,2.0777189378234198) rotate(78.30000000000001) translate(0,2)" font-family="sans-serif" font-size="8px" fill="#006E32">Grassland</text><text aria-label="Global Greenhouse Gas emissions by Sector: 1.9; legend-none: Landfills" role="graphics-symbol" aria-roledescription="text mark" text-anchor="end" transform="translate(85.90987680624171,0.9976342283442534) rotate(81.89999999999998) translate(0,2)" font-family="sans-serif" font-size="8px" fill="#C60020">Landfills</text><text aria-label="Global Greenhouse Gas emissions by Sector: 1.3; legend-none: Wastewater" role="graphics-symbol" aria-roledescription="text mark" text-anchor="end" transform="translate(95.91706480214897,0.08338656574599668) rotate(87.66000000000003) translate(0,2)" font-family="sans-serif" font-size="8px" fill="#971D37">Wastewater</text></g><g class="mark-group role-title"><g transform="translate(100,-84.68723455076528)"><path class="background" aria-hidden="true" d="M0,0h0v0h0Z" pointer-events="none"/><g><g class="mark-text role-title-text" role="graphics-symbol" aria-roledescription="title" aria-label="Title text 'Global Greenhouse Gas emissions by Sector'" pointer-events="none"><text text-anchor="middle" transform="translate(0,16)" font-family="sans-serif" font-size="20px" font-weight="bold" fill="#000" opacity="1">Global Greenhouse Gas emissions by Sector</text></g></g><path class="foreground" aria-hidden="true" d="" pointer-events="none" display="none"/></g></g></g><path class="foreground" aria-hidden="true" d="" display="none"/></g></g></g></svg>