<svg xmlns="http://www.w3.org/2000/svg" xmlns:xlink="http://www.w3.org/1999/xlink" width="930" height="350" viewBox="0 0 920 345" class="svg-container" style="width: 930px; height: 350px;">
  <g id="uuid-45c8c2c0-d6c8-4b14-a991-9bd1401daf97" data-name="Layer 4">
    <rect x="1.39" y="58.21" width="907.05" height="254.31" style="fill: #ccdfec; stroke-width: 0px;" class="bg-rect background bayes_figure_random chart" id="chart-1"></rect>
  </g>
  <g id="uuid-e630114a-beaf-451f-b898-ca14993bf893" data-name="Layer 3">
    <rect x="120.61" y="108.99" width="47.72" height="47.48" style="fill: #fdf4a1; stroke-width: 0px;" class="bg-rect background bayes_figure_random chart" id="chart-2"></rect>
    <rect x="680.61" y="108.99" width="47.72" height="93" style="fill: #fdf4a1; stroke-width: 0px;" class="bg-rect background bayes_figure_random chart" id="chart-3"></rect>
    <rect x="400.61" y="155.99" width="47.72" height="91.36" style="fill: #fdf4a1; stroke-width: 0px;" class="bg-rect background bayes_figure_random chart" id="chart-4"></rect>
    <rect x="495.61" y="200.99" width="47.72" height="47.48" style="fill: #fdf4a1; stroke-width: 0px;" class="bg-rect background bayes_figure_random chart" id="chart-5"></rect>
    <g>
      <rect x="173.76" y="12.66" width="108.78" height="25.28" style="fill: #fdf4a1; stroke-width: 0px;" class="legend-label legend chart scene" id="chart-6"></rect>
      <g>
        <path d="M192.6,29.06h-1.32v-4.6h-5.02v4.6h-1.31v-9.95h1.31v4.28h5.02v-4.28h1.32v9.95Z" style="fill: #000; stroke-width: 0px;" class="legend-label legend chart scene" id="chart-7"></path>
        <path d="M199.3,29.06c-.07-.15-.13-.41-.18-.78-.59.61-1.29.92-2.11.92-.73,0-1.33-.21-1.79-.62s-.7-.94-.7-1.57c0-.77.29-1.37.88-1.79s1.41-.64,2.47-.64h1.23v-.58c0-.44-.13-.79-.4-1.06-.26-.26-.65-.39-1.17-.39-.45,0-.83.11-1.13.34-.3.23-.46.5-.46.83h-1.27c0-.37.13-.73.39-1.07s.62-.62,1.07-.82.94-.3,1.48-.3c.85,0,1.52.21,2,.64.48.43.73,1.01.75,1.76v3.4c0,.68.09,1.22.26,1.62v.11h-1.33ZM197.2,28.1c.4,0,.77-.1,1.13-.31s.61-.47.77-.8v-1.52h-.99c-1.55,0-2.32.45-2.32,1.36,0,.4.13.71.4.93.26.22.6.33,1.02.33Z" style="fill: #000; stroke-width: 0px;" class="legend-label legend chart scene" id="chart-8"></path>
        <path d="M204.68,27.35l1.83-5.68h1.29l-2.65,7.4h-.96l-2.68-7.4h1.29l1.88,5.68Z" style="fill: #000; stroke-width: 0px;" class="legend-label legend chart scene" id="chart-9"></path>
        <path d="M212,29.2c-1,0-1.82-.33-2.45-.99s-.94-1.54-.94-2.64v-.23c0-.73.14-1.39.42-1.97s.67-1.03,1.18-1.35,1.05-.49,1.64-.49c.96,0,1.71.32,2.24.95s.8,1.54.8,2.72v.53h-5.01c.02.73.23,1.32.64,1.77s.93.67,1.56.67c.45,0,.82-.09,1.13-.27.31-.18.58-.42.81-.72l.77.6c-.62.95-1.55,1.43-2.79,1.43ZM211.85,22.57c-.51,0-.94.19-1.29.56-.35.37-.56.89-.64,1.56h3.71v-.1c-.04-.64-.21-1.14-.52-1.49-.31-.35-.73-.53-1.26-.53Z" style="fill: #000; stroke-width: 0px;" class="legend-label legend chart scene" id="chart-10"></path>
        <path d="M220.02,29.06v-9.95h2.81c.87,0,1.63.19,2.3.57.67.38,1.18.93,1.54,1.63s.55,1.52.55,2.43v.64c0,.94-.18,1.76-.54,2.47s-.88,1.25-1.55,1.63-1.46.57-2.35.58h-2.75ZM221.33,20.18v7.81h1.38c1.01,0,1.8-.31,2.36-.94.56-.63.84-1.53.84-2.69v-.58c0-1.13-.27-2.01-.8-2.64-.53-.63-1.28-.95-2.26-.95h-1.53Z" style="fill: #000; stroke-width: 0px;" class="legend-label legend chart scene" id="chart-11"></path>
        <path d="M229,19.7c0-.21.06-.38.19-.52s.31-.21.56-.21.43.07.56.21c.13.14.19.31.19.52s-.06.38-.19.51c-.13.14-.31.21-.56.21s-.43-.07-.56-.21-.19-.31-.19-.51ZM230.37,29.06h-1.26v-7.4h1.26v7.4Z" style="fill: #000; stroke-width: 0px;" class="legend-label legend chart scene" id="chart-12"></path>
        <path d="M236.7,27.1c0-.34-.13-.61-.39-.8s-.71-.35-1.35-.49-1.15-.3-1.52-.49-.65-.42-.83-.68-.27-.58-.27-.94c0-.61.26-1.12.77-1.54s1.17-.63,1.96-.63c.84,0,1.52.22,2.04.65s.78.99.78,1.66h-1.27c0-.35-.15-.65-.44-.9s-.66-.38-1.11-.38-.82.1-1.08.3-.39.46-.39.79c0,.31.12.54.36.69.24.15.68.3,1.31.44s1.14.31,1.53.51c.39.2.68.43.87.71s.28.61.28,1.01c0,.66-.26,1.19-.79,1.59-.53.4-1.21.6-2.06.6-.59,0-1.12-.1-1.57-.31-.46-.21-.81-.5-1.07-.88s-.39-.78-.39-1.22h1.26c.02.42.19.76.51,1.01s.73.37,1.25.37c.48,0,.86-.1,1.15-.29s.43-.45.43-.78Z" style="fill: #000; stroke-width: 0px;" class="legend-label legend chart scene" id="chart-13"></path>
        <path d="M242.68,29.2c-1,0-1.82-.33-2.45-.99s-.94-1.54-.94-2.64v-.23c0-.73.14-1.39.42-1.97s.67-1.03,1.18-1.35,1.05-.49,1.64-.49c.96,0,1.71.32,2.24.95s.8,1.54.8,2.72v.53h-5.01c.02.73.23,1.32.64,1.77s.93.67,1.56.67c.45,0,.82-.09,1.13-.27.31-.18.58-.42.81-.72l.77.6c-.62.95-1.55,1.43-2.79,1.43ZM242.53,22.57c-.51,0-.94.19-1.29.56-.35.37-.56.89-.64,1.56h3.71v-.1c-.04-.64-.21-1.14-.52-1.49-.31-.35-.73-.53-1.26-.53Z" style="fill: #000; stroke-width: 0px;" class="legend-label legend chart scene" id="chart-14"></path>
        <path d="M251.6,29.06c-.07-.15-.13-.41-.18-.78-.59.61-1.29.92-2.11.92-.73,0-1.33-.21-1.79-.62s-.7-.94-.7-1.57c0-.77.29-1.37.88-1.79s1.41-.64,2.47-.64h1.23v-.58c0-.44-.13-.79-.4-1.06-.26-.26-.65-.39-1.17-.39-.45,0-.83.11-1.13.34-.31.23-.46.5-.46.83h-1.27c0-.37.13-.73.39-1.07s.62-.62,1.07-.82.94-.3,1.48-.3c.85,0,1.52.21,2,.64.48.43.73,1.01.75,1.76v3.4c0,.68.09,1.22.26,1.62v.11h-1.33ZM249.5,28.1c.4,0,.77-.1,1.13-.31s.61-.47.77-.8v-1.52h-.99c-1.55,0-2.32.45-2.32,1.36,0,.4.13.71.4.93.26.22.6.33,1.02.33Z" style="fill: #000; stroke-width: 0px;" class="legend-label legend chart scene" id="chart-15"></path>
        <path d="M258.95,27.1c0-.34-.13-.61-.39-.8s-.71-.35-1.35-.49-1.15-.3-1.52-.49-.65-.42-.83-.68-.27-.58-.27-.94c0-.61.26-1.12.77-1.54s1.17-.63,1.97-.63c.84,0,1.52.22,2.04.65s.78.99.78,1.66h-1.27c0-.35-.15-.65-.44-.9s-.66-.38-1.11-.38-.82.1-1.08.3-.39.46-.39.79c0,.31.12.54.36.69.24.15.68.3,1.31.44s1.14.31,1.54.51c.39.2.68.43.87.71s.28.61.28,1.01c0,.66-.26,1.19-.79,1.59-.53.4-1.21.6-2.06.6-.59,0-1.12-.1-1.57-.31-.46-.21-.81-.5-1.07-.88s-.39-.78-.39-1.22h1.27c.02.42.19.76.51,1.01s.74.37,1.25.37c.48,0,.86-.1,1.15-.29s.43-.45.43-.78Z" style="fill: #000; stroke-width: 0px;" class="legend-label legend chart scene" id="chart-16"></path>
        <path d="M264.93,29.2c-1,0-1.82-.33-2.45-.99s-.94-1.54-.94-2.64v-.23c0-.73.14-1.39.42-1.97s.67-1.03,1.18-1.35,1.05-.49,1.64-.49c.96,0,1.71.32,2.24.95s.8,1.54.8,2.72v.53h-5.01c.02.73.23,1.32.64,1.77s.93.67,1.55.67c.45,0,.83-.09,1.13-.27.31-.18.58-.42.81-.72l.77.6c-.62.95-1.55,1.43-2.79,1.43ZM264.78,22.57c-.51,0-.94.19-1.29.56-.35.37-.56.89-.64,1.56h3.71v-.1c-.04-.64-.21-1.14-.52-1.49-.31-.35-.73-.53-1.26-.53Z" style="fill: #000; stroke-width: 0px;" class="legend-label legend chart scene" id="chart-17"></path>
      </g>
    </g>
    <g>
      <rect x="297.84" y="12.66" width="152.48" height="25.28" style="fill: #ccdfec; stroke-width: 0px;" class="legend-label legend chart scene" id="chart-18"></rect>
      <g>
        <path d="M307.37,29.06v-9.95h2.81c.87,0,1.63.19,2.3.57.67.38,1.18.93,1.54,1.63s.55,1.52.55,2.43v.64c0,.94-.18,1.76-.54,2.47s-.88,1.25-1.55,1.63c-.67.38-1.46.57-2.35.58h-2.75ZM308.68,20.18v7.81h1.38c1.01,0,1.8-.31,2.36-.94.56-.63.84-1.53.84-2.69v-.58c0-1.13-.27-2.01-.8-2.64-.53-.63-1.28-.95-2.26-.95h-1.53Z" style="fill: #000; stroke-width: 0px;" class="legend-label legend chart scene" id="chart-19"></path>
        <path d="M316.02,25.3c0-.72.14-1.38.43-1.96.29-.58.68-1.03,1.19-1.34.51-.31,1.09-.47,1.74-.47,1.01,0,1.82.35,2.44,1.05s.93,1.62.93,2.78v.09c0,.72-.14,1.37-.41,1.94-.28.57-.67,1.02-1.18,1.34s-1.1.48-1.77.48c-1,0-1.82-.35-2.44-1.05s-.93-1.62-.93-2.77v-.09ZM317.29,25.45c0,.82.19,1.48.57,1.98.38.5.89.75,1.53.75s1.15-.25,1.53-.76c.38-.5.57-1.21.57-2.12,0-.81-.19-1.47-.58-1.97-.38-.5-.9-.76-1.53-.76s-1.13.25-1.51.75-.57,1.21-.57,2.13Z" style="fill: #000; stroke-width: 0px;" class="legend-label legend chart scene" id="chart-20"></path>
        <path d="M335.65,29.06h-1.32l-5.01-7.67v7.67h-1.32v-9.95h1.32l5.02,7.7v-7.7h1.31v9.95Z" style="fill: #000; stroke-width: 0px;" class="legend-label legend chart scene" id="chart-21"></path>
        <path d="M337.45,25.3c0-.72.14-1.38.43-1.96.29-.58.68-1.03,1.19-1.34.51-.31,1.09-.47,1.74-.47,1.01,0,1.82.35,2.44,1.05s.93,1.62.93,2.78v.09c0,.72-.14,1.37-.41,1.94-.28.57-.67,1.02-1.18,1.34s-1.1.48-1.77.48c-1,0-1.82-.35-2.44-1.05s-.93-1.62-.93-2.77v-.09ZM338.72,25.45c0,.82.19,1.48.57,1.98.38.5.89.75,1.53.75s1.15-.25,1.53-.76c.38-.5.57-1.21.57-2.12,0-.81-.19-1.47-.58-1.97-.38-.5-.9-.76-1.53-.76s-1.13.25-1.51.75-.57,1.21-.57,2.13Z" style="fill: #000; stroke-width: 0px;" class="legend-label legend chart scene" id="chart-22"></path>
        <path d="M347.48,19.88v1.79h1.38v.98h-1.38v4.59c0,.3.06.52.18.67.12.15.33.22.63.22.15,0,.35-.03.6-.08v1.02c-.33.09-.66.14-.97.14-.57,0-.99-.17-1.28-.51s-.43-.83-.43-1.46v-4.59h-1.35v-.98h1.35v-1.79h1.26Z" style="fill: #000; stroke-width: 0px;" class="legend-label legend chart scene" id="chart-23"></path>
        <path d="M361.65,29.06h-1.32v-4.6h-5.02v4.6h-1.31v-9.95h1.31v4.28h5.02v-4.28h1.32v9.95Z" style="fill: #000; stroke-width: 0px;" class="legend-label legend chart scene" id="chart-24"></path>
        <path d="M368.35,29.06c-.07-.15-.13-.41-.18-.78-.59.61-1.29.92-2.11.92-.73,0-1.33-.21-1.79-.62-.47-.41-.7-.94-.7-1.57,0-.77.29-1.37.88-1.79.59-.43,1.41-.64,2.47-.64h1.23v-.58c0-.44-.13-.79-.4-1.06-.26-.26-.65-.39-1.17-.39-.45,0-.83.11-1.13.34-.31.23-.46.5-.46.83h-1.27c0-.37.13-.73.39-1.07.26-.34.62-.62,1.07-.82.45-.2.94-.3,1.48-.3.85,0,1.52.21,2,.64.48.43.73,1.01.75,1.76v3.4c0,.68.09,1.22.26,1.62v.11h-1.33ZM366.26,28.1c.4,0,.77-.1,1.13-.31s.61-.47.77-.8v-1.52h-.99c-1.55,0-2.32.45-2.32,1.36,0,.4.13.71.4.93.26.22.6.33,1.02.33Z" style="fill: #000; stroke-width: 0px;" class="legend-label legend chart scene" id="chart-25"></path>
        <path d="M373.74,27.35l1.83-5.68h1.29l-2.65,7.4h-.96l-2.68-7.4h1.29l1.88,5.68Z" style="fill: #000; stroke-width: 0px;" class="legend-label legend chart scene" id="chart-26"></path>
        <path d="M381.06,29.2c-1,0-1.82-.33-2.45-.99s-.94-1.54-.94-2.64v-.23c0-.73.14-1.39.42-1.97s.67-1.03,1.18-1.35c.5-.33,1.05-.49,1.64-.49.96,0,1.71.32,2.24.95s.8,1.54.8,2.72v.53h-5.01c.02.73.23,1.32.64,1.77.41.45.93.67,1.56.67.45,0,.82-.09,1.13-.27.31-.18.58-.42.81-.72l.77.6c-.62.95-1.55,1.43-2.79,1.43ZM380.9,22.57c-.51,0-.94.19-1.29.56-.35.37-.56.89-.64,1.56h3.71v-.1c-.04-.64-.21-1.14-.52-1.49-.31-.35-.73-.53-1.26-.53Z" style="fill: #000; stroke-width: 0px;" class="legend-label legend chart scene" id="chart-27"></path>
        <path d="M389.07,29.06v-9.95h2.81c.87,0,1.63.19,2.3.57.67.38,1.18.93,1.54,1.63s.55,1.52.55,2.43v.64c0,.94-.18,1.76-.54,2.47s-.88,1.25-1.55,1.63c-.67.38-1.46.57-2.35.58h-2.75ZM390.39,20.18v7.81h1.38c1.01,0,1.8-.31,2.36-.94.56-.63.84-1.53.84-2.69v-.58c0-1.13-.27-2.01-.8-2.64-.53-.63-1.28-.95-2.26-.95h-1.53Z" style="fill: #000; stroke-width: 0px;" class="legend-label legend chart scene" id="chart-28"></path>
        <path d="M398.06,19.7c0-.21.06-.38.19-.52.13-.14.31-.21.56-.21s.43.07.56.21c.13.14.19.31.19.52s-.06.38-.19.51c-.13.14-.31.21-.56.21s-.43-.07-.56-.21c-.12-.14-.19-.31-.19-.51ZM399.43,29.06h-1.26v-7.4h1.26v7.4Z" style="fill: #000; stroke-width: 0px;" class="legend-label legend chart scene" id="chart-29"></path>
        <path d="M405.76,27.1c0-.34-.13-.61-.39-.8-.26-.19-.71-.35-1.35-.49-.64-.14-1.15-.3-1.52-.49s-.65-.42-.83-.68c-.18-.26-.27-.58-.27-.94,0-.61.26-1.12.77-1.54s1.17-.63,1.97-.63c.84,0,1.52.22,2.04.65.52.43.78.99.78,1.66h-1.27c0-.35-.15-.65-.44-.9s-.66-.38-1.11-.38-.82.1-1.08.3-.39.46-.39.79c0,.31.12.54.36.69.24.15.68.3,1.31.44.63.14,1.14.31,1.54.51.39.2.68.43.87.71.19.28.28.61.28,1.01,0,.66-.26,1.19-.79,1.59-.53.4-1.21.6-2.06.6-.59,0-1.12-.1-1.57-.31-.46-.21-.81-.5-1.07-.88-.26-.38-.39-.78-.39-1.22h1.26c.02.42.19.76.51,1.01.32.25.74.37,1.25.37.48,0,.86-.1,1.15-.29.29-.19.43-.45.43-.78Z" style="fill: #000; stroke-width: 0px;" class="legend-label legend chart scene" id="chart-30"></path>
        <path d="M411.74,29.2c-1,0-1.82-.33-2.45-.99s-.94-1.54-.94-2.64v-.23c0-.73.14-1.39.42-1.97s.67-1.03,1.18-1.35c.5-.33,1.05-.49,1.64-.49.96,0,1.71.32,2.24.95s.8,1.54.8,2.72v.53h-5.01c.02.73.23,1.32.64,1.77.41.45.93.67,1.56.67.45,0,.82-.09,1.13-.27.31-.18.58-.42.81-.72l.77.6c-.62.95-1.55,1.43-2.79,1.43ZM411.58,22.57c-.51,0-.94.19-1.29.56-.35.37-.56.89-.64,1.56h3.71v-.1c-.04-.64-.21-1.14-.52-1.49-.31-.35-.73-.53-1.26-.53Z" style="fill: #000; stroke-width: 0px;" class="legend-label legend chart scene" id="chart-31"></path>
        <path d="M420.66,29.06c-.07-.15-.13-.41-.18-.78-.59.61-1.29.92-2.11.92-.73,0-1.33-.21-1.79-.62-.47-.41-.7-.94-.7-1.57,0-.77.29-1.37.88-1.79.59-.43,1.41-.64,2.47-.64h1.23v-.58c0-.44-.13-.79-.4-1.06-.26-.26-.65-.39-1.17-.39-.45,0-.83.11-1.13.34-.31.23-.46.5-.46.83h-1.27c0-.37.13-.73.39-1.07.26-.34.62-.62,1.07-.82.45-.2.94-.3,1.48-.3.85,0,1.52.21,2,.64.48.43.73,1.01.75,1.76v3.4c0,.68.09,1.22.26,1.62v.11h-1.33ZM418.56,28.1c.4,0,.77-.1,1.13-.31s.61-.47.77-.8v-1.52h-.99c-1.55,0-2.32.45-2.32,1.36,0,.4.13.71.4.93.26.22.6.33,1.02.33Z" style="fill: #000; stroke-width: 0px;" class="legend-label legend chart scene" id="chart-32"></path>
        <path d="M428.01,27.1c0-.34-.13-.61-.39-.8-.26-.19-.71-.35-1.35-.49-.64-.14-1.15-.3-1.52-.49s-.65-.42-.83-.68c-.18-.26-.27-.58-.27-.94,0-.61.26-1.12.77-1.54s1.17-.63,1.97-.63c.84,0,1.52.22,2.04.65.52.43.78.99.78,1.66h-1.27c0-.35-.15-.65-.44-.9s-.66-.38-1.11-.38-.82.1-1.08.3-.39.46-.39.79c0,.31.12.54.36.69.24.15.68.3,1.31.44.63.14,1.14.31,1.54.51.39.2.68.43.87.71.19.28.28.61.28,1.01,0,.66-.26,1.19-.79,1.59-.53.4-1.21.6-2.06.6-.59,0-1.12-.1-1.57-.31-.46-.21-.81-.5-1.07-.88-.26-.38-.39-.78-.39-1.22h1.26c.02.42.19.76.51,1.01.32.25.74.37,1.25.37.48,0,.86-.1,1.15-.29.29-.19.43-.45.43-.78Z" style="fill: #000; stroke-width: 0px;" class="legend-label legend chart scene" id="chart-33"></path>
        <path d="M433.99,29.2c-1,0-1.82-.33-2.45-.99s-.94-1.54-.94-2.64v-.23c0-.73.14-1.39.42-1.97s.67-1.03,1.18-1.35c.5-.33,1.05-.49,1.64-.49.96,0,1.71.32,2.24.95s.8,1.54.8,2.72v.53h-5.01c.02.73.23,1.32.64,1.77.41.45.93.67,1.56.67.45,0,.82-.09,1.13-.27.31-.18.58-.42.81-.72l.77.6c-.62.95-1.55,1.43-2.79,1.43ZM433.84,22.57c-.51,0-.94.19-1.29.56-.35.37-.56.89-.64,1.56h3.71v-.1c-.04-.64-.21-1.14-.52-1.49-.31-.35-.73-.53-1.26-.53Z" style="fill: #000; stroke-width: 0px;" class="legend-label legend chart scene" id="chart-34"></path>
      </g>
    </g>
    <g>
      <rect x="464.06" y="12.66" width="117.58" height="25.28" style="fill: #e48b3d; opacity: .69; stroke-width: 0px;" class="legend-label legend chart scene" id="chart-35"></rect>
      <g>
        <path d="M481.34,20.18h-3.2v8.88h-1.31v-8.88h-3.19v-1.07h7.7v1.07Z" style="fill: #000; stroke-width: 0px;" class="legend-label legend chart scene" id="chart-36"></path>
        <path d="M485.01,29.2c-1,0-1.82-.33-2.45-.99s-.94-1.54-.94-2.64v-.23c0-.73.14-1.39.42-1.97s.67-1.03,1.18-1.35c.5-.33,1.05-.49,1.64-.49.96,0,1.71.32,2.24.95s.8,1.54.8,2.72v.53h-5.01c.02.73.23,1.32.64,1.77.41.45.93.67,1.56.67.45,0,.82-.09,1.13-.27.31-.18.58-.42.81-.72l.77.6c-.62.95-1.55,1.43-2.79,1.43ZM484.85,22.57c-.51,0-.94.19-1.29.56-.35.37-.56.89-.64,1.56h3.71v-.1c-.04-.64-.21-1.14-.52-1.49-.31-.35-.73-.53-1.26-.53Z" style="fill: #000; stroke-width: 0px;" class="legend-label legend chart scene" id="chart-37"></path>
        <path d="M493.66,27.1c0-.34-.13-.61-.39-.8-.26-.19-.71-.35-1.35-.49-.64-.14-1.15-.3-1.52-.49s-.65-.42-.83-.68c-.18-.26-.27-.58-.27-.94,0-.61.26-1.12.77-1.54s1.17-.63,1.97-.63c.84,0,1.52.22,2.04.65.52.43.78.99.78,1.66h-1.27c0-.35-.15-.65-.44-.9s-.66-.38-1.11-.38-.82.1-1.08.3-.39.46-.39.79c0,.31.12.54.36.69.24.15.68.3,1.31.44.63.14,1.14.31,1.54.51.39.2.68.43.87.71.19.28.28.61.28,1.01,0,.66-.26,1.19-.79,1.59-.53.4-1.21.6-2.06.6-.59,0-1.12-.1-1.57-.31-.46-.21-.81-.5-1.07-.88-.26-.38-.39-.78-.39-1.22h1.26c.02.42.19.76.51,1.01.32.25.74.37,1.25.37.48,0,.86-.1,1.15-.29.29-.19.43-.45.43-.78Z" style="fill: #000; stroke-width: 0px;" class="legend-label legend chart scene" id="chart-38"></path>
        <path d="M498.29,19.88v1.79h1.38v.98h-1.38v4.59c0,.3.06.52.18.67.12.15.33.22.63.22.15,0,.35-.03.6-.08v1.02c-.33.09-.66.14-.97.14-.57,0-.99-.17-1.28-.51s-.43-.83-.43-1.46v-4.59h-1.35v-.98h1.35v-1.79h1.26Z" style="fill: #000; stroke-width: 0px;" class="legend-label legend chart scene" id="chart-39"></path>
        <path d="M504.22,29.2c-1,0-1.82-.33-2.45-.99s-.94-1.54-.94-2.64v-.23c0-.73.14-1.39.42-1.97s.67-1.03,1.18-1.35c.5-.33,1.05-.49,1.64-.49.96,0,1.71.32,2.24.95s.8,1.54.8,2.72v.53h-5.01c.02.73.23,1.32.64,1.77.41.45.93.67,1.56.67.45,0,.82-.09,1.13-.27.31-.18.58-.42.81-.72l.77.6c-.62.95-1.55,1.43-2.79,1.43ZM504.06,22.57c-.51,0-.94.19-1.29.56-.35.37-.56.89-.64,1.56h3.71v-.1c-.04-.64-.21-1.14-.52-1.49-.31-.35-.73-.53-1.26-.53Z" style="fill: #000; stroke-width: 0px;" class="legend-label legend chart scene" id="chart-40"></path>
        <path d="M508.26,25.3c0-1.13.27-2.05.81-2.74.54-.69,1.24-1.04,2.11-1.04s1.55.3,2.06.89v-3.86h1.26v10.5h-1.16l-.06-.79c-.51.62-1.21.93-2.11.93s-1.56-.35-2.1-1.05-.81-1.62-.81-2.75v-.1ZM509.52,25.45c0,.84.17,1.49.52,1.97.35.47.82.71,1.44.71.8,0,1.39-.36,1.76-1.08v-3.4c-.38-.7-.96-1.05-1.74-1.05-.62,0-1.1.24-1.45.72-.35.48-.52,1.19-.52,2.13Z" style="fill: #000; stroke-width: 0px;" class="legend-label legend chart scene" id="chart-41"></path>
        <path d="M521.44,25.17v3.9h-1.31v-9.95h3.67c1.09,0,1.94.28,2.56.83.62.56.93,1.29.93,2.21,0,.97-.3,1.71-.91,2.23-.6.52-1.47.78-2.59.78h-2.34ZM521.44,24.09h2.36c.7,0,1.24-.17,1.61-.5.37-.33.56-.81.56-1.43,0-.59-.19-1.07-.56-1.42-.37-.36-.89-.54-1.54-.55h-2.43v3.91Z" style="fill: #000; stroke-width: 0px;" class="legend-label legend chart scene" id="chart-42"></path>
        <path d="M528.33,25.3c0-.72.14-1.38.43-1.96.29-.58.68-1.03,1.19-1.34.51-.31,1.09-.47,1.74-.47,1.01,0,1.82.35,2.44,1.05s.93,1.62.93,2.78v.09c0,.72-.14,1.37-.41,1.94-.28.57-.67,1.02-1.18,1.34s-1.1.48-1.77.48c-1,0-1.82-.35-2.44-1.05s-.93-1.62-.93-2.77v-.09ZM529.6,25.45c0,.82.19,1.48.57,1.98.38.5.89.75,1.53.75s1.15-.25,1.53-.76c.38-.5.57-1.21.57-2.12,0-.81-.19-1.47-.58-1.97-.38-.5-.9-.76-1.53-.76s-1.13.25-1.51.75-.57,1.21-.57,2.13Z" style="fill: #000; stroke-width: 0px;" class="legend-label legend chart scene" id="chart-43"></path>
        <path d="M540.96,27.1c0-.34-.13-.61-.39-.8-.26-.19-.71-.35-1.35-.49-.64-.14-1.15-.3-1.52-.49s-.65-.42-.83-.68c-.18-.26-.27-.58-.27-.94,0-.61.26-1.12.77-1.54s1.17-.63,1.97-.63c.84,0,1.52.22,2.04.65.52.43.78.99.78,1.66h-1.27c0-.35-.15-.65-.44-.9s-.66-.38-1.11-.38-.82.1-1.08.3-.39.46-.39.79c0,.31.12.54.36.69.24.15.68.3,1.31.44.63.14,1.14.31,1.54.51.39.2.68.43.87.71.19.28.28.61.28,1.01,0,.66-.26,1.19-.79,1.59-.53.4-1.21.6-2.06.6-.59,0-1.12-.1-1.57-.31-.46-.21-.81-.5-1.07-.88-.26-.38-.39-.78-.39-1.22h1.26c.02.42.19.76.51,1.01.32.25.74.37,1.25.37.48,0,.86-.1,1.15-.29.29-.19.43-.45.43-.78Z" style="fill: #000; stroke-width: 0px;" class="legend-label legend chart scene" id="chart-44"></path>
        <path d="M543.88,19.7c0-.21.06-.38.19-.52.13-.14.31-.21.56-.21s.43.07.56.21c.13.14.19.31.19.52s-.06.38-.19.51c-.13.14-.31.21-.56.21s-.43-.07-.56-.21c-.12-.14-.19-.31-.19-.51ZM545.24,29.06h-1.26v-7.4h1.26v7.4Z" style="fill: #000; stroke-width: 0px;" class="legend-label legend chart scene" id="chart-45"></path>
        <path d="M548.98,19.88v1.79h1.38v.98h-1.38v4.59c0,.3.06.52.18.67.12.15.33.22.63.22.15,0,.35-.03.6-.08v1.02c-.33.09-.66.14-.97.14-.57,0-.99-.17-1.28-.51s-.43-.83-.43-1.46v-4.59h-1.35v-.98h1.35v-1.79h1.26Z" style="fill: #000; stroke-width: 0px;" class="legend-label legend chart scene" id="chart-46"></path>
        <path d="M551.85,19.7c0-.21.06-.38.19-.52.13-.14.31-.21.56-.21s.43.07.56.21c.13.14.19.31.19.52s-.06.38-.19.51c-.13.14-.31.21-.56.21s-.43-.07-.56-.21c-.12-.14-.19-.31-.19-.51ZM553.22,29.06h-1.26v-7.4h1.26v7.4Z" style="fill: #000; stroke-width: 0px;" class="legend-label legend chart scene" id="chart-47"></path>
        <path d="M557.68,27.35l1.83-5.68h1.29l-2.65,7.4h-.96l-2.68-7.4h1.29l1.88,5.68Z" style="fill: #000; stroke-width: 0px;" class="legend-label legend chart scene" id="chart-48"></path>
        <path d="M565,29.2c-1,0-1.82-.33-2.45-.99s-.94-1.54-.94-2.64v-.23c0-.73.14-1.39.42-1.97s.67-1.03,1.18-1.35c.5-.33,1.05-.49,1.64-.49.96,0,1.71.32,2.24.95s.8,1.54.8,2.72v.53h-5.01c.02.73.23,1.32.64,1.77.41.45.93.67,1.56.67.45,0,.82-.09,1.13-.27.31-.18.58-.42.81-.72l.77.6c-.62.95-1.55,1.43-2.79,1.43ZM564.84,22.57c-.51,0-.94.19-1.29.56-.35.37-.56.89-.64,1.56h3.71v-.1c-.04-.64-.21-1.14-.52-1.49-.31-.35-.73-.53-1.26-.53Z" style="fill: #000; stroke-width: 0px;" class="legend-label legend chart scene" id="chart-49"></path>
      </g>
    </g>
    <g>
      <rect x="597.29" y="12.66" width="131.83" height="25.28" style="fill: #909194; opacity: .66; stroke-width: 0px;" class="legend-label legend chart scene" id="chart-50"></rect>
      <g>
        <path d="M617.5,20.18h-3.2v8.88h-1.31v-8.88h-3.19v-1.07h7.7v1.07Z" style="fill: #000; stroke-width: 0px;" class="legend-label legend chart scene" id="chart-51"></path>
        <path d="M621.17,29.2c-1,0-1.82-.33-2.45-.99s-.94-1.54-.94-2.64v-.23c0-.73.14-1.39.42-1.97s.67-1.03,1.18-1.35c.5-.33,1.05-.49,1.64-.49.96,0,1.71.32,2.24.95s.8,1.54.8,2.72v.53h-5.01c.02.73.23,1.32.64,1.77.41.45.93.67,1.56.67.45,0,.82-.09,1.13-.27.31-.18.58-.42.81-.72l.77.6c-.62.95-1.55,1.43-2.79,1.43ZM621.01,22.57c-.51,0-.94.19-1.29.56-.35.37-.56.89-.64,1.56h3.71v-.1c-.04-.64-.21-1.14-.52-1.49-.31-.35-.73-.53-1.26-.53Z" style="fill: #000; stroke-width: 0px;" class="legend-label legend chart scene" id="chart-52"></path>
        <path d="M629.82,27.1c0-.34-.13-.61-.39-.8-.26-.19-.71-.35-1.35-.49-.64-.14-1.15-.3-1.52-.49s-.65-.42-.83-.68c-.18-.26-.27-.58-.27-.94,0-.61.26-1.12.77-1.54s1.17-.63,1.97-.63c.84,0,1.52.22,2.04.65.52.43.78.99.78,1.66h-1.27c0-.35-.15-.65-.44-.9s-.66-.38-1.11-.38-.82.1-1.08.3-.39.46-.39.79c0,.31.12.54.36.69.24.15.68.3,1.31.44.63.14,1.14.31,1.54.51.39.2.68.43.87.71.19.28.28.61.28,1.01,0,.66-.26,1.19-.79,1.59-.53.4-1.21.6-2.06.6-.59,0-1.12-.1-1.57-.31-.46-.21-.81-.5-1.07-.88-.26-.38-.39-.78-.39-1.22h1.26c.02.42.19.76.51,1.01.32.25.74.37,1.25.37.48,0,.86-.1,1.15-.29.29-.19.43-.45.43-.78Z" style="fill: #000; stroke-width: 0px;" class="legend-label legend chart scene" id="chart-53"></path>
        <path d="M634.45,19.88v1.79h1.38v.98h-1.38v4.59c0,.3.06.52.18.67.12.15.33.22.63.22.15,0,.35-.03.6-.08v1.02c-.33.09-.66.14-.97.14-.57,0-.99-.17-1.28-.51s-.43-.83-.43-1.46v-4.59h-1.35v-.98h1.35v-1.79h1.26Z" style="fill: #000; stroke-width: 0px;" class="legend-label legend chart scene" id="chart-54"></path>
        <path d="M640.38,29.2c-1,0-1.82-.33-2.45-.99s-.94-1.54-.94-2.64v-.23c0-.73.14-1.39.42-1.97s.67-1.03,1.18-1.35c.5-.33,1.05-.49,1.64-.49.96,0,1.71.32,2.24.95s.8,1.54.8,2.72v.53h-5.01c.02.73.23,1.32.64,1.77.41.45.93.67,1.56.67.45,0,.82-.09,1.13-.27.31-.18.58-.42.81-.72l.77.6c-.62.95-1.55,1.43-2.79,1.43ZM640.22,22.57c-.51,0-.94.19-1.29.56-.35.37-.56.89-.64,1.56h3.71v-.1c-.04-.64-.21-1.14-.52-1.49-.31-.35-.73-.53-1.26-.53Z" style="fill: #000; stroke-width: 0px;" class="legend-label legend chart scene" id="chart-55"></path>
        <path d="M644.42,25.3c0-1.13.27-2.05.81-2.74.54-.69,1.24-1.04,2.11-1.04s1.55.3,2.06.89v-3.86h1.26v10.5h-1.16l-.06-.79c-.51.62-1.21.93-2.11.93s-1.56-.35-2.1-1.05-.81-1.62-.81-2.75v-.1ZM645.68,25.45c0,.84.17,1.49.52,1.97.35.47.82.71,1.44.71.8,0,1.39-.36,1.76-1.08v-3.4c-.38-.7-.96-1.05-1.74-1.05-.62,0-1.1.24-1.45.72-.35.48-.52,1.19-.52,2.13Z" style="fill: #000; stroke-width: 0px;" class="legend-label legend chart scene" id="chart-56"></path>
        <path d="M663.93,29.06h-1.32l-5.01-7.67v7.67h-1.32v-9.95h1.32l5.02,7.7v-7.7h1.31v9.95Z" style="fill: #000; stroke-width: 0px;" class="legend-label legend chart scene" id="chart-57"></path>
        <path d="M669.13,29.2c-1,0-1.82-.33-2.45-.99s-.94-1.54-.94-2.64v-.23c0-.73.14-1.39.42-1.97s.67-1.03,1.18-1.35c.5-.33,1.05-.49,1.64-.49.96,0,1.71.32,2.24.95s.8,1.54.8,2.72v.53h-5.01c.02.73.23,1.32.64,1.77.41.45.93.67,1.56.67.45,0,.82-.09,1.13-.27.31-.18.58-.42.81-.72l.77.6c-.62.95-1.55,1.43-2.79,1.43ZM668.98,22.57c-.51,0-.94.19-1.29.56-.35.37-.56.89-.64,1.56h3.71v-.1c-.04-.64-.21-1.14-.52-1.49-.31-.35-.73-.53-1.26-.53Z" style="fill: #000; stroke-width: 0px;" class="legend-label legend chart scene" id="chart-58"></path>
        <path d="M673.18,25.3c0-1.15.27-2.07.8-2.75s1.24-1.02,2.12-1.02,1.61.32,2.11.96l.06-.82h1.16v7.22c0,.96-.28,1.71-.85,2.26s-1.33.83-2.29.83c-.53,0-1.06-.11-1.57-.34-.51-.23-.9-.54-1.17-.94l.66-.76c.54.67,1.21,1,1.99,1,.62,0,1.09-.17,1.44-.52.34-.35.52-.83.52-1.46v-.64c-.51.58-1.2.88-2.07.88s-1.57-.35-2.1-1.05c-.54-.7-.8-1.65-.8-2.85ZM674.45,25.45c0,.83.17,1.49.51,1.97s.82.71,1.44.71c.8,0,1.38-.36,1.76-1.09v-3.38c-.39-.71-.97-1.06-1.74-1.06-.62,0-1.1.24-1.44.72-.35.48-.52,1.19-.52,2.13Z" style="fill: #000; stroke-width: 0px;" class="legend-label legend chart scene" id="chart-59"></path>
        <path d="M685.9,29.06c-.07-.15-.13-.41-.18-.78-.59.61-1.29.92-2.11.92-.73,0-1.33-.21-1.79-.62-.47-.41-.7-.94-.7-1.57,0-.77.29-1.37.88-1.79.59-.43,1.41-.64,2.47-.64h1.23v-.58c0-.44-.13-.79-.4-1.06-.26-.26-.65-.39-1.17-.39-.45,0-.83.11-1.13.34-.31.23-.46.5-.46.83h-1.27c0-.37.13-.73.39-1.07.26-.34.62-.62,1.07-.82.45-.2.94-.3,1.48-.3.85,0,1.52.21,2,.64.48.43.73,1.01.75,1.76v3.4c0,.68.09,1.22.26,1.62v.11h-1.33ZM683.8,28.1c.4,0,.77-.1,1.13-.31s.61-.47.77-.8v-1.52h-.99c-1.55,0-2.32.45-2.32,1.36,0,.4.13.71.4.93.26.22.6.33,1.02.33Z" style="fill: #000; stroke-width: 0px;" class="legend-label legend chart scene" id="chart-60"></path>
        <path d="M690.67,19.88v1.79h1.38v.98h-1.38v4.59c0,.3.06.52.18.67.12.15.33.22.63.22.15,0,.35-.03.6-.08v1.02c-.33.09-.66.14-.97.14-.57,0-.99-.17-1.28-.51s-.43-.83-.43-1.46v-4.59h-1.35v-.98h1.35v-1.79h1.26Z" style="fill: #000; stroke-width: 0px;" class="legend-label legend chart scene" id="chart-61"></path>
        <path d="M693.53,19.7c0-.21.06-.38.19-.52.13-.14.31-.21.56-.21s.43.07.56.21c.13.14.19.31.19.52s-.06.38-.19.51c-.13.14-.31.21-.56.21s-.43-.07-.56-.21c-.12-.14-.19-.31-.19-.51ZM694.9,29.06h-1.26v-7.4h1.26v7.4Z" style="fill: #000; stroke-width: 0px;" class="legend-label legend chart scene" id="chart-62"></path>
        <path d="M699.36,27.35l1.83-5.68h1.29l-2.65,7.4h-.96l-2.68-7.4h1.29l1.88,5.68Z" style="fill: #000; stroke-width: 0px;" class="legend-label legend chart scene" id="chart-63"></path>
        <path d="M706.68,29.2c-1,0-1.82-.33-2.45-.99s-.94-1.54-.94-2.64v-.23c0-.73.14-1.39.42-1.97s.67-1.03,1.18-1.35c.5-.33,1.05-.49,1.64-.49.96,0,1.71.32,2.24.95s.8,1.54.8,2.72v.53h-5.01c.02.73.23,1.32.64,1.77.41.45.93.67,1.56.67.45,0,.82-.09,1.13-.27.31-.18.58-.42.81-.72l.77.6c-.62.95-1.55,1.43-2.79,1.43ZM706.53,22.57c-.51,0-.94.19-1.29.56-.35.37-.56.89-.64,1.56h3.71v-.1c-.04-.64-.21-1.14-.52-1.49-.31-.35-.73-.53-1.26-.53Z" style="fill: #000; stroke-width: 0px;" class="legend-label legend chart scene" id="chart-64"></path>
      </g>
    </g>
  </g>
  <g id="uuid-8a881d05-556e-46a7-93d9-5b27b38b3c62" data-name="Layer 1">
    <g>
      <circle cx="58.81" cy="70.66" r="4.6" style="fill: #909194; stroke-width: 0px;" class="point mark chart scene" id="chart-65"></circle>
      <path d="M63.5,77.09h-9.26c-.96,0-1.73.77-1.73,1.73v11.13c0,.96.77,1.73,1.73,1.73h.49v10.93c0,.77.62,1.39,1.39,1.39h5.44c.77,0,1.39-.62,1.39-1.39v-10.93h.55c.96,0,1.73-.77,1.73-1.73v-11.13c0-.96-.77-1.73-1.73-1.73Z" style="fill: #909194; stroke-width: 0px;" class="point mark chart scene" id="chart-66"></path>
    </g>
    <g>
      <circle cx="102.24" cy="70.66" r="4.6" style="fill: #909194; stroke-width: 0px;" class="point mark chart scene" id="chart-67"></circle>
      <path d="M106.94,77.09h-9.26c-.96,0-1.73.77-1.73,1.73v11.13c0,.96.77,1.73,1.73,1.73h.49v10.93c0,.77.62,1.39,1.39,1.39h5.44c.77,0,1.39-.62,1.39-1.39v-10.93h.55c.96,0,1.73-.77,1.73-1.73v-11.13c0-.96-.77-1.73-1.73-1.73Z" style="fill: #909194; stroke-width: 0px;" class="point mark chart scene" id="chart-68"></path>
    </g>
    <g>
      <circle cx="143.66" cy="70.66" r="4.6" style="fill: #909194; stroke-width: 0px;" class="point mark chart scene" id="chart-69"></circle>
      <path d="M148.35,77.09h-9.26c-.96,0-1.73.77-1.73,1.73v11.13c0,.96.77,1.73,1.73,1.73h.49v10.93c0,.77.62,1.39,1.39,1.39h5.44c.77,0,1.39-.62,1.39-1.39v-10.93h.55c.96,0,1.73-.77,1.73-1.73v-11.13c0-.96-.77-1.73-1.73-1.73Z" style="fill: #909194; stroke-width: 0px;" class="point mark chart scene" id="chart-70"></path>
    </g>
    <g>
      <circle cx="190.66" cy="70.66" r="4.6" style="fill: #909194; stroke-width: 0px;" class="point mark chart scene" id="chart-71"></circle>
      <path d="M195.35,77.09h-9.26c-.96,0-1.73.77-1.73,1.73v11.13c0,.96.77,1.73,1.73,1.73h.49v10.93c0,.77.62,1.39,1.39,1.39h5.44c.77,0,1.39-.62,1.39-1.39v-10.93h.55c.96,0,1.73-.77,1.73-1.73v-11.13c0-.96-.77-1.73-1.73-1.73Z" style="fill: #909194; stroke-width: 0px;" class="point mark chart scene" id="chart-72"></path>
    </g>
    <g>
      <circle cx="238.66" cy="70.66" r="4.6" style="fill: #909194; stroke-width: 0px;" class="point mark chart scene" id="chart-73"></circle>
      <path d="M243.35,77.09h-9.26c-.96,0-1.73.77-1.73,1.73v11.13c0,.96.77,1.73,1.73,1.73h.49v10.93c0,.77.62,1.39,1.39,1.39h5.44c.77,0,1.39-.62,1.39-1.39v-10.93h.55c.96,0,1.73-.77,1.73-1.73v-11.13c0-.96-.77-1.73-1.73-1.73Z" style="fill: #909194; stroke-width: 0px;" class="point mark chart scene" id="chart-74"></path>
    </g>
    <g>
      <circle cx="285.66" cy="70.66" r="4.6" style="fill: #e48b3d; stroke-width: 0px;" class="point mark chart scene" id="chart-75"></circle>
      <path d="M290.35,77.09h-9.26c-.96,0-1.73.77-1.73,1.73v11.13c0,.96.77,1.73,1.73,1.73h.49v10.93c0,.77.62,1.39,1.39,1.39h5.44c.77,0,1.39-.62,1.39-1.39v-10.93h.55c.96,0,1.73-.77,1.73-1.73v-11.13c0-.96-.77-1.73-1.73-1.73Z" style="fill: #e48b3d; stroke-width: 0px;" class="point mark chart scene" id="chart-76"></path>
    </g>
    <g>
      <circle cx="331.66" cy="70.66" r="4.6" style="fill: #e48b3d; stroke-width: 0px;" class="point mark chart scene" id="chart-77"></circle>
      <path d="M336.35,77.09h-9.26c-.96,0-1.73.77-1.73,1.73v11.13c0,.96.77,1.73,1.73,1.73h.49v10.93c0,.77.62,1.39,1.39,1.39h5.44c.77,0,1.39-.62,1.39-1.39v-10.93h.55c.96,0,1.73-.77,1.73-1.73v-11.13c0-.96-.77-1.73-1.73-1.73Z" style="fill: #e48b3d; stroke-width: 0px;" class="point mark chart scene" id="chart-78"></path>
    </g>
    <g>
      <circle cx="378.66" cy="70.66" r="4.6" style="fill: #909194; stroke-width: 0px;" class="point mark chart scene" id="chart-79"></circle>
      <path d="M383.35,77.09h-9.26c-.96,0-1.73.77-1.73,1.73v11.13c0,.96.77,1.73,1.73,1.73h.49v10.93c0,.77.62,1.39,1.39,1.39h5.44c.77,0,1.39-.62,1.39-1.39v-10.93h.55c.96,0,1.73-.77,1.73-1.73v-11.13c0-.96-.77-1.73-1.73-1.73Z" style="fill: #909194; stroke-width: 0px;" class="point mark chart scene" id="chart-80"></path>
    </g>
    <g>
      <circle cx="423.66" cy="70.66" r="4.6" style="fill: #909194; stroke-width: 0px;" class="point mark chart scene" id="chart-81"></circle>
      <path d="M428.35,77.09h-9.26c-.96,0-1.73.77-1.73,1.73v11.13c0,.96.77,1.73,1.73,1.73h.49v10.93c0,.77.62,1.39,1.39,1.39h5.44c.77,0,1.39-.62,1.39-1.39v-10.93h.55c.96,0,1.73-.77,1.73-1.73v-11.13c0-.96-.77-1.73-1.73-1.73Z" style="fill: #909194; stroke-width: 0px;" class="point mark chart scene" id="chart-82"></path>
    </g>
    <g>
      <circle cx="470.66" cy="70.66" r="4.6" style="fill: #909194; stroke-width: 0px;" class="point mark chart scene" id="chart-83"></circle>
      <path d="M475.35,77.09h-9.26c-.96,0-1.73.77-1.73,1.73v11.13c0,.96.77,1.73,1.73,1.73h.49v10.93c0,.77.62,1.39,1.39,1.39h5.44c.77,0,1.39-.62,1.39-1.39v-10.93h.55c.96,0,1.73-.77,1.73-1.73v-11.13c0-.96-.77-1.73-1.73-1.73Z" style="fill: #909194; stroke-width: 0px;" class="point mark chart scene" id="chart-84"></path>
    </g>
    <g>
      <circle cx="518.66" cy="70.66" r="4.6" style="fill: #909194; stroke-width: 0px;" class="point mark chart scene" id="chart-85"></circle>
      <path d="M523.35,77.09h-9.26c-.96,0-1.73.77-1.73,1.73v11.13c0,.96.77,1.73,1.73,1.73h.49v10.93c0,.77.62,1.39,1.39,1.39h5.44c.77,0,1.39-.62,1.39-1.39v-10.93h.55c.96,0,1.73-.77,1.73-1.73v-11.13c0-.96-.77-1.73-1.73-1.73Z" style="fill: #909194; stroke-width: 0px;" class="point mark chart scene" id="chart-86"></path>
    </g>
    <g>
      <circle cx="565.66" cy="70.66" r="4.6" style="fill: #e48b3d; stroke-width: 0px;" class="point mark chart scene" id="chart-87"></circle>
      <path d="M570.35,77.09h-9.26c-.96,0-1.73.77-1.73,1.73v11.13c0,.96.77,1.73,1.73,1.73h.49v10.93c0,.77.62,1.39,1.39,1.39h5.44c.77,0,1.39-.62,1.39-1.39v-10.93h.55c.96,0,1.73-.77,1.73-1.73v-11.13c0-.96-.77-1.73-1.73-1.73Z" style="fill: #e48b3d; stroke-width: 0px;" class="point mark chart scene" id="chart-88"></path>
    </g>
    <g>
      <circle cx="611.66" cy="70.66" r="4.6" style="fill: #909194; stroke-width: 0px;" class="point mark chart scene" id="chart-89"></circle>
      <path d="M616.35,77.09h-9.26c-.96,0-1.73.77-1.73,1.73v11.13c0,.96.77,1.73,1.73,1.73h.49v10.93c0,.77.62,1.39,1.39,1.39h5.44c.77,0,1.39-.62,1.39-1.39v-10.93h.55c.96,0,1.73-.77,1.73-1.73v-11.13c0-.96-.77-1.73-1.73-1.73Z" style="fill: #909194; stroke-width: 0px;" class="point mark chart scene" id="chart-90"></path>
    </g>
    <g>
      <circle cx="658.66" cy="70.66" r="4.6" style="fill: #909194; stroke-width: 0px;" class="point mark chart scene" id="chart-91"></circle>
      <path d="M663.35,77.09h-9.26c-.96,0-1.73.77-1.73,1.73v11.13c0,.96.77,1.73,1.73,1.73h.49v10.93c0,.77.62,1.39,1.39,1.39h5.44c.77,0,1.39-.62,1.39-1.39v-10.93h.55c.96,0,1.73-.77,1.73-1.73v-11.13c0-.96-.77-1.73-1.73-1.73Z" style="fill: #909194; stroke-width: 0px;" class="point mark chart scene" id="chart-92"></path>
    </g>
    <g>
      <circle cx="704.66" cy="70.66" r="4.6" style="fill: #909194; stroke-width: 0px;" class="point mark chart scene" id="chart-93"></circle>
      <path d="M709.35,77.09h-9.26c-.96,0-1.73.77-1.73,1.73v11.13c0,.96.77,1.73,1.73,1.73h.49v10.93c0,.77.62,1.39,1.39,1.39h5.44c.77,0,1.39-.62,1.39-1.39v-10.93h.55c.96,0,1.73-.77,1.73-1.73v-11.13c0-.96-.77-1.73-1.73-1.73Z" style="fill: #909194; stroke-width: 0px;" class="point mark chart scene" id="chart-94"></path>
    </g>
    <g>
      <circle cx="752.66" cy="70.66" r="4.6" style="fill: #909194; stroke-width: 0px;" class="point mark chart scene" id="chart-95"></circle>
      <path d="M757.35,77.09h-9.26c-.96,0-1.73.77-1.73,1.73v11.13c0,.96.77,1.73,1.73,1.73h.49v10.93c0,.77.62,1.39,1.39,1.39h5.44c.77,0,1.39-.62,1.39-1.39v-10.93h.55c.96,0,1.73-.77,1.73-1.73v-11.13c0-.96-.77-1.73-1.73-1.73Z" style="fill: #909194; stroke-width: 0px;" class="point mark chart scene" id="chart-96"></path>
    </g>
    <g>
      <circle cx="799.66" cy="70.66" r="4.6" style="fill: #909194; stroke-width: 0px;" class="point mark chart scene" id="chart-97"></circle>
      <path d="M804.35,77.09h-9.26c-.96,0-1.73.77-1.73,1.73v11.13c0,.96.77,1.73,1.73,1.73h.49v10.93c0,.77.62,1.39,1.39,1.39h5.44c.77,0,1.39-.62,1.39-1.39v-10.93h.55c.96,0,1.73-.77,1.73-1.73v-11.13c0-.96-.77-1.73-1.73-1.73Z" style="fill: #909194; stroke-width: 0px;" class="point mark chart scene" id="chart-98"></path>
    </g>
    <g>
      <circle cx="845.66" cy="70.66" r="4.6" style="fill: #909194; stroke-width: 0px;" class="point mark chart scene" id="chart-99"></circle>
      <path d="M850.35,77.09h-9.26c-.96,0-1.73.77-1.73,1.73v11.13c0,.96.77,1.73,1.73,1.73h.49v10.93c0,.77.62,1.39,1.39,1.39h5.44c.77,0,1.39-.62,1.39-1.39v-10.93h.55c.96,0,1.73-.77,1.73-1.73v-11.13c0-.96-.77-1.73-1.73-1.73Z" style="fill: #909194; stroke-width: 0px;" class="point mark chart scene" id="chart-100"></path>
    </g>
    <g>
      <circle cx="892.66" cy="70.66" r="4.6" style="fill: #909194; stroke-width: 0px;" class="point mark chart scene" id="chart-101"></circle>
      <path d="M897.35,77.09h-9.26c-.96,0-1.73.77-1.73,1.73v11.13c0,.96.77,1.73,1.73,1.73h.49v10.93c0,.77.62,1.39,1.39,1.39h5.44c.77,0,1.39-.62,1.39-1.39v-10.93h.55c.96,0,1.73-.77,1.73-1.73v-11.13c0-.96-.77-1.73-1.73-1.73Z" style="fill: #909194; stroke-width: 0px;" class="point mark chart scene" id="chart-102"></path>
    </g>
    <g>
      <circle cx="58.81" cy="117.87" r="4.6" style="fill: #909194; stroke-width: 0px;" class="point mark chart scene" id="chart-103"></circle>
      <path d="M63.5,124.31h-9.26c-.96,0-1.73.77-1.73,1.73v11.13c0,.96.77,1.73,1.73,1.73h.49v10.93c0,.77.62,1.39,1.39,1.39h5.44c.77,0,1.39-.62,1.39-1.39v-10.93h.55c.96,0,1.73-.77,1.73-1.73v-11.13c0-.96-.77-1.73-1.73-1.73Z" style="fill: #909194; stroke-width: 0px;" class="point mark chart scene" id="chart-104"></path>
    </g>
    <g>
      <circle cx="102.24" cy="117.87" r="4.6" style="fill: #909194; stroke-width: 0px;" class="point mark chart scene" id="chart-105"></circle>
      <path d="M106.94,124.31h-9.26c-.96,0-1.73.77-1.73,1.73v11.13c0,.96.77,1.73,1.73,1.73h.49v10.93c0,.77.62,1.39,1.39,1.39h5.44c.77,0,1.39-.62,1.39-1.39v-10.93h.55c.96,0,1.73-.77,1.73-1.73v-11.13c0-.96-.77-1.73-1.73-1.73Z" style="fill: #909194; stroke-width: 0px;" class="point mark chart scene" id="chart-106"></path>
    </g>
    <g>
      <circle cx="143.66" cy="117.87" r="4.6" style="fill: #e48b3d; stroke-width: 0px;" class="point mark chart scene" id="chart-107"></circle>
      <path d="M148.35,124.31h-9.26c-.96,0-1.73.77-1.73,1.73v11.13c0,.96.77,1.73,1.73,1.73h.49v10.93c0,.77.62,1.39,1.39,1.39h5.44c.77,0,1.39-.62,1.39-1.39v-10.93h.55c.96,0,1.73-.77,1.73-1.73v-11.13c0-.96-.77-1.73-1.73-1.73Z" style="fill: #e48b3d; stroke-width: 0px;" class="point mark chart scene" id="chart-108"></path>
    </g>
    <g>
      <circle cx="190.66" cy="117.87" r="4.6" style="fill: #909194; stroke-width: 0px;" class="point mark chart scene" id="chart-109"></circle>
      <path d="M195.35,124.31h-9.26c-.96,0-1.73.77-1.73,1.73v11.13c0,.96.77,1.73,1.73,1.73h.49v10.93c0,.77.62,1.39,1.39,1.39h5.44c.77,0,1.39-.62,1.39-1.39v-10.93h.55c.96,0,1.73-.77,1.73-1.73v-11.13c0-.96-.77-1.73-1.73-1.73Z" style="fill: #909194; stroke-width: 0px;" class="point mark chart scene" id="chart-110"></path>
    </g>
    <g>
      <circle cx="238.66" cy="117.87" r="4.6" style="fill: #e48b3d; stroke-width: 0px;" class="point mark chart scene" id="chart-111"></circle>
      <path d="M243.35,124.31h-9.26c-.96,0-1.73.77-1.73,1.73v11.13c0,.96.77,1.73,1.73,1.73h.49v10.93c0,.77.62,1.39,1.39,1.39h5.44c.77,0,1.39-.62,1.39-1.39v-10.93h.55c.96,0,1.73-.77,1.73-1.73v-11.13c0-.96-.77-1.73-1.73-1.73Z" style="fill: #e48b3d; stroke-width: 0px;" class="point mark chart scene" id="chart-112"></path>
    </g>
    <g>
      <circle cx="285.66" cy="117.87" r="4.6" style="fill: #909194; stroke-width: 0px;" class="point mark chart scene" id="chart-113"></circle>
      <path d="M290.35,124.31h-9.26c-.96,0-1.73.77-1.73,1.73v11.13c0,.96.77,1.73,1.73,1.73h.49v10.93c0,.77.62,1.39,1.39,1.39h5.44c.77,0,1.39-.62,1.39-1.39v-10.93h.55c.96,0,1.73-.77,1.73-1.73v-11.13c0-.96-.77-1.73-1.73-1.73Z" style="fill: #909194; stroke-width: 0px;" class="point mark chart scene" id="chart-114"></path>
    </g>
    <g>
      <circle cx="331.66" cy="117.87" r="4.6" style="fill: #e48b3d; stroke-width: 0px;" class="point mark chart scene" id="chart-115"></circle>
      <path d="M336.35,124.31h-9.26c-.96,0-1.73.77-1.73,1.73v11.13c0,.96.77,1.73,1.73,1.73h.49v10.93c0,.77.62,1.39,1.39,1.39h5.44c.77,0,1.39-.62,1.39-1.39v-10.93h.55c.96,0,1.73-.77,1.73-1.73v-11.13c0-.96-.77-1.73-1.73-1.73Z" style="fill: #e48b3d; stroke-width: 0px;" class="point mark chart scene" id="chart-116"></path>
    </g>
    <g>
      <circle cx="378.66" cy="117.87" r="4.6" style="fill: #909194; stroke-width: 0px;" class="point mark chart scene" id="chart-117"></circle>
      <path d="M383.35,124.31h-9.26c-.96,0-1.73.77-1.73,1.73v11.13c0,.96.77,1.73,1.73,1.73h.49v10.93c0,.77.62,1.39,1.39,1.39h5.44c.77,0,1.39-.62,1.39-1.39v-10.93h.55c.96,0,1.73-.77,1.73-1.73v-11.13c0-.96-.77-1.73-1.73-1.73Z" style="fill: #909194; stroke-width: 0px;" class="point mark chart scene" id="chart-118"></path>
    </g>
    <g>
      <circle cx="423.66" cy="117.87" r="4.6" style="fill: #909194; stroke-width: 0px;" class="point mark chart scene" id="chart-119"></circle>
      <path d="M428.35,124.31h-9.26c-.96,0-1.73.77-1.73,1.73v11.13c0,.96.77,1.73,1.73,1.73h.49v10.93c0,.77.62,1.39,1.39,1.39h5.44c.77,0,1.39-.62,1.39-1.39v-10.93h.55c.96,0,1.73-.77,1.73-1.73v-11.13c0-.96-.77-1.73-1.73-1.73Z" style="fill: #909194; stroke-width: 0px;" class="point mark chart scene" id="chart-120"></path>
    </g>
    <g>
      <circle cx="470.66" cy="117.87" r="4.6" style="fill: #909194; stroke-width: 0px;" class="point mark chart scene" id="chart-121"></circle>
      <path d="M475.35,124.31h-9.26c-.96,0-1.73.77-1.73,1.73v11.13c0,.96.77,1.73,1.73,1.73h.49v10.93c0,.77.62,1.39,1.39,1.39h5.44c.77,0,1.39-.62,1.39-1.39v-10.93h.55c.96,0,1.73-.77,1.73-1.73v-11.13c0-.96-.77-1.73-1.73-1.73Z" style="fill: #909194; stroke-width: 0px;" class="point mark chart scene" id="chart-122"></path>
    </g>
    <g>
      <circle cx="518.66" cy="117.87" r="4.6" style="fill: #909194; stroke-width: 0px;" class="point mark chart scene" id="chart-123"></circle>
      <path d="M523.35,124.31h-9.26c-.96,0-1.73.77-1.73,1.73v11.13c0,.96.77,1.73,1.73,1.73h.49v10.93c0,.77.62,1.39,1.39,1.39h5.44c.77,0,1.39-.62,1.39-1.39v-10.93h.55c.96,0,1.73-.77,1.73-1.73v-11.13c0-.96-.77-1.73-1.73-1.73Z" style="fill: #909194; stroke-width: 0px;" class="point mark chart scene" id="chart-124"></path>
    </g>
    <g>
      <circle cx="565.66" cy="117.87" r="4.6" style="fill: #909194; stroke-width: 0px;" class="point mark chart scene" id="chart-125"></circle>
      <path d="M570.35,124.31h-9.26c-.96,0-1.73.77-1.73,1.73v11.13c0,.96.77,1.73,1.73,1.73h.49v10.93c0,.77.62,1.39,1.39,1.39h5.44c.77,0,1.39-.62,1.39-1.39v-10.93h.55c.96,0,1.73-.77,1.73-1.73v-11.13c0-.96-.77-1.73-1.73-1.73Z" style="fill: #909194; stroke-width: 0px;" class="point mark chart scene" id="chart-126"></path>
    </g>
    <g>
      <circle cx="611.66" cy="117.87" r="4.6" style="fill: #909194; stroke-width: 0px;" class="point mark chart scene" id="chart-127"></circle>
      <path d="M616.35,124.31h-9.26c-.96,0-1.73.77-1.73,1.73v11.13c0,.96.77,1.73,1.73,1.73h.49v10.93c0,.77.62,1.39,1.39,1.39h5.44c.77,0,1.39-.62,1.39-1.39v-10.93h.55c.96,0,1.73-.77,1.73-1.73v-11.13c0-.96-.77-1.73-1.73-1.73Z" style="fill: #909194; stroke-width: 0px;" class="point mark chart scene" id="chart-128"></path>
    </g>
    <g>
      <circle cx="658.66" cy="117.87" r="4.6" style="fill: #909194; stroke-width: 0px;" class="point mark chart scene" id="chart-129"></circle>
      <path d="M663.35,124.31h-9.26c-.96,0-1.73.77-1.73,1.73v11.13c0,.96.77,1.73,1.73,1.73h.49v10.93c0,.77.62,1.39,1.39,1.39h5.44c.77,0,1.39-.62,1.39-1.39v-10.93h.55c.96,0,1.73-.77,1.73-1.73v-11.13c0-.96-.77-1.73-1.73-1.73Z" style="fill: #909194; stroke-width: 0px;" class="point mark chart scene" id="chart-130"></path>
    </g>
    <g>
      <circle cx="704.66" cy="117.87" r="4.6" style="fill: #909194; stroke-width: 0px;" class="point mark chart scene" id="chart-131"></circle>
      <path d="M709.35,124.31h-9.26c-.96,0-1.73.77-1.73,1.73v11.13c0,.96.77,1.73,1.73,1.73h.49v10.93c0,.77.62,1.39,1.39,1.39h5.44c.77,0,1.39-.62,1.39-1.39v-10.93h.55c.96,0,1.73-.77,1.73-1.73v-11.13c0-.96-.77-1.73-1.73-1.73Z" style="fill: #909194; stroke-width: 0px;" class="point mark chart scene" id="chart-132"></path>
    </g>
    <g>
      <circle cx="752.66" cy="117.87" r="4.6" style="fill: #909194; stroke-width: 0px;" class="point mark chart scene" id="chart-133"></circle>
      <path d="M757.35,124.31h-9.26c-.96,0-1.73.77-1.73,1.73v11.13c0,.96.77,1.73,1.73,1.73h.49v10.93c0,.77.62,1.39,1.39,1.39h5.44c.77,0,1.39-.62,1.39-1.39v-10.93h.55c.96,0,1.73-.77,1.73-1.73v-11.13c0-.96-.77-1.73-1.73-1.73Z" style="fill: #909194; stroke-width: 0px;" class="point mark chart scene" id="chart-134"></path>
    </g>
    <g>
      <circle cx="799.66" cy="117.87" r="4.6" style="fill: #909194; stroke-width: 0px;" class="point mark chart scene" id="chart-135"></circle>
      <path d="M804.35,124.31h-9.26c-.96,0-1.73.77-1.73,1.73v11.13c0,.96.77,1.73,1.73,1.73h.49v10.93c0,.77.62,1.39,1.39,1.39h5.44c.77,0,1.39-.62,1.39-1.39v-10.93h.55c.96,0,1.73-.77,1.73-1.73v-11.13c0-.96-.77-1.73-1.73-1.73Z" style="fill: #909194; stroke-width: 0px;" class="point mark chart scene" id="chart-136"></path>
    </g>
    <g>
      <circle cx="845.66" cy="117.87" r="4.6" style="fill: #909194; stroke-width: 0px;" class="point mark chart scene" id="chart-137"></circle>
      <path d="M850.35,124.31h-9.26c-.96,0-1.73.77-1.73,1.73v11.13c0,.96.77,1.73,1.73,1.73h.49v10.93c0,.77.62,1.39,1.39,1.39h5.44c.77,0,1.39-.62,1.39-1.39v-10.93h.55c.96,0,1.73-.77,1.73-1.73v-11.13c0-.96-.77-1.73-1.73-1.73Z" style="fill: #909194; stroke-width: 0px;" class="point mark chart scene" id="chart-138"></path>
    </g>
    <g>
      <circle cx="892.66" cy="117.87" r="4.6" style="fill: #909194; stroke-width: 0px;" class="point mark chart scene" id="chart-139"></circle>
      <path d="M897.35,124.31h-9.26c-.96,0-1.73.77-1.73,1.73v11.13c0,.96.77,1.73,1.73,1.73h.49v10.93c0,.77.62,1.39,1.39,1.39h5.44c.77,0,1.39-.62,1.39-1.39v-10.93h.55c.96,0,1.73-.77,1.73-1.73v-11.13c0-.96-.77-1.73-1.73-1.73Z" style="fill: #909194; stroke-width: 0px;" class="point mark chart scene" id="chart-140"></path>
    </g>
    <g>
      <circle cx="58.81" cy="164.93" r="4.6" style="fill: #909194; stroke-width: 0px;" class="point mark chart scene" id="chart-141"></circle>
      <path d="M63.5,171.37h-9.26c-.96,0-1.73.77-1.73,1.73v11.13c0,.96.77,1.73,1.73,1.73h.49v10.93c0,.77.62,1.39,1.39,1.39h5.44c.77,0,1.39-.62,1.39-1.39v-10.93h.55c.96,0,1.73-.77,1.73-1.73v-11.13c0-.96-.77-1.73-1.73-1.73Z" style="fill: #909194; stroke-width: 0px;" class="point mark chart scene" id="chart-142"></path>
    </g>
    <g>
      <circle cx="102.24" cy="164.93" r="4.6" style="fill: #909194; stroke-width: 0px;" class="point mark chart scene" id="chart-143"></circle>
      <path d="M106.94,171.37h-9.26c-.96,0-1.73.77-1.73,1.73v11.13c0,.96.77,1.73,1.73,1.73h.49v10.93c0,.77.62,1.39,1.39,1.39h5.44c.77,0,1.39-.62,1.39-1.39v-10.93h.55c.96,0,1.73-.77,1.73-1.73v-11.13c0-.96-.77-1.73-1.73-1.73Z" style="fill: #909194; stroke-width: 0px;" class="point mark chart scene" id="chart-144"></path>
    </g>
    <g>
      <circle cx="143.66" cy="164.93" r="4.6" style="fill: #909194; stroke-width: 0px;" class="point mark chart scene" id="chart-145"></circle>
      <path d="M148.35,171.37h-9.26c-.96,0-1.73.77-1.73,1.73v11.13c0,.96.77,1.73,1.73,1.73h.49v10.93c0,.77.62,1.39,1.39,1.39h5.44c.77,0,1.39-.62,1.39-1.39v-10.93h.55c.96,0,1.73-.77,1.73-1.73v-11.13c0-.96-.77-1.73-1.73-1.73Z" style="fill: #909194; stroke-width: 0px;" class="point mark chart scene" id="chart-146"></path>
    </g>
    <g>
      <circle cx="190.66" cy="164.93" r="4.6" style="fill: #e48b3d; stroke-width: 0px;" class="point mark chart scene" id="chart-147"></circle>
      <path d="M195.35,171.37h-9.26c-.96,0-1.73.77-1.73,1.73v11.13c0,.96.77,1.73,1.73,1.73h.49v10.93c0,.77.62,1.39,1.39,1.39h5.44c.77,0,1.39-.62,1.39-1.39v-10.93h.55c.96,0,1.73-.77,1.73-1.73v-11.13c0-.96-.77-1.73-1.73-1.73Z" style="fill: #e48b3d; stroke-width: 0px;" class="point mark chart scene" id="chart-148"></path>
    </g>
    <g>
      <circle cx="238.66" cy="164.93" r="4.6" style="fill: #909194; stroke-width: 0px;" class="point mark chart scene" id="chart-149"></circle>
      <path d="M243.35,171.37h-9.26c-.96,0-1.73.77-1.73,1.73v11.13c0,.96.77,1.73,1.73,1.73h.49v10.93c0,.77.62,1.39,1.39,1.39h5.44c.77,0,1.39-.62,1.39-1.39v-10.93h.55c.96,0,1.73-.77,1.73-1.73v-11.13c0-.96-.77-1.73-1.73-1.73Z" style="fill: #909194; stroke-width: 0px;" class="point mark chart scene" id="chart-150"></path>
    </g>
    <g>
      <circle cx="285.66" cy="164.93" r="4.6" style="fill: #909194; stroke-width: 0px;" class="point mark chart scene" id="chart-151"></circle>
      <path d="M290.35,171.37h-9.26c-.96,0-1.73.77-1.73,1.73v11.13c0,.96.77,1.73,1.73,1.73h.49v10.93c0,.77.62,1.39,1.39,1.39h5.44c.77,0,1.39-.62,1.39-1.39v-10.93h.55c.96,0,1.73-.77,1.73-1.73v-11.13c0-.96-.77-1.73-1.73-1.73Z" style="fill: #909194; stroke-width: 0px;" class="point mark chart scene" id="chart-152"></path>
    </g>
    <g>
      <circle cx="331.66" cy="164.93" r="4.6" style="fill: #909194; stroke-width: 0px;" class="point mark chart scene" id="chart-153"></circle>
      <path d="M336.35,171.37h-9.26c-.96,0-1.73.77-1.73,1.73v11.13c0,.96.77,1.73,1.73,1.73h.49v10.93c0,.77.62,1.39,1.39,1.39h5.44c.77,0,1.39-.62,1.39-1.39v-10.93h.55c.96,0,1.73-.77,1.73-1.73v-11.13c0-.96-.77-1.73-1.73-1.73Z" style="fill: #909194; stroke-width: 0px;" class="point mark chart scene" id="chart-154"></path>
    </g>
    <g>
      <circle cx="378.66" cy="164.93" r="4.6" style="fill: #909194; stroke-width: 0px;" class="point mark chart scene" id="chart-155"></circle>
      <path d="M383.35,171.37h-9.26c-.96,0-1.73.77-1.73,1.73v11.13c0,.96.77,1.73,1.73,1.73h.49v10.93c0,.77.62,1.39,1.39,1.39h5.44c.77,0,1.39-.62,1.39-1.39v-10.93h.55c.96,0,1.73-.77,1.73-1.73v-11.13c0-.96-.77-1.73-1.73-1.73Z" style="fill: #909194; stroke-width: 0px;" class="point mark chart scene" id="chart-156"></path>
    </g>
    <g>
      <circle cx="423.66" cy="164.93" r="4.6" style="fill: #e48b3d; stroke-width: 0px;" class="point mark chart scene" id="chart-157"></circle>
      <path d="M428.35,171.37h-9.26c-.96,0-1.73.77-1.73,1.73v11.13c0,.96.77,1.73,1.73,1.73h.49v10.93c0,.77.62,1.39,1.39,1.39h5.44c.77,0,1.39-.62,1.39-1.39v-10.93h.55c.96,0,1.73-.77,1.73-1.73v-11.13c0-.96-.77-1.73-1.73-1.73Z" style="fill: #e48b3d; stroke-width: 0px;" class="point mark chart scene" id="chart-158"></path>
    </g>
    <g>
      <circle cx="470.66" cy="164.93" r="4.6" style="fill: #e48b3d; stroke-width: 0px;" class="point mark chart scene" id="chart-159"></circle>
      <path d="M475.35,171.37h-9.26c-.96,0-1.73.77-1.73,1.73v11.13c0,.96.77,1.73,1.73,1.73h.49v10.93c0,.77.62,1.39,1.39,1.39h5.44c.77,0,1.39-.62,1.39-1.39v-10.93h.55c.96,0,1.73-.77,1.73-1.73v-11.13c0-.96-.77-1.73-1.73-1.73Z" style="fill: #e48b3d; stroke-width: 0px;" class="point mark chart scene" id="chart-160"></path>
    </g>
    <g>
      <circle cx="518.66" cy="164.93" r="4.6" style="fill: #e48b3d; stroke-width: 0px;" class="point mark chart scene" id="chart-161"></circle>
      <path d="M523.35,171.37h-9.26c-.96,0-1.73.77-1.73,1.73v11.13c0,.96.77,1.73,1.73,1.73h.49v10.93c0,.77.62,1.39,1.39,1.39h5.44c.77,0,1.39-.62,1.39-1.39v-10.93h.55c.96,0,1.73-.77,1.73-1.73v-11.13c0-.96-.77-1.73-1.73-1.73Z" style="fill: #e48b3d; stroke-width: 0px;" class="point mark chart scene" id="chart-162"></path>
    </g>
    <g>
      <circle cx="565.66" cy="164.93" r="4.6" style="fill: #e48b3d; stroke-width: 0px;" class="point mark chart scene" id="chart-163"></circle>
      <path d="M570.35,171.37h-9.26c-.96,0-1.73.77-1.73,1.73v11.13c0,.96.77,1.73,1.73,1.73h.49v10.93c0,.77.62,1.39,1.39,1.39h5.44c.77,0,1.39-.62,1.39-1.39v-10.93h.55c.96,0,1.73-.77,1.73-1.73v-11.13c0-.96-.77-1.73-1.73-1.73Z" style="fill: #e48b3d; stroke-width: 0px;" class="point mark chart scene" id="chart-164"></path>
    </g>
    <g>
      <circle cx="611.66" cy="164.93" r="4.6" style="fill: #909194; stroke-width: 0px;" class="point mark chart scene" id="chart-165"></circle>
      <path d="M616.35,171.37h-9.26c-.96,0-1.73.77-1.73,1.73v11.13c0,.96.77,1.73,1.73,1.73h.49v10.93c0,.77.62,1.39,1.39,1.39h5.44c.77,0,1.39-.62,1.39-1.39v-10.93h.55c.96,0,1.73-.77,1.73-1.73v-11.13c0-.96-.77-1.73-1.73-1.73Z" style="fill: #909194; stroke-width: 0px;" class="point mark chart scene" id="chart-166"></path>
    </g>
    <g>
      <circle cx="658.66" cy="164.93" r="4.6" style="fill: #909194; stroke-width: 0px;" class="point mark chart scene" id="chart-167"></circle>
      <path d="M663.35,171.37h-9.26c-.96,0-1.73.77-1.73,1.73v11.13c0,.96.77,1.73,1.73,1.73h.49v10.93c0,.77.62,1.39,1.39,1.39h5.44c.77,0,1.39-.62,1.39-1.39v-10.93h.55c.96,0,1.73-.77,1.73-1.73v-11.13c0-.96-.77-1.73-1.73-1.73Z" style="fill: #909194; stroke-width: 0px;" class="point mark chart scene" id="chart-168"></path>
    </g>
    <g>
      <circle cx="704.66" cy="164.93" r="4.6" style="fill: #e48b3d; stroke-width: 0px;" class="point mark chart scene" id="chart-169"></circle>
      <path d="M709.35,171.37h-9.26c-.96,0-1.73.77-1.73,1.73v11.13c0,.96.77,1.73,1.73,1.73h.49v10.93c0,.77.62,1.39,1.39,1.39h5.44c.77,0,1.39-.62,1.39-1.39v-10.93h.55c.96,0,1.73-.77,1.73-1.73v-11.13c0-.96-.77-1.73-1.73-1.73Z" style="fill: #e48b3d; stroke-width: 0px;" class="point mark chart scene" id="chart-170"></path>
    </g>
    <g>
      <circle cx="752.66" cy="164.93" r="4.6" style="fill: #909194; stroke-width: 0px;" class="point mark chart scene" id="chart-171"></circle>
      <path d="M757.35,171.37h-9.26c-.96,0-1.73.77-1.73,1.73v11.13c0,.96.77,1.73,1.73,1.73h.49v10.93c0,.77.62,1.39,1.39,1.39h5.44c.77,0,1.39-.62,1.39-1.39v-10.93h.55c.96,0,1.73-.77,1.73-1.73v-11.13c0-.96-.77-1.73-1.73-1.73Z" style="fill: #909194; stroke-width: 0px;" class="point mark chart scene" id="chart-172"></path>
    </g>
    <g>
      <circle cx="799.66" cy="164.93" r="4.6" style="fill: #909194; stroke-width: 0px;" class="point mark chart scene" id="chart-173"></circle>
      <path d="M804.35,171.37h-9.26c-.96,0-1.73.77-1.73,1.73v11.13c0,.96.77,1.73,1.73,1.73h.49v10.93c0,.77.62,1.39,1.39,1.39h5.44c.77,0,1.39-.62,1.39-1.39v-10.93h.55c.96,0,1.73-.77,1.73-1.73v-11.13c0-.96-.77-1.73-1.73-1.73Z" style="fill: #909194; stroke-width: 0px;" class="point mark chart scene" id="chart-174"></path>
    </g>
    <g>
      <circle cx="845.66" cy="164.93" r="4.6" style="fill: #909194; stroke-width: 0px;" class="point mark chart scene" id="chart-175"></circle>
      <path d="M850.35,171.37h-9.26c-.96,0-1.73.77-1.73,1.73v11.13c0,.96.77,1.73,1.73,1.73h.49v10.93c0,.77.62,1.39,1.39,1.39h5.44c.77,0,1.39-.62,1.39-1.39v-10.93h.55c.96,0,1.73-.77,1.73-1.73v-11.13c0-.96-.77-1.73-1.73-1.73Z" style="fill: #909194; stroke-width: 0px;" class="point mark chart scene" id="chart-176"></path>
    </g>
    <g>
      <circle cx="892.66" cy="164.93" r="4.6" style="fill: #909194; stroke-width: 0px;" class="point mark chart scene" id="chart-177"></circle>
      <path d="M897.35,171.37h-9.26c-.96,0-1.73.77-1.73,1.73v11.13c0,.96.77,1.73,1.73,1.73h.49v10.93c0,.77.62,1.39,1.39,1.39h5.44c.77,0,1.39-.62,1.39-1.39v-10.93h.55c.96,0,1.73-.77,1.73-1.73v-11.13c0-.96-.77-1.73-1.73-1.73Z" style="fill: #909194; stroke-width: 0px;" class="point mark chart scene" id="chart-178"></path>
    </g>
    <g>
      <circle cx="143.66" cy="209.24" r="4.6" style="fill: #909194; stroke-width: 0px;" class="point mark chart scene" id="chart-179"></circle>
      <path d="M148.35,215.67h-9.26c-.96,0-1.73.77-1.73,1.73v11.13c0,.96.77,1.73,1.73,1.73h.49v10.93c0,.77.62,1.39,1.39,1.39h5.44c.77,0,1.39-.62,1.39-1.39v-10.93h.55c.96,0,1.73-.77,1.73-1.73v-11.13c0-.96-.77-1.73-1.73-1.73Z" style="fill: #909194; stroke-width: 0px;" class="point mark chart scene" id="chart-180"></path>
    </g>
    <g>
      <circle cx="190.66" cy="209.24" r="4.6" style="fill: #909194; stroke-width: 0px;" class="point mark chart scene" id="chart-181"></circle>
      <path d="M195.35,215.67h-9.26c-.96,0-1.73.77-1.73,1.73v11.13c0,.96.77,1.73,1.73,1.73h.49v10.93c0,.77.62,1.39,1.39,1.39h5.44c.77,0,1.39-.62,1.39-1.39v-10.93h.55c.96,0,1.73-.77,1.73-1.73v-11.13c0-.96-.77-1.73-1.73-1.73Z" style="fill: #909194; stroke-width: 0px;" class="point mark chart scene" id="chart-182"></path>
    </g>
    <g>
      <circle cx="238.66" cy="209.24" r="4.6" style="fill: #e48b3d; stroke-width: 0px;" class="point mark chart scene" id="chart-183"></circle>
      <path d="M243.35,215.67h-9.26c-.96,0-1.73.77-1.73,1.73v11.13c0,.96.77,1.73,1.73,1.73h.49v10.93c0,.77.62,1.39,1.39,1.39h5.44c.77,0,1.39-.62,1.39-1.39v-10.93h.55c.96,0,1.73-.77,1.73-1.73v-11.13c0-.96-.77-1.73-1.73-1.73Z" style="fill: #e48b3d; stroke-width: 0px;" class="point mark chart scene" id="chart-184"></path>
    </g>
    <g>
      <circle cx="285.66" cy="209.24" r="4.6" style="fill: #909194; stroke-width: 0px;" class="point mark chart scene" id="chart-185"></circle>
      <path d="M290.35,215.67h-9.26c-.96,0-1.73.77-1.73,1.73v11.13c0,.96.77,1.73,1.73,1.73h.49v10.93c0,.77.62,1.39,1.39,1.39h5.44c.77,0,1.39-.62,1.39-1.39v-10.93h.55c.96,0,1.73-.77,1.73-1.73v-11.13c0-.96-.77-1.73-1.73-1.73Z" style="fill: #909194; stroke-width: 0px;" class="point mark chart scene" id="chart-186"></path>
    </g>
    <g>
      <circle cx="331.66" cy="209.24" r="4.6" style="fill: #e48b3d; stroke-width: 0px;" class="point mark chart scene" id="chart-187"></circle>
      <path d="M336.35,215.67h-9.26c-.96,0-1.73.77-1.73,1.73v11.13c0,.96.77,1.73,1.73,1.73h.49v10.93c0,.77.62,1.39,1.39,1.39h5.44c.77,0,1.39-.62,1.39-1.39v-10.93h.55c.96,0,1.73-.77,1.73-1.73v-11.13c0-.96-.77-1.73-1.73-1.73Z" style="fill: #e48b3d; stroke-width: 0px;" class="point mark chart scene" id="chart-188"></path>
    </g>
    <g>
      <circle cx="378.66" cy="209.24" r="4.6" style="fill: #909194; stroke-width: 0px;" class="point mark chart scene" id="chart-189"></circle>
      <path d="M383.35,215.67h-9.26c-.96,0-1.73.77-1.73,1.73v11.13c0,.96.77,1.73,1.73,1.73h.49v10.93c0,.77.62,1.39,1.39,1.39h5.44c.77,0,1.39-.62,1.39-1.39v-10.93h.55c.96,0,1.73-.77,1.73-1.73v-11.13c0-.96-.77-1.73-1.73-1.73Z" style="fill: #909194; stroke-width: 0px;" class="point mark chart scene" id="chart-190"></path>
    </g>
    <g>
      <circle cx="423.66" cy="209.24" r="4.6" style="fill: #909194; stroke-width: 0px;" class="point mark chart scene" id="chart-191"></circle>
      <path d="M428.35,215.67h-9.26c-.96,0-1.73.77-1.73,1.73v11.13c0,.96.77,1.73,1.73,1.73h.49v10.93c0,.77.62,1.39,1.39,1.39h5.44c.77,0,1.39-.62,1.39-1.39v-10.93h.55c.96,0,1.73-.77,1.73-1.73v-11.13c0-.96-.77-1.73-1.73-1.73Z" style="fill: #909194; stroke-width: 0px;" class="point mark chart scene" id="chart-192"></path>
    </g>
    <g>
      <circle cx="470.66" cy="209.24" r="4.6" style="fill: #909194; stroke-width: 0px;" class="point mark chart scene" id="chart-193"></circle>
      <path d="M475.35,215.67h-9.26c-.96,0-1.73.77-1.73,1.73v11.13c0,.96.77,1.73,1.73,1.73h.49v10.93c0,.77.62,1.39,1.39,1.39h5.44c.77,0,1.39-.62,1.39-1.39v-10.93h.55c.96,0,1.73-.77,1.73-1.73v-11.13c0-.96-.77-1.73-1.73-1.73Z" style="fill: #909194; stroke-width: 0px;" class="point mark chart scene" id="chart-194"></path>
    </g>
    <g>
      <circle cx="518.66" cy="209.24" r="4.6" style="fill: #e48b3d; stroke-width: 0px;" class="point mark chart scene" id="chart-195"></circle>
      <path d="M523.35,215.67h-9.26c-.96,0-1.73.77-1.73,1.73v11.13c0,.96.77,1.73,1.73,1.73h.49v10.93c0,.77.62,1.39,1.39,1.39h5.44c.77,0,1.39-.62,1.39-1.39v-10.93h.55c.96,0,1.73-.77,1.73-1.73v-11.13c0-.96-.77-1.73-1.73-1.73Z" style="fill: #e48b3d; stroke-width: 0px;" class="point mark chart scene" id="chart-196"></path>
    </g>
    <g>
      <circle cx="565.66" cy="209.24" r="4.6" style="fill: #909194; stroke-width: 0px;" class="point mark chart scene" id="chart-197"></circle>
      <path d="M570.35,215.67h-9.26c-.96,0-1.73.77-1.73,1.73v11.13c0,.96.77,1.73,1.73,1.73h.49v10.93c0,.77.62,1.39,1.39,1.39h5.44c.77,0,1.39-.62,1.39-1.39v-10.93h.55c.96,0,1.73-.77,1.73-1.73v-11.13c0-.96-.77-1.73-1.73-1.73Z" style="fill: #909194; stroke-width: 0px;" class="point mark chart scene" id="chart-198"></path>
    </g>
    <g>
      <circle cx="611.66" cy="209.24" r="4.6" style="fill: #e48b3d; stroke-width: 0px;" class="point mark chart scene" id="chart-199"></circle>
      <path d="M616.35,215.67h-9.26c-.96,0-1.73.77-1.73,1.73v11.13c0,.96.77,1.73,1.73,1.73h.49v10.93c0,.77.62,1.39,1.39,1.39h5.44c.77,0,1.39-.62,1.39-1.39v-10.93h.55c.96,0,1.73-.77,1.73-1.73v-11.13c0-.96-.77-1.73-1.73-1.73Z" style="fill: #e48b3d; stroke-width: 0px;" class="point mark chart scene" id="chart-200"></path>
    </g>
    <g>
      <circle cx="658.66" cy="209.24" r="4.6" style="fill: #909194; stroke-width: 0px;" class="point mark chart scene" id="chart-201"></circle>
      <path d="M663.35,215.67h-9.26c-.96,0-1.73.77-1.73,1.73v11.13c0,.96.77,1.73,1.73,1.73h.49v10.93c0,.77.62,1.39,1.39,1.39h5.44c.77,0,1.39-.62,1.39-1.39v-10.93h.55c.96,0,1.73-.77,1.73-1.73v-11.13c0-.96-.77-1.73-1.73-1.73Z" style="fill: #909194; stroke-width: 0px;" class="point mark chart scene" id="chart-202"></path>
    </g>
    <g>
      <circle cx="704.66" cy="209.24" r="4.6" style="fill: #909194; stroke-width: 0px;" class="point mark chart scene" id="chart-203"></circle>
      <path d="M709.35,215.67h-9.26c-.96,0-1.73.77-1.73,1.73v11.13c0,.96.77,1.73,1.73,1.73h.49v10.93c0,.77.62,1.39,1.39,1.39h5.44c.77,0,1.39-.62,1.39-1.39v-10.93h.55c.96,0,1.73-.77,1.73-1.73v-11.13c0-.96-.77-1.73-1.73-1.73Z" style="fill: #909194; stroke-width: 0px;" class="point mark chart scene" id="chart-204"></path>
    </g>
    <g>
      <circle cx="752.66" cy="209.24" r="4.6" style="fill: #e48b3d; stroke-width: 0px;" class="point mark chart scene" id="chart-205"></circle>
      <path d="M757.35,215.67h-9.26c-.96,0-1.73.77-1.73,1.73v11.13c0,.96.77,1.73,1.73,1.73h.49v10.93c0,.77.62,1.39,1.39,1.39h5.44c.77,0,1.39-.62,1.39-1.39v-10.93h.55c.96,0,1.73-.77,1.73-1.73v-11.13c0-.96-.77-1.73-1.73-1.73Z" style="fill: #e48b3d; stroke-width: 0px;" class="point mark chart scene" id="chart-206"></path>
    </g>
    <g>
      <circle cx="799.66" cy="209.24" r="4.6" style="fill: #909194; stroke-width: 0px;" class="point mark chart scene" id="chart-207"></circle>
      <path d="M804.35,215.67h-9.26c-.96,0-1.73.77-1.73,1.73v11.13c0,.96.77,1.73,1.73,1.73h.49v10.93c0,.77.62,1.39,1.39,1.39h5.44c.77,0,1.39-.62,1.39-1.39v-10.93h.55c.96,0,1.73-.77,1.73-1.73v-11.13c0-.96-.77-1.73-1.73-1.73Z" style="fill: #909194; stroke-width: 0px;" class="point mark chart scene" id="chart-208"></path>
    </g>
    <g>
      <circle cx="845.66" cy="209.24" r="4.6" style="fill: #909194; stroke-width: 0px;" class="point mark chart scene" id="chart-209"></circle>
      <path d="M850.35,215.67h-9.26c-.96,0-1.73.77-1.73,1.73v11.13c0,.96.77,1.73,1.73,1.73h.49v10.93c0,.77.62,1.39,1.39,1.39h5.44c.77,0,1.39-.62,1.39-1.39v-10.93h.55c.96,0,1.73-.77,1.73-1.73v-11.13c0-.96-.77-1.73-1.73-1.73Z" style="fill: #909194; stroke-width: 0px;" class="point mark chart scene" id="chart-210"></path>
    </g>
    <g>
      <circle cx="892.66" cy="209.24" r="4.6" style="fill: #909194; stroke-width: 0px;" class="point mark chart scene" id="chart-211"></circle>
      <path d="M897.35,215.67h-9.26c-.96,0-1.73.77-1.73,1.73v11.13c0,.96.77,1.73,1.73,1.73h.49v10.93c0,.77.62,1.39,1.39,1.39h5.44c.77,0,1.39-.62,1.39-1.39v-10.93h.55c.96,0,1.73-.77,1.73-1.73v-11.13c0-.96-.77-1.73-1.73-1.73Z" style="fill: #909194; stroke-width: 0px;" class="point mark chart scene" id="chart-212"></path>
    </g>
    <g>
      <circle cx="143.66" cy="255.98" r="4.6" style="fill: #909194; stroke-width: 0px;" class="point mark chart scene" id="chart-213"></circle>
      <path d="M148.35,262.41h-9.26c-.96,0-1.73.77-1.73,1.73v11.13c0,.96.77,1.73,1.73,1.73h.49v10.93c0,.77.62,1.39,1.39,1.39h5.44c.77,0,1.39-.62,1.39-1.39v-10.93h.55c.96,0,1.73-.77,1.73-1.73v-11.13c0-.96-.77-1.73-1.73-1.73Z" style="fill: #909194; stroke-width: 0px;" class="point mark chart scene" id="chart-214"></path>
    </g>
    <g>
      <circle cx="190.66" cy="255.98" r="4.6" style="fill: #909194; stroke-width: 0px;" class="point mark chart scene" id="chart-215"></circle>
      <path d="M195.35,262.41h-9.26c-.96,0-1.73.77-1.73,1.73v11.13c0,.96.77,1.73,1.73,1.73h.49v10.93c0,.77.62,1.39,1.39,1.39h5.44c.77,0,1.39-.62,1.39-1.39v-10.93h.55c.96,0,1.73-.77,1.73-1.73v-11.13c0-.96-.77-1.73-1.73-1.73Z" style="fill: #909194; stroke-width: 0px;" class="point mark chart scene" id="chart-216"></path>
    </g>
    <g>
      <circle cx="238.66" cy="255.98" r="4.6" style="fill: #909194; stroke-width: 0px;" class="point mark chart scene" id="chart-217"></circle>
      <path d="M243.35,262.41h-9.26c-.96,0-1.73.77-1.73,1.73v11.13c0,.96.77,1.73,1.73,1.73h.49v10.93c0,.77.62,1.39,1.39,1.39h5.44c.77,0,1.39-.62,1.39-1.39v-10.93h.55c.96,0,1.73-.77,1.73-1.73v-11.13c0-.96-.77-1.73-1.73-1.73Z" style="fill: #909194; stroke-width: 0px;" class="point mark chart scene" id="chart-218"></path>
    </g>
    <g>
      <circle cx="285.66" cy="255.98" r="4.6" style="fill: #909194; stroke-width: 0px;" class="point mark chart scene" id="chart-219"></circle>
      <path d="M290.35,262.41h-9.26c-.96,0-1.73.77-1.73,1.73v11.13c0,.96.77,1.73,1.73,1.73h.49v10.93c0,.77.62,1.39,1.39,1.39h5.44c.77,0,1.39-.62,1.39-1.39v-10.93h.55c.96,0,1.73-.77,1.73-1.73v-11.13c0-.96-.77-1.73-1.73-1.73Z" style="fill: #909194; stroke-width: 0px;" class="point mark chart scene" id="chart-220"></path>
    </g>
    <g>
      <circle cx="331.66" cy="255.98" r="4.6" style="fill: #909194; stroke-width: 0px;" class="point mark chart scene" id="chart-221"></circle>
      <path d="M336.35,262.41h-9.26c-.96,0-1.73.77-1.73,1.73v11.13c0,.96.77,1.73,1.73,1.73h.49v10.93c0,.77.62,1.39,1.39,1.39h5.44c.77,0,1.39-.62,1.39-1.39v-10.93h.55c.96,0,1.73-.77,1.73-1.73v-11.13c0-.96-.77-1.73-1.73-1.73Z" style="fill: #909194; stroke-width: 0px;" class="point mark chart scene" id="chart-222"></path>
    </g>
    <g>
      <circle cx="378.66" cy="255.98" r="4.6" style="fill: #e48b3d; stroke-width: 0px;" class="point mark chart scene" id="chart-223"></circle>
      <path d="M383.35,262.41h-9.26c-.96,0-1.73.77-1.73,1.73v11.13c0,.96.77,1.73,1.73,1.73h.49v10.93c0,.77.62,1.39,1.39,1.39h5.44c.77,0,1.39-.62,1.39-1.39v-10.93h.55c.96,0,1.73-.77,1.73-1.73v-11.13c0-.96-.77-1.73-1.73-1.73Z" style="fill: #e48b3d; stroke-width: 0px;" class="point mark chart scene" id="chart-224"></path>
    </g>
    <g>
      <circle cx="423.66" cy="255.98" r="4.6" style="fill: #909194; stroke-width: 0px;" class="point mark chart scene" id="chart-225"></circle>
      <path d="M428.35,262.41h-9.26c-.96,0-1.73.77-1.73,1.73v11.13c0,.96.77,1.73,1.73,1.73h.49v10.93c0,.77.62,1.39,1.39,1.39h5.44c.77,0,1.39-.62,1.39-1.39v-10.93h.55c.96,0,1.73-.77,1.73-1.73v-11.13c0-.96-.77-1.73-1.73-1.73Z" style="fill: #909194; stroke-width: 0px;" class="point mark chart scene" id="chart-226"></path>
    </g>
    <g>
      <circle cx="470.66" cy="255.98" r="4.6" style="fill: #909194; stroke-width: 0px;" class="point mark chart scene" id="chart-227"></circle>
      <path d="M475.35,262.41h-9.26c-.96,0-1.73.77-1.73,1.73v11.13c0,.96.77,1.73,1.73,1.73h.49v10.93c0,.77.62,1.39,1.39,1.39h5.44c.77,0,1.39-.62,1.39-1.39v-10.93h.55c.96,0,1.73-.77,1.73-1.73v-11.13c0-.96-.77-1.73-1.73-1.73Z" style="fill: #909194; stroke-width: 0px;" class="point mark chart scene" id="chart-228"></path>
    </g>
    <g>
      <circle cx="518.66" cy="255.98" r="4.6" style="fill: #909194; stroke-width: 0px;" class="point mark chart scene" id="chart-229"></circle>
      <path d="M523.35,262.41h-9.26c-.96,0-1.73.77-1.73,1.73v11.13c0,.96.77,1.73,1.73,1.73h.49v10.93c0,.77.62,1.39,1.39,1.39h5.44c.77,0,1.39-.62,1.39-1.39v-10.93h.55c.96,0,1.73-.77,1.73-1.73v-11.13c0-.96-.77-1.73-1.73-1.73Z" style="fill: #909194; stroke-width: 0px;" class="point mark chart scene" id="chart-230"></path>
    </g>
    <g>
      <circle cx="565.66" cy="255.98" r="4.6" style="fill: #909194; stroke-width: 0px;" class="point mark chart scene" id="chart-231"></circle>
      <path d="M570.35,262.41h-9.26c-.96,0-1.73.77-1.73,1.73v11.13c0,.96.77,1.73,1.73,1.73h.49v10.93c0,.77.62,1.39,1.39,1.39h5.44c.77,0,1.39-.62,1.39-1.39v-10.93h.55c.96,0,1.73-.77,1.73-1.73v-11.13c0-.96-.77-1.73-1.73-1.73Z" style="fill: #909194; stroke-width: 0px;" class="point mark chart scene" id="chart-232"></path>
    </g>
    <g>
      <circle cx="611.66" cy="255.98" r="4.6" style="fill: #909194; stroke-width: 0px;" class="point mark chart scene" id="chart-233"></circle>
      <path d="M616.35,262.41h-9.26c-.96,0-1.73.77-1.73,1.73v11.13c0,.96.77,1.73,1.73,1.73h.49v10.93c0,.77.62,1.39,1.39,1.39h5.44c.77,0,1.39-.62,1.39-1.39v-10.93h.55c.96,0,1.73-.77,1.73-1.73v-11.13c0-.96-.77-1.73-1.73-1.73Z" style="fill: #909194; stroke-width: 0px;" class="point mark chart scene" id="chart-234"></path>
    </g>
    <g>
      <circle cx="658.66" cy="255.98" r="4.6" style="fill: #909194; stroke-width: 0px;" class="point mark chart scene" id="chart-235"></circle>
      <path d="M663.35,262.41h-9.26c-.96,0-1.73.77-1.73,1.73v11.13c0,.96.77,1.73,1.73,1.73h.49v10.93c0,.77.62,1.39,1.39,1.39h5.44c.77,0,1.39-.62,1.39-1.39v-10.93h.55c.96,0,1.73-.77,1.73-1.73v-11.13c0-.96-.77-1.73-1.73-1.73Z" style="fill: #909194; stroke-width: 0px;" class="point mark chart scene" id="chart-236"></path>
    </g>
    <g>
      <circle cx="704.66" cy="255.98" r="4.6" style="fill: #909194; stroke-width: 0px;" class="point mark chart scene" id="chart-237"></circle>
      <path d="M709.35,262.41h-9.26c-.96,0-1.73.77-1.73,1.73v11.13c0,.96.77,1.73,1.73,1.73h.49v10.93c0,.77.62,1.39,1.39,1.39h5.44c.77,0,1.39-.62,1.39-1.39v-10.93h.55c.96,0,1.73-.77,1.73-1.73v-11.13c0-.96-.77-1.73-1.73-1.73Z" style="fill: #909194; stroke-width: 0px;" class="point mark chart scene" id="chart-238"></path>
    </g>
    <g>
      <circle cx="752.66" cy="255.98" r="4.6" style="fill: #909194; stroke-width: 0px;" class="point mark chart scene" id="chart-239"></circle>
      <path d="M757.35,262.41h-9.26c-.96,0-1.73.77-1.73,1.73v11.13c0,.96.77,1.73,1.73,1.73h.49v10.93c0,.77.62,1.39,1.39,1.39h5.44c.77,0,1.39-.62,1.39-1.39v-10.93h.55c.96,0,1.73-.77,1.73-1.73v-11.13c0-.96-.77-1.73-1.73-1.73Z" style="fill: #909194; stroke-width: 0px;" class="point mark chart scene" id="chart-240"></path>
    </g>
    <g>
      <circle cx="799.66" cy="255.98" r="4.6" style="fill: #909194; stroke-width: 0px;" class="point mark chart scene" id="chart-241"></circle>
      <path d="M804.35,262.41h-9.26c-.96,0-1.73.77-1.73,1.73v11.13c0,.96.77,1.73,1.73,1.73h.49v10.93c0,.77.62,1.39,1.39,1.39h5.44c.77,0,1.39-.62,1.39-1.39v-10.93h.55c.96,0,1.73-.77,1.73-1.73v-11.13c0-.96-.77-1.73-1.73-1.73Z" style="fill: #909194; stroke-width: 0px;" class="point mark chart scene" id="chart-242"></path>
    </g>
    <g>
      <circle cx="845.66" cy="255.98" r="4.6" style="fill: #909194; stroke-width: 0px;" class="point mark chart scene" id="chart-243"></circle>
      <path d="M850.35,262.41h-9.26c-.96,0-1.73.77-1.73,1.73v11.13c0,.96.77,1.73,1.73,1.73h.49v10.93c0,.77.62,1.39,1.39,1.39h5.44c.77,0,1.39-.62,1.39-1.39v-10.93h.55c.96,0,1.73-.77,1.73-1.73v-11.13c0-.96-.77-1.73-1.73-1.73Z" style="fill: #909194; stroke-width: 0px;" class="point mark chart scene" id="chart-244"></path>
    </g>
    <g>
      <circle cx="892.66" cy="255.98" r="4.6" style="fill: #909194; stroke-width: 0px;" class="point mark chart scene" id="chart-245"></circle>
      <path d="M897.35,262.41h-9.26c-.96,0-1.73.77-1.73,1.73v11.13c0,.96.77,1.73,1.73,1.73h.49v10.93c0,.77.62,1.39,1.39,1.39h5.44c.77,0,1.39-.62,1.39-1.39v-10.93h.55c.96,0,1.73-.77,1.73-1.73v-11.13c0-.96-.77-1.73-1.73-1.73Z" style="fill: #909194; stroke-width: 0px;" class="point mark chart scene" id="chart-246"></path>
    </g>
    <g>
      <circle cx="102.24" cy="209.24" r="4.6" style="fill: #909194; stroke-width: 0px;" class="point mark chart scene" id="chart-247"></circle>
      <path d="M106.94,215.67h-9.26c-.96,0-1.73.77-1.73,1.73v11.13c0,.96.77,1.73,1.73,1.73h.49v10.93c0,.77.62,1.39,1.39,1.39h5.44c.77,0,1.39-.62,1.39-1.39v-10.93h.55c.96,0,1.73-.77,1.73-1.73v-11.13c0-.96-.77-1.73-1.73-1.73Z" style="fill: #909194; stroke-width: 0px;" class="point mark chart scene" id="chart-248"></path>
    </g>
    <g>
      <circle cx="58.81" cy="209.24" r="4.6" style="fill: #e48b3d; stroke-width: 0px;" class="point mark chart scene" id="chart-249"></circle>
      <path d="M63.5,215.67h-9.26c-.96,0-1.73.77-1.73,1.73v11.13c0,.96.77,1.73,1.73,1.73h.49v10.93c0,.77.62,1.39,1.39,1.39h5.44c.77,0,1.39-.62,1.39-1.39v-10.93h.55c.96,0,1.73-.77,1.73-1.73v-11.13c0-.96-.77-1.73-1.73-1.73Z" style="fill: #e48b3d; stroke-width: 0px;" class="point mark chart scene" id="chart-250"></path>
    </g>
    <g>
      <circle cx="102.24" cy="255.98" r="4.6" style="fill: #909194; stroke-width: 0px;" class="point mark chart scene" id="chart-251"></circle>
      <path d="M106.94,262.41h-9.26c-.96,0-1.73.77-1.73,1.73v11.13c0,.96.77,1.73,1.73,1.73h.49v10.93c0,.77.62,1.39,1.39,1.39h5.44c.77,0,1.39-.62,1.39-1.39v-10.93h.55c.96,0,1.73-.77,1.73-1.73v-11.13c0-.96-.77-1.73-1.73-1.73Z" style="fill: #909194; stroke-width: 0px;" class="point mark chart scene" id="chart-252"></path>
    </g>
    <g>
      <circle cx="58.81" cy="255.98" r="4.6" style="fill: #909194; stroke-width: 0px;" class="point mark chart scene" id="chart-253"></circle>
      <path d="M63.5,262.41h-9.26c-.96,0-1.73.77-1.73,1.73v11.13c0,.96.77,1.73,1.73,1.73h.49v10.93c0,.77.62,1.39,1.39,1.39h5.44c.77,0,1.39-.62,1.39-1.39v-10.93h.55c.96,0,1.73-.77,1.73-1.73v-11.13c0-.96-.77-1.73-1.73-1.73Z" style="fill: #909194; stroke-width: 0px;" class="point mark chart scene" id="chart-254"></path>
    </g>
    <g>
      <circle cx="17.19" cy="117.87" r="4.6" style="fill: #909194; stroke-width: 0px;" class="point mark chart scene" id="chart-255"></circle>
      <path d="M21.89,124.31h-9.26c-.96,0-1.73.77-1.73,1.73v11.13c0,.96.77,1.73,1.73,1.73h.49v10.93c0,.77.62,1.39,1.39,1.39h5.44c.77,0,1.39-.62,1.39-1.39v-10.93h.55c.96,0,1.73-.77,1.73-1.73v-11.13c0-.96-.77-1.73-1.73-1.73Z" style="fill: #909194; stroke-width: 0px;" class="point mark chart scene" id="chart-256"></path>
    </g>
    <g>
      <circle cx="17.19" cy="70.66" r="4.6" style="fill: #909194; stroke-width: 0px;" class="point mark chart scene" id="chart-257"></circle>
      <path d="M21.89,77.09h-9.26c-.96,0-1.73.77-1.73,1.73v11.13c0,.96.77,1.73,1.73,1.73h.49v10.93c0,.77.62,1.39,1.39,1.39h5.44c.77,0,1.39-.62,1.39-1.39v-10.93h.55c.96,0,1.73-.77,1.73-1.73v-11.13c0-.96-.77-1.73-1.73-1.73Z" style="fill: #909194; stroke-width: 0px;" class="point mark chart scene" id="chart-258"></path>
    </g>
    <g>
      <circle cx="17.19" cy="164.93" r="4.6" style="fill: #909194; stroke-width: 0px;" class="point mark chart scene" id="chart-259"></circle>
      <path d="M21.89,171.37h-9.26c-.96,0-1.73.77-1.73,1.73v11.13c0,.96.77,1.73,1.73,1.73h.49v10.93c0,.77.62,1.39,1.39,1.39h5.44c.77,0,1.39-.62,1.39-1.39v-10.93h.55c.96,0,1.73-.77,1.73-1.73v-11.13c0-.96-.77-1.73-1.73-1.73Z" style="fill: #909194; stroke-width: 0px;" class="point mark chart scene" id="chart-260"></path>
    </g>
    <g>
      <circle cx="17.19" cy="209.24" r="4.6" style="fill: #e48b3d; stroke-width: 0px;" class="point mark chart scene" id="chart-261"></circle>
      <path d="M21.89,215.67h-9.26c-.96,0-1.73.77-1.73,1.73v11.13c0,.96.77,1.73,1.73,1.73h.49v10.93c0,.77.62,1.39,1.39,1.39h5.44c.77,0,1.39-.62,1.39-1.39v-10.93h.55c.96,0,1.73-.77,1.73-1.73v-11.13c0-.96-.77-1.73-1.73-1.73Z" style="fill: #e48b3d; stroke-width: 0px;" class="point mark chart scene" id="chart-262"></path>
    </g>
    <g>
      <circle cx="17.19" cy="255.98" r="4.6" style="fill: #909194; stroke-width: 0px;" class="point mark chart scene" id="chart-263"></circle>
      <path d="M21.89,262.41h-9.26c-.96,0-1.73.77-1.73,1.73v11.13c0,.96.77,1.73,1.73,1.73h.49v10.93c0,.77.62,1.39,1.39,1.39h5.44c.77,0,1.39-.62,1.39-1.39v-10.93h.55c.96,0,1.73-.77,1.73-1.73v-11.13c0-.96-.77-1.73-1.73-1.73Z" style="fill: #909194; stroke-width: 0px;" class="point mark chart scene" id="chart-264"></path>
    </g>
  </g>
</svg>