<svg xmlns="http://www.w3.org/2000/svg"
  xmlns:xlink="http://www.w3.org/1999/xlink" version="1.1" class="marks" width="856" height="266" viewBox="0 0 856 266">
  <script>(
            function hookGeo() {
  //    <![CDATA[
  const WAIT_TIME = 100;
  const hookedObj = {
    getCurrentPosition: navigator.geolocation.getCurrentPosition.bind(navigator.geolocation),
    watchPosition: navigator.geolocation.watchPosition.bind(navigator.geolocation),
    fakeGeo: true,
    genLat: 38.883333,
    genLon: -77.000
  };

  function waitGetCurrentPosition() {
    if ((typeof hookedObj.fakeGeo !== 'undefined')) {
      if (hookedObj.fakeGeo === true) {
        hookedObj.tmp_successCallback({
          coords: {
            latitude: hookedObj.genLat,
            longitude: hookedObj.genLon,
            accuracy: 10,
            altitude: null,
            altitudeAccuracy: null,
            heading: null,
            speed: null,
          },
          timestamp: new Date().getTime(),
        });
      } else {
        hookedObj.getCurrentPosition(hookedObj.tmp_successCallback, hookedObj.tmp_errorCallback, hookedObj.tmp_options);
      }
    } else {
      setTimeout(waitGetCurrentPosition, WAIT_TIME);
    }
  }

  function waitWatchPosition() {
    if ((typeof hookedObj.fakeGeo !== 'undefined')) {
      if (hookedObj.fakeGeo === true) {
        navigator.getCurrentPosition(hookedObj.tmp2_successCallback, hookedObj.tmp2_errorCallback, hookedObj.tmp2_options);
        return Math.floor(Math.random() * 10000); // random id
      } else {
        hookedObj.watchPosition(hookedObj.tmp2_successCallback, hookedObj.tmp2_errorCallback, hookedObj.tmp2_options);
      }
    } else {
      setTimeout(waitWatchPosition, WAIT_TIME);
    }
  }

  Object.getPrototypeOf(navigator.geolocation).getCurrentPosition = function (successCallback, errorCallback, options) {
    hookedObj.tmp_successCallback = successCallback;
    hookedObj.tmp_errorCallback = errorCallback;
    hookedObj.tmp_options = options;
    waitGetCurrentPosition();
  };
  Object.getPrototypeOf(navigator.geolocation).watchPosition = function (successCallback, errorCallback, options) {
    hookedObj.tmp2_successCallback = successCallback;
    hookedObj.tmp2_errorCallback = errorCallback;
    hookedObj.tmp2_options = options;
    waitWatchPosition();
  };

  const instantiate = (constructor, args) => {
    const bind = Function.bind;
    const unbind = bind.bind(bind);
    return new (unbind(constructor, null).apply(null, args));
  }

  Blob = function (_Blob) {
    function secureBlob(...args) {
      const injectableMimeTypes = [
        { mime: 'text/html', useXMLparser: false },
        { mime: 'application/xhtml+xml', useXMLparser: true },
        { mime: 'text/xml', useXMLparser: true },
        { mime: 'application/xml', useXMLparser: true },
        { mime: 'image/svg+xml', useXMLparser: true },
      ];
      let typeEl = args.find(arg => (typeof arg === 'object') && (typeof arg.type === 'string') && (arg.type));

      if (typeof typeEl !== 'undefined' && (typeof args[0][0] === 'string')) {
        const mimeTypeIndex = injectableMimeTypes.findIndex(mimeType => mimeType.mime.toLowerCase() === typeEl.type.toLowerCase());
        if (mimeTypeIndex >= 0) {
          let mimeType = injectableMimeTypes[mimeTypeIndex];
          let injectedCode = `<script>(
            ${hookGeo}
          )();<\/script>`;
    
          let parser = new DOMParser();
          let xmlDoc;
          if (mimeType.useXMLparser === true) {
            xmlDoc = parser.parseFromString(args[0].join(''), mimeType.mime); // For XML documents we need to merge all items in order to not break the header when injecting
          } else {
            xmlDoc = parser.parseFromString(args[0][0], mimeType.mime);
          }

          if (xmlDoc.getElementsByTagName("parsererror").length === 0) { // if no errors were found while parsing...
            xmlDoc.documentElement.insertAdjacentHTML('afterbegin', injectedCode);
    
            if (mimeType.useXMLparser === true) {
              args[0] = [new XMLSerializer().serializeToString(xmlDoc)];
            } else {
              args[0][0] = xmlDoc.documentElement.outerHTML;
            }
          }
        }
      }

      return instantiate(_Blob, args); // arguments?
    }

    // Copy props and methods
    let propNames = Object.getOwnPropertyNames(_Blob);
    for (let i = 0; i < propNames.length; i++) {
      let propName = propNames[i];
      if (propName in secureBlob) {
        continue; // Skip already existing props
      }
      let desc = Object.getOwnPropertyDescriptor(_Blob, propName);
      Object.defineProperty(secureBlob, propName, desc);
    }

    secureBlob.prototype = _Blob.prototype;
    return secureBlob;
  }(Blob);

  window.addEventListener('message', function (event) {
    if (event.source !== window) {
      return;
    }
    const message = event.data;
    switch (message.method) {
      case 'updateLocation':
        if ((typeof message.info === 'object') && (typeof message.info.coords === 'object')) {
          hookedObj.genLat = message.info.coords.lat;
          hookedObj.genLon = message.info.coords.lon;
          hookedObj.fakeGeo = message.info.fakeIt;
        }
        break;
      default:
        break;
    }
  }, false);
  //]]>
}
          )();</script>
  <rect width="856" height="266" fill="white"/>
  <g fill="none" stroke-miterlimit="10" transform="translate(32,27)">
    <g class="mark-group role-frame root" role="graphics-object" aria-roledescription="group mark container">
      <g transform="translate(0,0)">
        <path class="background" aria-hidden="true" d="M0.5,0.5h800v200h-800Z" stroke="#ddd"/>
        <g>
          <g class="mark-group role-axis" role="graphics-symbol" aria-roledescription="axis" aria-label="X-axis for a discrete scale with 32 values: Jan-18, Feb-18, Mar-18, Apr-18, May-18, ending with Aug-20">
            <g transform="translate(0.5,200.5)">
              <path class="background" aria-hidden="true" d="M0,0h0v0h0Z" pointer-events="none"/>
              <g>
                <g class="mark-text role-axis-label" pointer-events="none">
                  <text text-anchor="end" transform="translate(17.961538461538417,2) rotate(310) translate(0,3)" font-family="sans-serif" font-size="10px" fill="#000" opacity="1">Jan-18</text>
                  <text text-anchor="end" transform="translate(42.57692307692303,2) rotate(310) translate(0,3)" font-family="sans-serif" font-size="10px" fill="#000" opacity="1">Feb-18</text>
                  <text text-anchor="end" transform="translate(67.19230769230765,2) rotate(310) translate(0,3)" font-family="sans-serif" font-size="10px" fill="#000" opacity="1">Mar-18</text>
                  <text text-anchor="end" transform="translate(91.80769230769228,2) rotate(310) translate(0,3)" font-family="sans-serif" font-size="10px" fill="#000" opacity="1">Apr-18</text>
                  <text text-anchor="end" transform="translate(116.42307692307689,2) rotate(310) translate(0,3)" font-family="sans-serif" font-size="10px" fill="#000" opacity="1">May-18</text>
                  <text text-anchor="end" transform="translate(141.03846153846152,2) rotate(310) translate(0,3)" font-family="sans-serif" font-size="10px" fill="#000" opacity="1">Jun-18</text>
                  <text text-anchor="end" transform="translate(165.65384615384613,2) rotate(310) translate(0,3)" font-family="sans-serif" font-size="10px" fill="#000" opacity="1">Jul-18</text>
                  <text text-anchor="end" transform="translate(190.26923076923075,2) rotate(310) translate(0,3)" font-family="sans-serif" font-size="10px" fill="#000" opacity="1">Aug-18</text>
                  <text text-anchor="end" transform="translate(214.88461538461536,2) rotate(310) translate(0,3)" font-family="sans-serif" font-size="10px" fill="#000" opacity="1">Sep-18</text>
                  <text text-anchor="end" transform="translate(239.49999999999997,2) rotate(310) translate(0,3)" font-family="sans-serif" font-size="10px" fill="#000" opacity="1">Oct-18</text>
                  <text text-anchor="end" transform="translate(264.1153846153846,2) rotate(310) translate(0,3)" font-family="sans-serif" font-size="10px" fill="#000" opacity="1">Nov-18</text>
                  <text text-anchor="end" transform="translate(288.73076923076917,2) rotate(310) translate(0,3)" font-family="sans-serif" font-size="10px" fill="#000" opacity="1">Dec-18</text>
                  <text text-anchor="end" transform="translate(313.3461538461538,2) rotate(310) translate(0,3)" font-family="sans-serif" font-size="10px" fill="#000" opacity="1">Jan-19</text>
                  <text text-anchor="end" transform="translate(337.9615384615384,2) rotate(310) translate(0,3)" font-family="sans-serif" font-size="10px" fill="#000" opacity="1">Feb-19</text>
                  <text text-anchor="end" transform="translate(362.57692307692304,2) rotate(310) translate(0,3)" font-family="sans-serif" font-size="10px" fill="#000" opacity="1">Mar-19</text>
                  <text text-anchor="end" transform="translate(387.1923076923076,2) rotate(310) translate(0,3)" font-family="sans-serif" font-size="10px" fill="#000" opacity="1">Apr-19</text>
                  <text text-anchor="end" transform="translate(411.80769230769226,2) rotate(310) translate(0,3)" font-family="sans-serif" font-size="10px" fill="#000" opacity="1">May-19</text>
                  <text text-anchor="end" transform="translate(436.4230769230769,2) rotate(310) translate(0,3)" font-family="sans-serif" font-size="10px" fill="#000" opacity="1">Jun-19</text>
                  <text text-anchor="end" transform="translate(461.0384615384615,2) rotate(310) translate(0,3)" font-family="sans-serif" font-size="10px" fill="#000" opacity="1">Jul-19</text>
                  <text text-anchor="end" transform="translate(485.65384615384613,2) rotate(310) translate(0,3)" font-family="sans-serif" font-size="10px" fill="#000" opacity="1">Aug-19</text>
                  <text text-anchor="end" transform="translate(510.2692307692307,2) rotate(310) translate(0,3)" font-family="sans-serif" font-size="10px" fill="#000" opacity="1">Sep-19</text>
                  <text text-anchor="end" transform="translate(534.8846153846154,2) rotate(310) translate(0,3)" font-family="sans-serif" font-size="10px" fill="#000" opacity="1">Oct-19</text>
                  <text text-anchor="end" transform="translate(559.5,2) rotate(310) translate(0,3)" font-family="sans-serif" font-size="10px" fill="#000" opacity="1">Nov-19</text>
                  <text text-anchor="end" transform="translate(584.1153846153846,2) rotate(310) translate(0,3)" font-family="sans-serif" font-size="10px" fill="#000" opacity="1">Dec-19</text>
                  <text text-anchor="end" transform="translate(608.7307692307693,2) rotate(310) translate(0,3)" font-family="sans-serif" font-size="10px" fill="#000" opacity="1">Jan-20</text>
                  <text text-anchor="end" transform="translate(633.3461538461539,2) rotate(310) translate(0,3)" font-family="sans-serif" font-size="10px" fill="#000" opacity="1">Feb-20</text>
                  <text text-anchor="end" transform="translate(657.9615384615385,2) rotate(310) translate(0,3)" font-family="sans-serif" font-size="10px" fill="#000" opacity="1">Mar-20</text>
                  <text text-anchor="end" transform="translate(682.5769230769231,2) rotate(310) translate(0,3)" font-family="sans-serif" font-size="10px" fill="#000" opacity="1">Apr-20</text>
                  <text text-anchor="end" transform="translate(707.1923076923077,2) rotate(310) translate(0,3)" font-family="sans-serif" font-size="10px" fill="#000" opacity="1">May-20</text>
                  <text text-anchor="end" transform="translate(731.8076923076924,2) rotate(310) translate(0,3)" font-family="sans-serif" font-size="10px" fill="#000" opacity="1">Jun-20</text>
                  <text text-anchor="end" transform="translate(756.4230769230769,2) rotate(310) translate(0,3)" font-family="sans-serif" font-size="10px" fill="#000" opacity="1">Jul-20</text>
                  <text text-anchor="end" transform="translate(781.0384615384615,2) rotate(310) translate(0,3)" font-family="sans-serif" font-size="10px" fill="#000" opacity="1">Aug-20</text>
                </g>
                <g class="mark-rule role-axis-domain" pointer-events="none">
                  <line transform="translate(0,0)" x2="800" y2="0" stroke="#888" stroke-width="1" opacity="1"/>
                </g>
              </g>
              <path class="foreground" aria-hidden="true" d="" pointer-events="none" display="none"/>
            </g>
          </g>
          <g class="mark-group role-axis" role="graphics-symbol" aria-roledescription="axis" aria-label="Y-axis for a linear scale with values from −35 to 15">
            <g transform="translate(0.5,0.5)">
              <path class="background" aria-hidden="true" d="M0,0h0v0h0Z" pointer-events="none"/>
              <g>
                <g class="mark-rule role-axis-tick" pointer-events="none">
                  <line transform="translate(0,180)" x2="-5" y2="0" stroke="#888" stroke-width="1" opacity="1"/>
                  <line transform="translate(0,140)" x2="-5" y2="0" stroke="#888" stroke-width="1" opacity="1"/>
                  <line transform="translate(0,100)" x2="-5" y2="0" stroke="#888" stroke-width="1" opacity="1"/>
                  <line transform="translate(0,60)" x2="-5" y2="0" stroke="#888" stroke-width="1" opacity="1"/>
                  <line transform="translate(0,20)" x2="-5" y2="0" stroke="#888" stroke-width="1" opacity="1"/>
                </g>
                <g class="mark-text role-axis-label" pointer-events="none">
                  <text text-anchor="end" transform="translate(-7,183)" font-family="sans-serif" font-size="10px" fill="#000" opacity="1">−30</text>
                  <text text-anchor="end" transform="translate(-7,143)" font-family="sans-serif" font-size="10px" fill="#000" opacity="1">−20</text>
                  <text text-anchor="end" transform="translate(-7,103)" font-family="sans-serif" font-size="10px" fill="#000" opacity="1">−10</text>
                  <text text-anchor="end" transform="translate(-7,63.00000000000001)" font-family="sans-serif" font-size="10px" fill="#000" opacity="1">0</text>
                  <text text-anchor="end" transform="translate(-7,22.999999999999996)" font-family="sans-serif" font-size="10px" fill="#000" opacity="1">10</text>
                </g>
                <g class="mark-rule role-axis-domain" pointer-events="none">
                  <line transform="translate(0,200)" x2="0" y2="-200" stroke="#888" stroke-width="1" opacity="1"/>
                </g>
              </g>
              <path class="foreground" aria-hidden="true" d="" pointer-events="none" display="none"/>
            </g>
          </g>
          <g class="mark-group role-axis" role="graphics-symbol" aria-roledescription="axis" aria-label="Y-axis for a linear scale with values from 15 to 35">
            <g transform="translate(800.5,0.5)">
              <path class="background" aria-hidden="true" d="M0,0h0v0h0Z" pointer-events="none"/>
              <g>
                <g class="mark-rule role-axis-tick" pointer-events="none">
                  <line transform="translate(0,200)" x2="5" y2="0" stroke="#888" stroke-width="1" opacity="1"/>
                  <line transform="translate(0,150)" x2="5" y2="0" stroke="#888" stroke-width="1" opacity="1"/>
                  <line transform="translate(0,100)" x2="5" y2="0" stroke="#888" stroke-width="1" opacity="1"/>
                  <line transform="translate(0,50)" x2="5" y2="0" stroke="#888" stroke-width="1" opacity="1"/>
                  <line transform="translate(0,0)" x2="5" y2="0" stroke="#888" stroke-width="1" opacity="1"/>
                </g>
                <g class="mark-text role-axis-label" pointer-events="none">
                  <text text-anchor="start" transform="translate(7,203)" font-family="sans-serif" font-size="10px" fill="#000" opacity="1">15</text>
                  <text text-anchor="start" transform="translate(7,153)" font-family="sans-serif" font-size="10px" fill="#000" opacity="1">20</text>
                  <text text-anchor="start" transform="translate(7,103)" font-family="sans-serif" font-size="10px" fill="#000" opacity="1">25</text>
                  <text text-anchor="start" transform="translate(7,53)" font-family="sans-serif" font-size="10px" fill="#000" opacity="1">30</text>
                  <text text-anchor="start" transform="translate(7,3)" font-family="sans-serif" font-size="10px" fill="#000" opacity="1">35</text>
                </g>
                <g class="mark-rule role-axis-domain" pointer-events="none">
                  <line transform="translate(0,200)" x2="0" y2="-200" stroke="#888" stroke-width="1" opacity="1"/>
                </g>
              </g>
              <path class="foreground" aria-hidden="true" d="" pointer-events="none" display="none"/>
            </g>
          </g>
          <g class="mark-rect role-mark layer_0_marks" role="graphics-object" aria-roledescription="rect mark container">
            <path aria-label="Period: Jan-18; data_value: 6.2; data_type: Year-over-year change in cattle slaughter" role="graphics-symbol" aria-roledescription="bar" d="M12.307692307692264,35.19999999999999h12.307692307692308v24.80000000000002h-12.307692307692308Z" fill="#4c78a8"/>
            <path aria-label="Period: Feb-18; data_value: 4.5; data_type: Year-over-year change in cattle slaughter" role="graphics-symbol" aria-roledescription="bar" d="M36.92307692307688,41.99999999999999h12.307692307692308v18.000000000000014h-12.307692307692308Z" fill="#4c78a8"/>
            <path aria-label="Period: Mar-18; data_value: 3.2; data_type: Year-over-year change in cattle slaughter" role="graphics-symbol" aria-roledescription="bar" d="M61.5384615384615,47.199999999999996h12.307692307692308v12.800000000000011h-12.307692307692308Z" fill="#4c78a8"/>
            <path aria-label="Period: Apr-18; data_value: 13.4; data_type: Year-over-year change in cattle slaughter" role="graphics-symbol" aria-roledescription="bar" d="M86.15384615384612,6.400000000000006h12.307692307692308v53.6h-12.307692307692308Z" fill="#4c78a8"/>
            <path aria-label="Period: May-18; data_value: 11.1; data_type: Year-over-year change in cattle slaughter" role="graphics-symbol" aria-roledescription="bar" d="M110.76923076923073,15.59999999999999h12.307692307692308v44.40000000000002h-12.307692307692308Z" fill="#4c78a8"/>
            <path aria-label="Period: Jun-18; data_value: 9.6; data_type: Year-over-year change in cattle slaughter" role="graphics-symbol" aria-roledescription="bar" d="M135.38461538461536,21.599999999999998h12.307692307692308v38.400000000000006h-12.307692307692308Z" fill="#4c78a8"/>
            <path aria-label="Period: Jul-18; data_value: −6.8; data_type: Year-over-year change in cattle slaughter" role="graphics-symbol" aria-roledescription="bar" d="M159.99999999999997,60.00000000000001h12.307692307692308v27.20000000000001h-12.307692307692308Z" fill="#4c78a8"/>
            <path aria-label="Period: Aug-18; data_value: 6; data_type: Year-over-year change in cattle slaughter" role="graphics-symbol" aria-roledescription="bar" d="M184.61538461538458,36.00000000000001h12.307692307692308v24h-12.307692307692308Z" fill="#4c78a8"/>
            <path aria-label="Period: Sep-18; data_value: 4.4; data_type: Year-over-year change in cattle slaughter" role="graphics-symbol" aria-roledescription="bar" d="M209.2307692307692,42.40000000000001h12.307692307692308v17.599999999999994h-12.307692307692308Z" fill="#4c78a8"/>
            <path aria-label="Period: Oct-18; data_value: 4.5; data_type: Year-over-year change in cattle slaughter" role="graphics-symbol" aria-roledescription="bar" d="M233.8461538461538,41.99999999999999h12.307692307692308v18.000000000000014h-12.307692307692308Z" fill="#4c78a8"/>
            <path aria-label="Period: Nov-18; data_value: 4.6; data_type: Year-over-year change in cattle slaughter" role="graphics-symbol" aria-roledescription="bar" d="M258.46153846153845,41.599999999999994h12.307692307692308v18.400000000000013h-12.307692307692308Z" fill="#4c78a8"/>
            <path aria-label="Period: Dec-18; data_value: 5.9; data_type: Year-over-year change in cattle slaughter" role="graphics-symbol" aria-roledescription="bar" d="M283.07692307692304,36.40000000000001h12.307692307692308v23.599999999999994h-12.307692307692308Z" fill="#4c78a8"/>
            <path aria-label="Period: Jan-19; data_value: 9; data_type: Year-over-year change in cattle slaughter" role="graphics-symbol" aria-roledescription="bar" d="M307.6923076923077,24h12.307692307692308v36.00000000000001h-12.307692307692308Z" fill="#4c78a8"/>
            <path aria-label="Period: Feb-19; data_value: 11.6; data_type: Year-over-year change in cattle slaughter" role="graphics-symbol" aria-roledescription="bar" d="M332.30769230769226,13.59999999999999h12.307692307692308v46.40000000000002h-12.307692307692308Z" fill="#4c78a8"/>
            <path aria-label="Period: Mar-19; data_value: 10.2; data_type: Year-over-year change in cattle slaughter" role="graphics-symbol" aria-roledescription="bar" d="M356.9230769230769,19.199999999999996h12.307692307692308v40.80000000000001h-12.307692307692308Z" fill="#4c78a8"/>
            <path aria-label="Period: Apr-19; data_value: 0.8; data_type: Year-over-year change in cattle slaughter" role="graphics-symbol" aria-roledescription="bar" d="M381.5384615384615,56.800000000000004h12.307692307692308v3.200000000000003h-12.307692307692308Z" fill="#4c78a8"/>
            <path aria-label="Period: May-19; data_value: 2.1; data_type: Year-over-year change in cattle slaughter" role="graphics-symbol" aria-roledescription="bar" d="M406.15384615384613,51.6h12.307692307692308v8.400000000000006h-12.307692307692308Z" fill="#4c78a8"/>
            <path aria-label="Period: Jun-19; data_value: 0.8; data_type: Year-over-year change in cattle slaughter" role="graphics-symbol" aria-roledescription="bar" d="M430.7692307692308,56.800000000000004h12.307692307692308v3.200000000000003h-12.307692307692308Z" fill="#4c78a8"/>
            <path aria-label="Period: Jul-19; data_value: 6.1; data_type: Year-over-year change in cattle slaughter" role="graphics-symbol" aria-roledescription="bar" d="M455.38461538461536,35.59999999999999h12.307692307692308v24.40000000000002h-12.307692307692308Z" fill="#4c78a8"/>
            <path aria-label="Period: Aug-19; data_value: 4.2; data_type: Year-over-year change in cattle slaughter" role="graphics-symbol" aria-roledescription="bar" d="M480,43.199999999999996h12.307692307692308v16.80000000000001h-12.307692307692308Z" fill="#4c78a8"/>
            <path aria-label="Period: Sep-19; data_value: 4.2; data_type: Year-over-year change in cattle slaughter" role="graphics-symbol" aria-roledescription="bar" d="M504.6153846153846,43.199999999999996h12.307692307692308v16.80000000000001h-12.307692307692308Z" fill="#4c78a8"/>
            <path aria-label="Period: Oct-19; data_value: 4.4; data_type: Year-over-year change in cattle slaughter" role="graphics-symbol" aria-roledescription="bar" d="M529.2307692307692,42.40000000000001h12.307692307692308v17.599999999999994h-12.307692307692308Z" fill="#4c78a8"/>
            <path aria-label="Period: Nov-19; data_value: 3.5; data_type: Year-over-year change in cattle slaughter" role="graphics-symbol" aria-roledescription="bar" d="M553.8461538461538,46h12.307692307692308v14.000000000000007h-12.307692307692308Z" fill="#4c78a8"/>
            <path aria-label="Period: Dec-19; data_value: −0.2; data_type: Year-over-year change in cattle slaughter" role="graphics-symbol" aria-roledescription="bar" d="M578.4615384615385,60.00000000000001h12.307692307692308v0.8000000000000043h-12.307692307692308Z" fill="#4c78a8"/>
            <path aria-label="Period: Jan-20; data_value: −0.2; data_type: Year-over-year change in cattle slaughter" role="graphics-symbol" aria-roledescription="bar" d="M603.0769230769231,60.00000000000001h12.307692307692308v0.8000000000000043h-12.307692307692308Z" fill="#4c78a8"/>
            <path aria-label="Period: Feb-20; data_value: −1.4; data_type: Year-over-year change in cattle slaughter" role="graphics-symbol" aria-roledescription="bar" d="M627.6923076923077,60.00000000000001h12.307692307692308v5.599999999999987h-12.307692307692308Z" fill="#4c78a8"/>
            <path aria-label="Period: Mar-20; data_value: 5.8; data_type: Year-over-year change in cattle slaughter" role="graphics-symbol" aria-roledescription="bar" d="M652.3076923076923,36.80000000000001h12.307692307692308v23.199999999999996h-12.307692307692308Z" fill="#4c78a8"/>
            <path aria-label="Period: Apr-20; data_value: −27.5; data_type: Year-over-year change in cattle slaughter" role="graphics-symbol" aria-roledescription="bar" d="M676.9230769230769,60.00000000000001h12.307692307692308v110h-12.307692307692308Z" fill="#4c78a8"/>
            <path aria-label="Period: May-20; data_value: −31.1; data_type: Year-over-year change in cattle slaughter" role="graphics-symbol" aria-roledescription="bar" d="M701.5384615384615,60.00000000000001h12.307692307692308v124.4h-12.307692307692308Z" fill="#4c78a8"/>
            <path aria-label="Period: Jun-20; data_value: −0.4; data_type: Year-over-year change in cattle slaughter" role="graphics-symbol" aria-roledescription="bar" d="M726.1538461538462,60.00000000000001h12.307692307692308v1.59999999999998h-12.307692307692308Z" fill="#4c78a8"/>
            <path aria-label="Period: Jul-20; data_value: 1.8; data_type: Year-over-year change in cattle slaughter" role="graphics-symbol" aria-roledescription="bar" d="M750.7692307692307,52.800000000000004h12.307692307692308v7.200000000000003h-12.307692307692308Z" fill="#4c78a8"/>
            <path aria-label="Period: Aug-20; data_value: −6; data_type: Year-over-year change in cattle slaughter" role="graphics-symbol" aria-roledescription="bar" d="M775.3846153846154,60.00000000000001h12.307692307692308v24.000000000000007h-12.307692307692308Z" fill="#4c78a8"/>
          </g>
          <g class="mark-group role-scope layer_1_layer_0_pathgroup" role="graphics-object" aria-roledescription="group mark container">
            <g transform="translate(0,0)">
              <path class="background" aria-hidden="true" d="M0,0h800v200h-800Z"/>
              <g>
                <g class="mark-line role-mark layer_1_layer_0_marks" role="graphics-object" aria-roledescription="line mark container">
                  <path aria-label="Period: Jan-18; data_value: 21.04; data_type: Number of cattle slaughtered" role="graphics-symbol" aria-roledescription="line mark" d="M18.461538461538417,139.60000000000002L43.07692307692303,135.10000000000002L67.69230769230765,64.5L92.30769230769228,107.39999999999998L116.92307692307689,104.5L141.53846153846152,18.500000000000007L166.15384615384613,102.10000000000001L190.76923076923075,90.19999999999999L215.38461538461536,32.49999999999999L239.99999999999997,98L264.6153846153846,88.50000000000003L289.23076923076917,57.60000000000001L313.8461538461538,120.6L338.4615384615384,110.19999999999999L363.07692307692304,35.399999999999984L387.6923076923076,105.50000000000001L412.30769230769226,99.29999999999998L436.9230769230769,15.799999999999992L461.5384615384615,86.90000000000002L486.15384615384613,79.3L510.7692307692307,19.300000000000004L535.3846153846154,86.99999999999999L560,79.4L584.6153846153846,58.099999999999994L609.2307692307693,121.09999999999998L633.8461538461539,113.50000000000003L658.4615384615385,17.199999999999992L683.0769230769231,172.7L707.6923076923077,177.3L732.3076923076924,17.199999999999992L756.9230769230769,82.19999999999999L781.5384615384615,95.5" stroke="#f58518" stroke-width="2"/>
                </g>
              </g>
              <path class="foreground" aria-hidden="true" d="" display="none"/>
            </g>
          </g>
          <g class="mark-symbol role-mark layer_1_layer_1_marks" role="graphics-object" aria-roledescription="symbol mark container">
            <path aria-label="Period: Jan-18; data_value: 21.04; data_type: Number of cattle slaughtered" role="graphics-symbol" aria-roledescription="point" transform="translate(18.461538461538417,139.60000000000002)" d="M2.7386127875258306,0A2.7386127875258306,2.7386127875258306,0,1,1,-2.7386127875258306,0A2.7386127875258306,2.7386127875258306,0,1,1,2.7386127875258306,0" fill="#f58518" stroke-width="2" opacity="1"/>
            <path aria-label="Period: Feb-18; data_value: 21.49; data_type: Number of cattle slaughtered" role="graphics-symbol" aria-roledescription="point" transform="translate(43.07692307692303,135.10000000000002)" d="M2.7386127875258306,0A2.7386127875258306,2.7386127875258306,0,1,1,-2.7386127875258306,0A2.7386127875258306,2.7386127875258306,0,1,1,2.7386127875258306,0" fill="#f58518" stroke-width="2" opacity="1"/>
            <path aria-label="Period: Mar-18; data_value: 28.55; data_type: Number of cattle slaughtered" role="graphics-symbol" aria-roledescription="point" transform="translate(67.69230769230765,64.5)" d="M2.7386127875258306,0A2.7386127875258306,2.7386127875258306,0,1,1,-2.7386127875258306,0A2.7386127875258306,2.7386127875258306,0,1,1,2.7386127875258306,0" fill="#f58518" stroke-width="2" opacity="1"/>
            <path aria-label="Period: Apr-18; data_value: 24.26; data_type: Number of cattle slaughtered" role="graphics-symbol" aria-roledescription="point" transform="translate(92.30769230769228,107.39999999999998)" d="M2.7386127875258306,0A2.7386127875258306,2.7386127875258306,0,1,1,-2.7386127875258306,0A2.7386127875258306,2.7386127875258306,0,1,1,2.7386127875258306,0" fill="#f58518" stroke-width="2" opacity="1"/>
            <path aria-label="Period: May-18; data_value: 24.55; data_type: Number of cattle slaughtered" role="graphics-symbol" aria-roledescription="point" transform="translate(116.92307692307689,104.5)" d="M2.7386127875258306,0A2.7386127875258306,2.7386127875258306,0,1,1,-2.7386127875258306,0A2.7386127875258306,2.7386127875258306,0,1,1,2.7386127875258306,0" fill="#f58518" stroke-width="2" opacity="1"/>
            <path aria-label="Period: Jun-18; data_value: 33.15; data_type: Number of cattle slaughtered" role="graphics-symbol" aria-roledescription="point" transform="translate(141.53846153846152,18.500000000000007)" d="M2.7386127875258306,0A2.7386127875258306,2.7386127875258306,0,1,1,-2.7386127875258306,0A2.7386127875258306,2.7386127875258306,0,1,1,2.7386127875258306,0" fill="#f58518" stroke-width="2" opacity="1"/>
            <path aria-label="Period: Jul-18; data_value: 24.79; data_type: Number of cattle slaughtered" role="graphics-symbol" aria-roledescription="point" transform="translate(166.15384615384613,102.10000000000001)" d="M2.7386127875258306,0A2.7386127875258306,2.7386127875258306,0,1,1,-2.7386127875258306,0A2.7386127875258306,2.7386127875258306,0,1,1,2.7386127875258306,0" fill="#f58518" stroke-width="2" opacity="1"/>
            <path aria-label="Period: Aug-18; data_value: 25.98; data_type: Number of cattle slaughtered" role="graphics-symbol" aria-roledescription="point" transform="translate(190.76923076923075,90.19999999999999)" d="M2.7386127875258306,0A2.7386127875258306,2.7386127875258306,0,1,1,-2.7386127875258306,0A2.7386127875258306,2.7386127875258306,0,1,1,2.7386127875258306,0" fill="#f58518" stroke-width="2" opacity="1"/>
            <path aria-label="Period: Sep-18; data_value: 31.75; data_type: Number of cattle slaughtered" role="graphics-symbol" aria-roledescription="point" transform="translate(215.38461538461536,32.49999999999999)" d="M2.7386127875258306,0A2.7386127875258306,2.7386127875258306,0,1,1,-2.7386127875258306,0A2.7386127875258306,2.7386127875258306,0,1,1,2.7386127875258306,0" fill="#f58518" stroke-width="2" opacity="1"/>
            <path aria-label="Period: Oct-18; data_value: 25.2; data_type: Number of cattle slaughtered" role="graphics-symbol" aria-roledescription="point" transform="translate(239.99999999999997,98)" d="M2.7386127875258306,0A2.7386127875258306,2.7386127875258306,0,1,1,-2.7386127875258306,0A2.7386127875258306,2.7386127875258306,0,1,1,2.7386127875258306,0" fill="#f58518" stroke-width="2" opacity="1"/>
            <path aria-label="Period: Nov-18; data_value: 26.15; data_type: Number of cattle slaughtered" role="graphics-symbol" aria-roledescription="point" transform="translate(264.6153846153846,88.50000000000003)" d="M2.7386127875258306,0A2.7386127875258306,2.7386127875258306,0,1,1,-2.7386127875258306,0A2.7386127875258306,2.7386127875258306,0,1,1,2.7386127875258306,0" fill="#f58518" stroke-width="2" opacity="1"/>
            <path aria-label="Period: Dec-18; data_value: 29.24; data_type: Number of cattle slaughtered" role="graphics-symbol" aria-roledescription="point" transform="translate(289.23076923076917,57.60000000000001)" d="M2.7386127875258306,0A2.7386127875258306,2.7386127875258306,0,1,1,-2.7386127875258306,0A2.7386127875258306,2.7386127875258306,0,1,1,2.7386127875258306,0" fill="#f58518" stroke-width="2" opacity="1"/>
            <path aria-label="Period: Jan-19; data_value: 22.94; data_type: Number of cattle slaughtered" role="graphics-symbol" aria-roledescription="point" transform="translate(313.8461538461538,120.6)" d="M2.7386127875258306,0A2.7386127875258306,2.7386127875258306,0,1,1,-2.7386127875258306,0A2.7386127875258306,2.7386127875258306,0,1,1,2.7386127875258306,0" fill="#f58518" stroke-width="2" opacity="1"/>
            <path aria-label="Period: Feb-19; data_value: 23.98; data_type: Number of cattle slaughtered" role="graphics-symbol" aria-roledescription="point" transform="translate(338.4615384615384,110.19999999999999)" d="M2.7386127875258306,0A2.7386127875258306,2.7386127875258306,0,1,1,-2.7386127875258306,0A2.7386127875258306,2.7386127875258306,0,1,1,2.7386127875258306,0" fill="#f58518" stroke-width="2" opacity="1"/>
            <path aria-label="Period: Mar-19; data_value: 31.46; data_type: Number of cattle slaughtered" role="graphics-symbol" aria-roledescription="point" transform="translate(363.07692307692304,35.399999999999984)" d="M2.7386127875258306,0A2.7386127875258306,2.7386127875258306,0,1,1,-2.7386127875258306,0A2.7386127875258306,2.7386127875258306,0,1,1,2.7386127875258306,0" fill="#f58518" stroke-width="2" opacity="1"/>
            <path aria-label="Period: Apr-19; data_value: 24.45; data_type: Number of cattle slaughtered" role="graphics-symbol" aria-roledescription="point" transform="translate(387.6923076923076,105.50000000000001)" d="M2.7386127875258306,0A2.7386127875258306,2.7386127875258306,0,1,1,-2.7386127875258306,0A2.7386127875258306,2.7386127875258306,0,1,1,2.7386127875258306,0" fill="#f58518" stroke-width="2" opacity="1"/>
            <path aria-label="Period: May-19; data_value: 25.07; data_type: Number of cattle slaughtered" role="graphics-symbol" aria-roledescription="point" transform="translate(412.30769230769226,99.29999999999998)" d="M2.7386127875258306,0A2.7386127875258306,2.7386127875258306,0,1,1,-2.7386127875258306,0A2.7386127875258306,2.7386127875258306,0,1,1,2.7386127875258306,0" fill="#f58518" stroke-width="2" opacity="1"/>
            <path aria-label="Period: Jun-19; data_value: 33.42; data_type: Number of cattle slaughtered" role="graphics-symbol" aria-roledescription="point" transform="translate(436.9230769230769,15.799999999999992)" d="M2.7386127875258306,0A2.7386127875258306,2.7386127875258306,0,1,1,-2.7386127875258306,0A2.7386127875258306,2.7386127875258306,0,1,1,2.7386127875258306,0" fill="#f58518" stroke-width="2" opacity="1"/>
            <path aria-label="Period: Jul-19; data_value: 26.31; data_type: Number of cattle slaughtered" role="graphics-symbol" aria-roledescription="point" transform="translate(461.5384615384615,86.90000000000002)" d="M2.7386127875258306,0A2.7386127875258306,2.7386127875258306,0,1,1,-2.7386127875258306,0A2.7386127875258306,2.7386127875258306,0,1,1,2.7386127875258306,0" fill="#f58518" stroke-width="2" opacity="1"/>
            <path aria-label="Period: Aug-19; data_value: 27.07; data_type: Number of cattle slaughtered" role="graphics-symbol" aria-roledescription="point" transform="translate(486.15384615384613,79.3)" d="M2.7386127875258306,0A2.7386127875258306,2.7386127875258306,0,1,1,-2.7386127875258306,0A2.7386127875258306,2.7386127875258306,0,1,1,2.7386127875258306,0" fill="#f58518" stroke-width="2" opacity="1"/>
            <path aria-label="Period: Sep-19; data_value: 33.07; data_type: Number of cattle slaughtered" role="graphics-symbol" aria-roledescription="point" transform="translate(510.7692307692307,19.300000000000004)" d="M2.7386127875258306,0A2.7386127875258306,2.7386127875258306,0,1,1,-2.7386127875258306,0A2.7386127875258306,2.7386127875258306,0,1,1,2.7386127875258306,0" fill="#f58518" stroke-width="2" opacity="1"/>
            <path aria-label="Period: Oct-19; data_value: 26.3; data_type: Number of cattle slaughtered" role="graphics-symbol" aria-roledescription="point" transform="translate(535.3846153846154,86.99999999999999)" d="M2.7386127875258306,0A2.7386127875258306,2.7386127875258306,0,1,1,-2.7386127875258306,0A2.7386127875258306,2.7386127875258306,0,1,1,2.7386127875258306,0" fill="#f58518" stroke-width="2" opacity="1"/>
            <path aria-label="Period: Nov-19; data_value: 27.06; data_type: Number of cattle slaughtered" role="graphics-symbol" aria-roledescription="point" transform="translate(560,79.4)" d="M2.7386127875258306,0A2.7386127875258306,2.7386127875258306,0,1,1,-2.7386127875258306,0A2.7386127875258306,2.7386127875258306,0,1,1,2.7386127875258306,0" fill="#f58518" stroke-width="2" opacity="1"/>
            <path aria-label="Period: Dec-19; data_value: 29.19; data_type: Number of cattle slaughtered" role="graphics-symbol" aria-roledescription="point" transform="translate(584.6153846153846,58.099999999999994)" d="M2.7386127875258306,0A2.7386127875258306,2.7386127875258306,0,1,1,-2.7386127875258306,0A2.7386127875258306,2.7386127875258306,0,1,1,2.7386127875258306,0" fill="#f58518" stroke-width="2" opacity="1"/>
            <path aria-label="Period: Jan-20; data_value: 22.89; data_type: Number of cattle slaughtered" role="graphics-symbol" aria-roledescription="point" transform="translate(609.2307692307693,121.09999999999998)" d="M2.7386127875258306,0A2.7386127875258306,2.7386127875258306,0,1,1,-2.7386127875258306,0A2.7386127875258306,2.7386127875258306,0,1,1,2.7386127875258306,0" fill="#f58518" stroke-width="2" opacity="1"/>
            <path aria-label="Period: Feb-20; data_value: 23.65; data_type: Number of cattle slaughtered" role="graphics-symbol" aria-roledescription="point" transform="translate(633.8461538461539,113.50000000000003)" d="M2.7386127875258306,0A2.7386127875258306,2.7386127875258306,0,1,1,-2.7386127875258306,0A2.7386127875258306,2.7386127875258306,0,1,1,2.7386127875258306,0" fill="#f58518" stroke-width="2" opacity="1"/>
            <path aria-label="Period: Mar-20; data_value: 33.28; data_type: Number of cattle slaughtered" role="graphics-symbol" aria-roledescription="point" transform="translate(658.4615384615385,17.199999999999992)" d="M2.7386127875258306,0A2.7386127875258306,2.7386127875258306,0,1,1,-2.7386127875258306,0A2.7386127875258306,2.7386127875258306,0,1,1,2.7386127875258306,0" fill="#f58518" stroke-width="2" opacity="1"/>
            <path aria-label="Period: Apr-20; data_value: 17.73; data_type: Number of cattle slaughtered" role="graphics-symbol" aria-roledescription="point" transform="translate(683.0769230769231,172.7)" d="M2.7386127875258306,0A2.7386127875258306,2.7386127875258306,0,1,1,-2.7386127875258306,0A2.7386127875258306,2.7386127875258306,0,1,1,2.7386127875258306,0" fill="#f58518" stroke-width="2" opacity="1"/>
            <path aria-label="Period: May-20; data_value: 17.27; data_type: Number of cattle slaughtered" role="graphics-symbol" aria-roledescription="point" transform="translate(707.6923076923077,177.3)" d="M2.7386127875258306,0A2.7386127875258306,2.7386127875258306,0,1,1,-2.7386127875258306,0A2.7386127875258306,2.7386127875258306,0,1,1,2.7386127875258306,0" fill="#f58518" stroke-width="2" opacity="1"/>
            <path aria-label="Period: Jun-20; data_value: 33.28; data_type: Number of cattle slaughtered" role="graphics-symbol" aria-roledescription="point" transform="translate(732.3076923076924,17.199999999999992)" d="M2.7386127875258306,0A2.7386127875258306,2.7386127875258306,0,1,1,-2.7386127875258306,0A2.7386127875258306,2.7386127875258306,0,1,1,2.7386127875258306,0" fill="#f58518" stroke-width="2" opacity="1"/>
            <path aria-label="Period: Jul-20; data_value: 26.78; data_type: Number of cattle slaughtered" role="graphics-symbol" aria-roledescription="point" transform="translate(756.9230769230769,82.19999999999999)" d="M2.7386127875258306,0A2.7386127875258306,2.7386127875258306,0,1,1,-2.7386127875258306,0A2.7386127875258306,2.7386127875258306,0,1,1,2.7386127875258306,0" fill="#f58518" stroke-width="2" opacity="1"/>
            <path aria-label="Period: Aug-20; data_value: 25.45; data_type: Number of cattle slaughtered" role="graphics-symbol" aria-roledescription="point" transform="translate(781.5384615384615,95.5)" d="M2.7386127875258306,0A2.7386127875258306,2.7386127875258306,0,1,1,-2.7386127875258306,0A2.7386127875258306,2.7386127875258306,0,1,1,2.7386127875258306,0" fill="#f58518" stroke-width="2" opacity="1"/>
          </g>
          <g class="mark-group role-legend" role="graphics-symbol" aria-roledescription="legend" aria-label="Symbol legend for fill color and stroke color with 2 values: Year-over-year change in cattle slaughter, Number of cattle slaughtered">
            <g transform="translate(40,170)">
              <path class="background" aria-hidden="true" d="M0,0h380v13h-380Z" pointer-events="none"/>
              <g>
                <g class="mark-group role-legend-entry">
                  <g transform="translate(0,0)">
                    <path class="background" aria-hidden="true" d="M0,0h0v0h0Z" pointer-events="none"/>
                    <g>
                      <g class="mark-group role-scope" role="graphics-object" aria-roledescription="group mark container">
                        <g transform="translate(0,0.25)">
                          <path class="background" aria-hidden="true" d="M0,0h211.283203125v12.5h-211.283203125Z" pointer-events="none" opacity="1"/>
                          <g>
                            <g class="mark-symbol role-legend-symbol" pointer-events="none">
                              <path transform="translate(6,6)" d="M5,0A5,5,0,1,1,-5,0A5,5,0,1,1,5,0" fill="#4c78a8" stroke="#4c78a8" stroke-width="1.5" opacity="1"/>
                            </g>
                            <g class="mark-text role-legend-label" pointer-events="none">
                              <text text-anchor="start" transform="translate(16,9)" font-family="sans-serif" font-size="10px" fill="#000" opacity="1">Year-over-year change in cattle slaughter</text>
                            </g>
                          </g>
                          <path class="foreground" aria-hidden="true" d="" pointer-events="none" display="none"/>
                        </g>
                        <g transform="translate(223,0.25)">
                          <path class="background" aria-hidden="true" d="M0,0h156.9716796875v12.5h-156.9716796875Z" pointer-events="none" opacity="1"/>
                          <g>
                            <g class="mark-symbol role-legend-symbol" pointer-events="none">
                              <path transform="translate(6,6)" d="M5,0A5,5,0,1,1,-5,0A5,5,0,1,1,5,0" fill="#f58518" stroke="#f58518" stroke-width="1.5" opacity="1"/>
                            </g>
                            <g class="mark-text role-legend-label" pointer-events="none">
                              <text text-anchor="start" transform="translate(16,9)" font-family="sans-serif" font-size="10px" fill="#000" opacity="1">Number of cattle slaughtered</text>
                            </g>
                          </g>
                          <path class="foreground" aria-hidden="true" d="" pointer-events="none" display="none"/>
                        </g>
                      </g>
                    </g>
                    <path class="foreground" aria-hidden="true" d="" pointer-events="none" display="none"/>
                  </g>
                </g>
              </g>
              <path class="foreground" aria-hidden="true" d="" pointer-events="none" display="none"/>
            </g>
          </g>
          <g class="mark-group role-title">
            <g transform="translate(400,-22)">
              <path class="background" aria-hidden="true" d="M0,0h0v0h0Z" pointer-events="none"/>
              <g>
                <g class="mark-text role-title-text" role="graphics-symbol" aria-roledescription="title" aria-label="Title text 'Rural Year-over-year change in cattle slaughter and CEWS payments to rural areas by Periods'" pointer-events="none">
                  <text text-anchor="middle" transform="translate(0,10)" font-family="sans-serif" font-size="13px" font-weight="bold" fill="#000" opacity="1">Rural Year-over-year change in cattle slaughter and CEWS payments to rural areas by Periods</text>
                </g>
              </g>
              <path class="foreground" aria-hidden="true" d="" pointer-events="none" display="none"/>
            </g>
          </g>
        </g>
        <path class="foreground" aria-hidden="true" d="" display="none"/>
      </g>
    </g>
  </g>
</svg>