<svg xmlns="http://www.w3.org/2000/svg"
    xmlns:xlink="http://www.w3.org/1999/xlink" version="1.1" class="marks" width="748" height="275" viewBox="0 0 748 275">
    <rect width="748" height="275" fill="white"/>
    <g fill="none" stroke-miterlimit="10" transform="translate(43,27)">
        <g class="mark-group role-frame root" role="graphics-object" aria-roledescription="group mark container">
            <g transform="translate(0,0)">
                <path class="background" aria-hidden="true" d="M0.5,0.5h700v200h-700Z" stroke="#ddd"/>
                <g>
                    <g class="mark-group role-axis" aria-hidden="true">
                        <g transform="translate(0.5,0.5)">
                            <path class="background" aria-hidden="true" d="M0,0h0v0h0Z" pointer-events="none"/>
                            <g>
                                <g class="mark-rule role-axis-grid" pointer-events="none">
                                    <line transform="translate(0,200)" x2="700" y2="0" stroke="#ddd" stroke-width="1" opacity="1"/>
                                    <line transform="translate(0,167)" x2="700" y2="0" stroke="#ddd" stroke-width="1" opacity="1"/>
                                    <line transform="translate(0,133)" x2="700" y2="0" stroke="#ddd" stroke-width="1" opacity="1"/>
                                    <line transform="translate(0,100)" x2="700" y2="0" stroke="#ddd" stroke-width="1" opacity="1"/>
                                    <line transform="translate(0,67)" x2="700" y2="0" stroke="#ddd" stroke-width="1" opacity="1"/>
                                    <line transform="translate(0,33)" x2="700" y2="0" stroke="#ddd" stroke-width="1" opacity="1"/>
                                    <line transform="translate(0,0)" x2="700" y2="0" stroke="#ddd" stroke-width="1" opacity="1"/>
                                </g>
                            </g>
                            <path class="foreground" aria-hidden="true" d="" pointer-events="none" display="none"/>
                        </g>
                    </g>
                    <g class="mark-group role-axis" role="graphics-symbol" aria-roledescription="axis" aria-label="X-axis for a discrete scale with 12 values: January, February, March, April, May, ending with December">
                        <g transform="translate(0.5,200.5)">
                            <path class="background" aria-hidden="true" d="M0,0h0v0h0Z" pointer-events="none"/>
                            <g>
                                <g class="mark-rule role-axis-tick" pointer-events="none">
                                    <line transform="translate(29,0)" x2="0" y2="5" stroke="#888" stroke-width="1" opacity="1"/>
                                    <line transform="translate(87,0)" x2="0" y2="5" stroke="#888" stroke-width="1" opacity="1"/>
                                    <line transform="translate(146,0)" x2="0" y2="5" stroke="#888" stroke-width="1" opacity="1"/>
                                    <line transform="translate(204,0)" x2="0" y2="5" stroke="#888" stroke-width="1" opacity="1"/>
                                    <line transform="translate(263,0)" x2="0" y2="5" stroke="#888" stroke-width="1" opacity="1"/>
                                    <line transform="translate(321,0)" x2="0" y2="5" stroke="#888" stroke-width="1" opacity="1"/>
                                    <line transform="translate(379,0)" x2="0" y2="5" stroke="#888" stroke-width="1" opacity="1"/>
                                    <line transform="translate(438,0)" x2="0" y2="5" stroke="#888" stroke-width="1" opacity="1"/>
                                    <line transform="translate(496,0)" x2="0" y2="5" stroke="#888" stroke-width="1" opacity="1"/>
                                    <line transform="translate(554,0)" x2="0" y2="5" stroke="#888" stroke-width="1" opacity="1"/>
                                    <line transform="translate(613,0)" x2="0" y2="5" stroke="#888" stroke-width="1" opacity="1"/>
                                    <line transform="translate(671,0)" x2="0" y2="5" stroke="#888" stroke-width="1" opacity="1"/>
                                </g>
                                <g class="mark-text role-axis-label" pointer-events="none">
                                    <text text-anchor="middle" transform="translate(29.16666666666663,15)" font-family="sans-serif" font-size="10px" fill="#000" opacity="1">January</text>
                                    <text text-anchor="middle" transform="translate(87.49999999999997,15)" font-family="sans-serif" font-size="10px" fill="#000" opacity="1">February</text>
                                    <text text-anchor="middle" transform="translate(145.83333333333331,15)" font-family="sans-serif" font-size="10px" fill="#000" opacity="1">March</text>
                                    <text text-anchor="middle" transform="translate(204.16666666666663,15)" font-family="sans-serif" font-size="10px" fill="#000" opacity="1">April</text>
                                    <text text-anchor="middle" transform="translate(262.5,15)" font-family="sans-serif" font-size="10px" fill="#000" opacity="1">May</text>
                                    <text text-anchor="middle" transform="translate(320.8333333333333,15)" font-family="sans-serif" font-size="10px" fill="#000" opacity="1">June</text>
                                    <text text-anchor="middle" transform="translate(379.16666666666663,15)" font-family="sans-serif" font-size="10px" fill="#000" opacity="1">July</text>
                                    <text text-anchor="middle" transform="translate(437.5,15)" font-family="sans-serif" font-size="10px" fill="#000" opacity="1">August</text>
                                    <text text-anchor="middle" transform="translate(495.8333333333333,15)" font-family="sans-serif" font-size="10px" fill="#000" opacity="1">September</text>
                                    <text text-anchor="middle" transform="translate(554.1666666666666,15)" font-family="sans-serif" font-size="10px" fill="#000" opacity="1">October</text>
                                    <text text-anchor="middle" transform="translate(612.5,15)" font-family="sans-serif" font-size="10px" fill="#000" opacity="1">November</text>
                                    <text text-anchor="middle" transform="translate(670.8333333333334,15)" font-family="sans-serif" font-size="10px" fill="#000" opacity="1">December</text>
                                </g>
                                <g class="mark-rule role-axis-domain" pointer-events="none">
                                    <line transform="translate(0,0)" x2="700" y2="0" stroke="#888" stroke-width="1" opacity="1"/>
                                </g>
                            </g>
                            <path class="foreground" aria-hidden="true" d="" pointer-events="none" display="none"/>
                        </g>
                    </g>
                    <g class="mark-group role-axis" role="graphics-symbol" aria-roledescription="axis" aria-label="Y-axis for a linear scale with values from 0 to 12,000">
                        <g transform="translate(0.5,0.5)">
                            <path class="background" aria-hidden="true" d="M0,0h0v0h0Z" pointer-events="none"/>
                            <g>
                                <g class="mark-rule role-axis-tick" pointer-events="none">
                                    <line transform="translate(0,200)" x2="-5" y2="0" stroke="#888" stroke-width="1" opacity="1"/>
                                    <line transform="translate(0,167)" x2="-5" y2="0" stroke="#888" stroke-width="1" opacity="1"/>
                                    <line transform="translate(0,133)" x2="-5" y2="0" stroke="#888" stroke-width="1" opacity="1"/>
                                    <line transform="translate(0,100)" x2="-5" y2="0" stroke="#888" stroke-width="1" opacity="1"/>
                                    <line transform="translate(0,67)" x2="-5" y2="0" stroke="#888" stroke-width="1" opacity="1"/>
                                    <line transform="translate(0,33)" x2="-5" y2="0" stroke="#888" stroke-width="1" opacity="1"/>
                                    <line transform="translate(0,0)" x2="-5" y2="0" stroke="#888" stroke-width="1" opacity="1"/>
                                </g>
                                <g class="mark-text role-axis-label" pointer-events="none">
                                    <text text-anchor="end" transform="translate(-7,203)" font-family="sans-serif" font-size="10px" fill="#000" opacity="1">0</text>
                                    <text text-anchor="end" transform="translate(-7,169.66666666666669)" font-family="sans-serif" font-size="10px" fill="#000" opacity="1">2,000</text>
                                    <text text-anchor="end" transform="translate(-7,136.33333333333334)" font-family="sans-serif" font-size="10px" fill="#000" opacity="1">4,000</text>
                                    <text text-anchor="end" transform="translate(-7,103)" font-family="sans-serif" font-size="10px" fill="#000" opacity="1">6,000</text>
                                    <text text-anchor="end" transform="translate(-7,69.66666666666667)" font-family="sans-serif" font-size="10px" fill="#000" opacity="1">8,000</text>
                                    <text text-anchor="end" transform="translate(-7,36.33333333333333)" font-family="sans-serif" font-size="10px" fill="#000" opacity="1">10,000</text>
                                    <text text-anchor="end" transform="translate(-7,3)" font-family="sans-serif" font-size="10px" fill="#000" opacity="1">12,000</text>
                                </g>
                                <g class="mark-rule role-axis-domain" pointer-events="none">
                                    <line transform="translate(0,200)" x2="0" y2="-200" stroke="#888" stroke-width="1" opacity="1"/>
                                </g>
                            </g>
                            <path class="foreground" aria-hidden="true" d="" pointer-events="none" display="none"/>
                        </g>
                    </g>
                    <g class="mark-group role-scope layer_0_pathgroup" role="graphics-object" aria-roledescription="group mark container">
                        <g transform="translate(0,0)">
                            <path class="background" aria-hidden="true" d="M0,0h700v200h-700Z"/>
                            <g>
                                <g class="mark-line role-mark layer_0_marks" role="graphics-object" aria-roledescription="line mark container">
                                    <path aria-label="month: January; thousands: 6460; year: 2019" role="graphics-symbol" aria-roledescription="line mark" d="M29.16666666666663,92.33333333333333L87.49999999999997,98.88333333333333L145.83333333333331,68.05000000000001L204.16666666666663,71.64999999999999L262.5,61.85000000000001L320.8333333333333,51.35000000000001L379.16666666666663,22.466666666666658L437.5,11.966666666666658L495.8333333333333,59.60000000000001L554.1666666666666,76.21666666666667L612.5,91.14999999999999L670.8333333333334,80.96666666666667" stroke="#4c78a8" stroke-width="2"/>
                                </g>
                            </g>
                            <path class="foreground" aria-hidden="true" d="" display="none"/>
                        </g>
                        <g transform="translate(0,0)">
                            <path class="background" aria-hidden="true" d="M0,0h700v200h-700Z"/>
                            <g>
                                <g class="mark-line role-mark layer_0_marks" role="graphics-object" aria-roledescription="line mark container">
                                    <path aria-label="month: January; thousands: 6603; year: 2020" role="graphics-symbol" aria-roledescription="line mark" d="M29.16666666666663,89.95L87.49999999999997,92.13333333333334L145.83333333333331,123.35000000000001L204.16666666666663,189.76666666666665L262.5,188.68333333333334L320.8333333333333,185.68333333333334L379.16666666666663,184.26666666666668L437.5,182.83333333333334L495.8333333333333,183.16666666666666L554.1666666666666,182.68333333333334L612.5,183.96666666666667L670.8333333333334,182.56666666666666" stroke="#f58518" stroke-width="2"/>
                                </g>
                            </g>
                            <path class="foreground" aria-hidden="true" d="" display="none"/>
                        </g>
                    </g>
                    <g class="mark-symbol role-mark layer_1_marks" role="graphics-object" aria-roledescription="symbol mark container">
                        <path aria-label="month: January; thousands: 6460; year: 2019" role="graphics-symbol" aria-roledescription="point" transform="translate(29.16666666666663,92.33333333333333)" d="M2.7386127875258306,0A2.7386127875258306,2.7386127875258306,0,1,1,-2.7386127875258306,0A2.7386127875258306,2.7386127875258306,0,1,1,2.7386127875258306,0" fill="#4c78a8" stroke-width="2" opacity="1"/>
                        <path aria-label="month: February; thousands: 6067; year: 2019" role="graphics-symbol" aria-roledescription="point" transform="translate(87.49999999999997,98.88333333333333)" d="M2.7386127875258306,0A2.7386127875258306,2.7386127875258306,0,1,1,-2.7386127875258306,0A2.7386127875258306,2.7386127875258306,0,1,1,2.7386127875258306,0" fill="#4c78a8" stroke-width="2" opacity="1"/>
                        <path aria-label="month: March; thousands: 7917; year: 2019" role="graphics-symbol" aria-roledescription="point" transform="translate(145.83333333333331,68.05000000000001)" d="M2.7386127875258306,0A2.7386127875258306,2.7386127875258306,0,1,1,-2.7386127875258306,0A2.7386127875258306,2.7386127875258306,0,1,1,2.7386127875258306,0" fill="#4c78a8" stroke-width="2" opacity="1"/>
                        <path aria-label="month: April; thousands: 7701; year: 2019" role="graphics-symbol" aria-roledescription="point" transform="translate(204.16666666666663,71.64999999999999)" d="M2.7386127875258306,0A2.7386127875258306,2.7386127875258306,0,1,1,-2.7386127875258306,0A2.7386127875258306,2.7386127875258306,0,1,1,2.7386127875258306,0" fill="#4c78a8" stroke-width="2" opacity="1"/>
                        <path aria-label="month: May; thousands: 8289; year: 2019" role="graphics-symbol" aria-roledescription="point" transform="translate(262.5,61.85000000000001)" d="M2.7386127875258306,0A2.7386127875258306,2.7386127875258306,0,1,1,-2.7386127875258306,0A2.7386127875258306,2.7386127875258306,0,1,1,2.7386127875258306,0" fill="#4c78a8" stroke-width="2" opacity="1"/>
                        <path aria-label="month: June; thousands: 8919; year: 2019" role="graphics-symbol" aria-roledescription="point" transform="translate(320.8333333333333,51.35000000000001)" d="M2.7386127875258306,0A2.7386127875258306,2.7386127875258306,0,1,1,-2.7386127875258306,0A2.7386127875258306,2.7386127875258306,0,1,1,2.7386127875258306,0" fill="#4c78a8" stroke-width="2" opacity="1"/>
                        <path aria-label="month: July; thousands: 10652; year: 2019" role="graphics-symbol" aria-roledescription="point" transform="translate(379.16666666666663,22.466666666666658)" d="M2.7386127875258306,0A2.7386127875258306,2.7386127875258306,0,1,1,-2.7386127875258306,0A2.7386127875258306,2.7386127875258306,0,1,1,2.7386127875258306,0" fill="#4c78a8" stroke-width="2" opacity="1"/>
                        <path aria-label="month: August; thousands: 11282; year: 2019" role="graphics-symbol" aria-roledescription="point" transform="translate(437.5,11.966666666666658)" d="M2.7386127875258306,0A2.7386127875258306,2.7386127875258306,0,1,1,-2.7386127875258306,0A2.7386127875258306,2.7386127875258306,0,1,1,2.7386127875258306,0" fill="#4c78a8" stroke-width="2" opacity="1"/>
                        <path aria-label="month: September; thousands: 8424; year: 2019" role="graphics-symbol" aria-roledescription="point" transform="translate(495.8333333333333,59.60000000000001)" d="M2.7386127875258306,0A2.7386127875258306,2.7386127875258306,0,1,1,-2.7386127875258306,0A2.7386127875258306,2.7386127875258306,0,1,1,2.7386127875258306,0" fill="#4c78a8" stroke-width="2" opacity="1"/>
                        <path aria-label="month: October; thousands: 7427; year: 2019" role="graphics-symbol" aria-roledescription="point" transform="translate(554.1666666666666,76.21666666666667)" d="M2.7386127875258306,0A2.7386127875258306,2.7386127875258306,0,1,1,-2.7386127875258306,0A2.7386127875258306,2.7386127875258306,0,1,1,2.7386127875258306,0" fill="#4c78a8" stroke-width="2" opacity="1"/>
                        <path aria-label="month: November; thousands: 6531; year: 2019" role="graphics-symbol" aria-roledescription="point" transform="translate(612.5,91.14999999999999)" d="M2.7386127875258306,0A2.7386127875258306,2.7386127875258306,0,1,1,-2.7386127875258306,0A2.7386127875258306,2.7386127875258306,0,1,1,2.7386127875258306,0" fill="#4c78a8" stroke-width="2" opacity="1"/>
                        <path aria-label="month: December; thousands: 7142; year: 2019" role="graphics-symbol" aria-roledescription="point" transform="translate(670.8333333333334,80.96666666666667)" d="M2.7386127875258306,0A2.7386127875258306,2.7386127875258306,0,1,1,-2.7386127875258306,0A2.7386127875258306,2.7386127875258306,0,1,1,2.7386127875258306,0" fill="#4c78a8" stroke-width="2" opacity="1"/>
                        <path aria-label="month: January; thousands: 6603; year: 2020" role="graphics-symbol" aria-roledescription="point" transform="translate(29.16666666666663,89.95)" d="M2.7386127875258306,0A2.7386127875258306,2.7386127875258306,0,1,1,-2.7386127875258306,0A2.7386127875258306,2.7386127875258306,0,1,1,2.7386127875258306,0" fill="#f58518" stroke-width="2" opacity="1"/>
                        <path aria-label="month: February; thousands: 6472; year: 2020" role="graphics-symbol" aria-roledescription="point" transform="translate(87.49999999999997,92.13333333333334)" d="M2.7386127875258306,0A2.7386127875258306,2.7386127875258306,0,1,1,-2.7386127875258306,0A2.7386127875258306,2.7386127875258306,0,1,1,2.7386127875258306,0" fill="#f58518" stroke-width="2" opacity="1"/>
                        <path aria-label="month: March; thousands: 4599; year: 2020" role="graphics-symbol" aria-roledescription="point" transform="translate(145.83333333333331,123.35000000000001)" d="M2.7386127875258306,0A2.7386127875258306,2.7386127875258306,0,1,1,-2.7386127875258306,0A2.7386127875258306,2.7386127875258306,0,1,1,2.7386127875258306,0" fill="#f58518" stroke-width="2" opacity="1"/>
                        <path aria-label="month: April; thousands: 614; year: 2020" role="graphics-symbol" aria-roledescription="point" transform="translate(204.16666666666663,189.76666666666665)" d="M2.7386127875258306,0A2.7386127875258306,2.7386127875258306,0,1,1,-2.7386127875258306,0A2.7386127875258306,2.7386127875258306,0,1,1,2.7386127875258306,0" fill="#f58518" stroke-width="2" opacity="1"/>
                        <path aria-label="month: May; thousands: 679; year: 2020" role="graphics-symbol" aria-roledescription="point" transform="translate(262.5,188.68333333333334)" d="M2.7386127875258306,0A2.7386127875258306,2.7386127875258306,0,1,1,-2.7386127875258306,0A2.7386127875258306,2.7386127875258306,0,1,1,2.7386127875258306,0" fill="#f58518" stroke-width="2" opacity="1"/>
                        <path aria-label="month: June; thousands: 859; year: 2020" role="graphics-symbol" aria-roledescription="point" transform="translate(320.8333333333333,185.68333333333334)" d="M2.7386127875258306,0A2.7386127875258306,2.7386127875258306,0,1,1,-2.7386127875258306,0A2.7386127875258306,2.7386127875258306,0,1,1,2.7386127875258306,0" fill="#f58518" stroke-width="2" opacity="1"/>
                        <path aria-label="month: July; thousands: 944; year: 2020" role="graphics-symbol" aria-roledescription="point" transform="translate(379.16666666666663,184.26666666666668)" d="M2.7386127875258306,0A2.7386127875258306,2.7386127875258306,0,1,1,-2.7386127875258306,0A2.7386127875258306,2.7386127875258306,0,1,1,2.7386127875258306,0" fill="#f58518" stroke-width="2" opacity="1"/>
                        <path aria-label="month: August; thousands: 1030; year: 2020" role="graphics-symbol" aria-roledescription="point" transform="translate(437.5,182.83333333333334)" d="M2.7386127875258306,0A2.7386127875258306,2.7386127875258306,0,1,1,-2.7386127875258306,0A2.7386127875258306,2.7386127875258306,0,1,1,2.7386127875258306,0" fill="#f58518" stroke-width="2" opacity="1"/>
                        <path aria-label="month: September; thousands: 1010; year: 2020" role="graphics-symbol" aria-roledescription="point" transform="translate(495.8333333333333,183.16666666666666)" d="M2.7386127875258306,0A2.7386127875258306,2.7386127875258306,0,1,1,-2.7386127875258306,0A2.7386127875258306,2.7386127875258306,0,1,1,2.7386127875258306,0" fill="#f58518" stroke-width="2" opacity="1"/>
                        <path aria-label="month: October; thousands: 1039; year: 2020" role="graphics-symbol" aria-roledescription="point" transform="translate(554.1666666666666,182.68333333333334)" d="M2.7386127875258306,0A2.7386127875258306,2.7386127875258306,0,1,1,-2.7386127875258306,0A2.7386127875258306,2.7386127875258306,0,1,1,2.7386127875258306,0" fill="#f58518" stroke-width="2" opacity="1"/>
                        <path aria-label="month: November; thousands: 962; year: 2020" role="graphics-symbol" aria-roledescription="point" transform="translate(612.5,183.96666666666667)" d="M2.7386127875258306,0A2.7386127875258306,2.7386127875258306,0,1,1,-2.7386127875258306,0A2.7386127875258306,2.7386127875258306,0,1,1,2.7386127875258306,0" fill="#f58518" stroke-width="2" opacity="1"/>
                        <path aria-label="month: December; thousands: 1046; year: 2020" role="graphics-symbol" aria-roledescription="point" transform="translate(670.8333333333334,182.56666666666666)" d="M2.7386127875258306,0A2.7386127875258306,2.7386127875258306,0,1,1,-2.7386127875258306,0A2.7386127875258306,2.7386127875258306,0,1,1,2.7386127875258306,0" fill="#f58518" stroke-width="2" opacity="1"/>
                    </g>
                    <g class="mark-group role-legend" role="graphics-symbol" aria-roledescription="legend" aria-label="Symbol legend for fill color and stroke color with 2 values: 2019, 2020">
                        <g transform="translate(320,230)">
                            <path class="background" aria-hidden="true" d="M0,0h89v13h-89Z" pointer-events="none"/>
                            <g>
                                <g class="mark-group role-legend-entry">
                                    <g transform="translate(0,0)">
                                        <path class="background" aria-hidden="true" d="M0,0h0v0h0Z" pointer-events="none"/>
                                        <g>
                                            <g class="mark-group role-scope" role="graphics-object" aria-roledescription="group mark container">
                                                <g transform="translate(0,0.25)">
                                                    <path class="background" aria-hidden="true" d="M0,0h38.24609375v12.5h-38.24609375Z" pointer-events="none" opacity="1"/>
                                                    <g>
                                                        <g class="mark-symbol role-legend-symbol" pointer-events="none">
                                                            <path transform="translate(6,6)" d="M5,0A5,5,0,1,1,-5,0A5,5,0,1,1,5,0" fill="#4c78a8" stroke="#4c78a8" stroke-width="1.5" opacity="1"/>
                                                        </g>
                                                        <g class="mark-text role-legend-label" pointer-events="none">
                                                            <text text-anchor="start" transform="translate(16,9)" font-family="sans-serif" font-size="10px" fill="#000" opacity="1">2019</text>
                                                        </g>
                                                    </g>
                                                    <path class="foreground" aria-hidden="true" d="" pointer-events="none" display="none"/>
                                                </g>
                                                <g transform="translate(50,0.25)">
                                                    <path class="background" aria-hidden="true" d="M0,0h38.24609375v12.5h-38.24609375Z" pointer-events="none" opacity="1"/>
                                                    <g>
                                                        <g class="mark-symbol role-legend-symbol" pointer-events="none">
                                                            <path transform="translate(6,6)" d="M5,0A5,5,0,1,1,-5,0A5,5,0,1,1,5,0" fill="#f58518" stroke="#f58518" stroke-width="1.5" opacity="1"/>
                                                        </g>
                                                        <g class="mark-text role-legend-label" pointer-events="none">
                                                            <text text-anchor="start" transform="translate(16,9)" font-family="sans-serif" font-size="10px" fill="#000" opacity="1">2020</text>
                                                        </g>
                                                    </g>
                                                    <path class="foreground" aria-hidden="true" d="" pointer-events="none" display="none"/>
                                                </g>
                                            </g>
                                        </g>
                                        <path class="foreground" aria-hidden="true" d="" pointer-events="none" display="none"/>
                                    </g>
                                </g>
                            </g>
                            <path class="foreground" aria-hidden="true" d="" pointer-events="none" display="none"/>
                        </g>
                    </g>
                    <g class="mark-group role-title">
                        <g transform="translate(350,-22)">
                            <path class="background" aria-hidden="true" d="M0,0h0v0h0Z" pointer-events="none"/>
                            <g>
                                <g class="mark-text role-title-text" role="graphics-symbol" aria-roledescription="title" aria-label="Title text 'International arrivals to Canada, January 2019 to December 2020'" pointer-events="none">
                                    <text text-anchor="middle" transform="translate(0,10)" font-family="sans-serif" font-size="13px" font-weight="bold" fill="#000" opacity="1">International arrivals to Canada, January 2019 to December 2020</text>
                                </g>
                            </g>
                            <path class="foreground" aria-hidden="true" d="" pointer-events="none" display="none"/>
                        </g>
                    </g>
                </g>
                <path class="foreground" aria-hidden="true" d="" display="none"/>
            </g>
        </g>
    </g>
</svg>