<svg xmlns="http://www.w3.org/2000/svg"
    xmlns:xlink="http://www.w3.org/1999/xlink" version="1.1" class="marks" width="1524" height="932" viewBox="0 0 762 466">
    <rect width="762" height="466" fill="white"/>
    <g fill="none" stroke-miterlimit="10" transform="translate(53,16)">
        <g class="mark-group role-frame root" role="graphics-object" aria-roledescription="group mark container">
            <g transform="translate(0,0)">
                <path class="background" aria-hidden="true" d="M0.5,0.5h600v400h-600Z" stroke="#ddd"/>
                <g>
                    <g class="mark-group role-axis" aria-hidden="true">
                        <g transform="translate(0.5,0.5)">
                            <path class="background" aria-hidden="true" d="M0,0h0v0h0Z" pointer-events="none"/>
                            <g>
                                <g class="mark-rule role-axis-grid" pointer-events="none">
                                    <line transform="translate(0,400)" x2="600" y2="0" stroke="#ddd" stroke-width="1" opacity="1"/>
                                    <line transform="translate(0,356)" x2="600" y2="0" stroke="#ddd" stroke-width="1" opacity="1"/>
                                    <line transform="translate(0,311)" x2="600" y2="0" stroke="#ddd" stroke-width="1" opacity="1"/>
                                    <line transform="translate(0,267)" x2="600" y2="0" stroke="#ddd" stroke-width="1" opacity="1"/>
                                    <line transform="translate(0,222)" x2="600" y2="0" stroke="#ddd" stroke-width="1" opacity="1"/>
                                    <line transform="translate(0,178)" x2="600" y2="0" stroke="#ddd" stroke-width="1" opacity="1"/>
                                    <line transform="translate(0,133)" x2="600" y2="0" stroke="#ddd" stroke-width="1" opacity="1"/>
                                    <line transform="translate(0,89)" x2="600" y2="0" stroke="#ddd" stroke-width="1" opacity="1"/>
                                    <line transform="translate(0,44)" x2="600" y2="0" stroke="#ddd" stroke-width="1" opacity="1"/>
                                    <line transform="translate(0,0)" x2="600" y2="0" stroke="#ddd" stroke-width="1" opacity="1"/>
                                </g>
                            </g>
                            <path class="foreground" aria-hidden="true" d="" pointer-events="none" display="none"/>
                        </g>
                    </g>
                    <g class="mark-group role-axis" role="graphics-symbol" aria-roledescription="axis" aria-label="X-axis titled 'Year' for a discrete scale with 7 values: 2017, 2018, 2019, 2020, 2021, 2022, 2023">
                        <g transform="translate(0.5,400.5)">
                            <path class="background" aria-hidden="true" d="M0,0h0v0h0Z" pointer-events="none"/>
                            <g>
                                <g class="mark-rule role-axis-tick" pointer-events="none">
                                    <line transform="translate(43,0)" x2="0" y2="5" stroke="#888" stroke-width="1" opacity="1"/>
                                    <line transform="translate(129,0)" x2="0" y2="5" stroke="#888" stroke-width="1" opacity="1"/>
                                    <line transform="translate(214,0)" x2="0" y2="5" stroke="#888" stroke-width="1" opacity="1"/>
                                    <line transform="translate(300,0)" x2="0" y2="5" stroke="#888" stroke-width="1" opacity="1"/>
                                    <line transform="translate(386,0)" x2="0" y2="5" stroke="#888" stroke-width="1" opacity="1"/>
                                    <line transform="translate(471,0)" x2="0" y2="5" stroke="#888" stroke-width="1" opacity="1"/>
                                    <line transform="translate(557,0)" x2="0" y2="5" stroke="#888" stroke-width="1" opacity="1"/>
                                </g>
                                <g class="mark-text role-axis-label" pointer-events="none">
                                    <text text-anchor="end" transform="translate(42.85714285714289,7) rotate(270) translate(0,3)" font-family="sans-serif" font-size="10px" fill="#000" opacity="1">2017</text>
                                    <text text-anchor="end" transform="translate(128.5714285714286,7) rotate(270) translate(0,3)" font-family="sans-serif" font-size="10px" fill="#000" opacity="1">2018</text>
                                    <text text-anchor="end" transform="translate(214.2857142857143,7) rotate(270) translate(0,3)" font-family="sans-serif" font-size="10px" fill="#000" opacity="1">2019</text>
                                    <text text-anchor="end" transform="translate(300,7) rotate(270) translate(0,3)" font-family="sans-serif" font-size="10px" fill="#000" opacity="1">2020</text>
                                    <text text-anchor="end" transform="translate(385.7142857142857,7) rotate(270) translate(0,3)" font-family="sans-serif" font-size="10px" fill="#000" opacity="1">2021</text>
                                    <text text-anchor="end" transform="translate(471.42857142857144,7) rotate(270) translate(0,3)" font-family="sans-serif" font-size="10px" fill="#000" opacity="1">2022</text>
                                    <text text-anchor="end" transform="translate(557.1428571428571,7) rotate(270) translate(0,3)" font-family="sans-serif" font-size="10px" fill="#000" opacity="1">2023</text>
                                </g>
                                <g class="mark-rule role-axis-domain" pointer-events="none">
                                    <line transform="translate(0,0)" x2="600" y2="0" stroke="#888" stroke-width="1" opacity="1"/>
                                </g>
                                <g class="mark-text role-axis-title" pointer-events="none">
                                    <text text-anchor="middle" transform="translate(300,42.24609375)" font-family="sans-serif" font-size="11px" font-weight="bold" fill="#000" opacity="1">Year</text>
                                </g>
                            </g>
                            <path class="foreground" aria-hidden="true" d="" pointer-events="none" display="none"/>
                        </g>
                    </g>
                    <g class="mark-group role-axis" role="graphics-symbol" aria-roledescription="axis" aria-label="Y-axis titled 'Stock Price' for a linear scale with values from 0 to 4,500">
                        <g transform="translate(0.5,0.5)">
                            <path class="background" aria-hidden="true" d="M0,0h0v0h0Z" pointer-events="none"/>
                            <g>
                                <g class="mark-rule role-axis-tick" pointer-events="none">
                                    <line transform="translate(0,400)" x2="-5" y2="0" stroke="#888" stroke-width="1" opacity="1"/>
                                    <line transform="translate(0,356)" x2="-5" y2="0" stroke="#888" stroke-width="1" opacity="1"/>
                                    <line transform="translate(0,311)" x2="-5" y2="0" stroke="#888" stroke-width="1" opacity="1"/>
                                    <line transform="translate(0,267)" x2="-5" y2="0" stroke="#888" stroke-width="1" opacity="1"/>
                                    <line transform="translate(0,222)" x2="-5" y2="0" stroke="#888" stroke-width="1" opacity="1"/>
                                    <line transform="translate(0,178)" x2="-5" y2="0" stroke="#888" stroke-width="1" opacity="1"/>
                                    <line transform="translate(0,133)" x2="-5" y2="0" stroke="#888" stroke-width="1" opacity="1"/>
                                    <line transform="translate(0,89)" x2="-5" y2="0" stroke="#888" stroke-width="1" opacity="1"/>
                                    <line transform="translate(0,44)" x2="-5" y2="0" stroke="#888" stroke-width="1" opacity="1"/>
                                    <line transform="translate(0,0)" x2="-5" y2="0" stroke="#888" stroke-width="1" opacity="1"/>
                                </g>
                                <g class="mark-text role-axis-label" pointer-events="none">
                                    <text text-anchor="end" transform="translate(-7,403)" font-family="sans-serif" font-size="10px" fill="#000" opacity="1">0</text>
                                    <text text-anchor="end" transform="translate(-7,358.55555555555554)" font-family="sans-serif" font-size="10px" fill="#000" opacity="1">500</text>
                                    <text text-anchor="end" transform="translate(-7,314.11111111111114)" font-family="sans-serif" font-size="10px" fill="#000" opacity="1">1,000</text>
                                    <text text-anchor="end" transform="translate(-7,269.6666666666667)" font-family="sans-serif" font-size="10px" fill="#000" opacity="1">1,500</text>
                                    <text text-anchor="end" transform="translate(-7,225.22222222222223)" font-family="sans-serif" font-size="10px" fill="#000" opacity="1">2,000</text>
                                    <text text-anchor="end" transform="translate(-7,180.77777777777777)" font-family="sans-serif" font-size="10px" fill="#000" opacity="1">2,500</text>
                                    <text text-anchor="end" transform="translate(-7,136.33333333333334)" font-family="sans-serif" font-size="10px" fill="#000" opacity="1">3,000</text>
                                    <text text-anchor="end" transform="translate(-7,91.88888888888889)" font-family="sans-serif" font-size="10px" fill="#000" opacity="1">3,500</text>
                                    <text text-anchor="end" transform="translate(-7,47.444444444444464)" font-family="sans-serif" font-size="10px" fill="#000" opacity="1">4,000</text>
                                    <text text-anchor="end" transform="translate(-7,3)" font-family="sans-serif" font-size="10px" fill="#000" opacity="1">4,500</text>
                                </g>
                                <g class="mark-rule role-axis-domain" pointer-events="none">
                                    <line transform="translate(0,400)" x2="0" y2="-400" stroke="#888" stroke-width="1" opacity="1"/>
                                </g>
                                <g class="mark-text role-axis-title" pointer-events="none">
                                    <text text-anchor="middle" transform="translate(-36.0244140625,200) rotate(-90) translate(0,-2)" font-family="sans-serif" font-size="11px" font-weight="bold" fill="#000" opacity="1">Stock Price</text>
                                </g>
                            </g>
                            <path class="foreground" aria-hidden="true" d="" pointer-events="none" display="none"/>
                        </g>
                    </g>
                    <g class="mark-group role-scope layer_0_layer_0_pathgroup" role="graphics-object" aria-roledescription="group mark container">
                        <g transform="translate(0,0)">
                            <path class="background" aria-hidden="true" d="M0,0h600v400h-600Z"/>
                            <g>
                                <g class="mark-line role-mark layer_0_layer_0_marks" role="graphics-object" aria-roledescription="line mark container">
                                    <path aria-label="Year: 2017; Stock Price: 1169.47; Company Name: Amazon" role="graphics-symbol" aria-roledescription="line mark" d="M42.857,296.047L128.571,266.492L214.286,235.748L300,124.18L385.714,113.91L471.429,44.444L557.143,0" stroke="#4c78a8" stroke-width="2"/>
                                </g>
                            </g>
                            <path class="foreground" aria-hidden="true" d="" display="none"/>
                        </g>
                        <g transform="translate(0,0)">
                            <path class="background" aria-hidden="true" d="M0,0h600v400h-600Z"/>
                            <g>
                                <g class="mark-line role-mark layer_0_layer_0_marks" role="graphics-object" aria-roledescription="line mark container">
                                    <path aria-label="Year: 2017; Stock Price: 62.14; Company Name: Microsoft" role="graphics-symbol" aria-roledescription="line mark" d="M42.857,394.476L128.571,392.047L214.286,389.707L300,385.982L385.714,380.2L471.429,373.333L557.143,368.889" stroke="#72b7b2" stroke-width="2"/>
                                </g>
                            </g>
                            <path class="foreground" aria-hidden="true" d="" display="none"/>
                        </g>
                        <g transform="translate(0,0)">
                            <path class="background" aria-hidden="true" d="M0,0h600v400h-600Z"/>
                            <g>
                                <g class="mark-line role-mark layer_0_layer_0_marks" role="graphics-object" aria-roledescription="line mark container">
                                    <path aria-label="Year: 2017; Stock Price: 169.23; Company Name: Apple" role="graphics-symbol" aria-roledescription="line mark" d="M42.857,384.957L128.571,385.979L214.286,373.898L300,373.898L385.714,383.74L471.429,382.222L557.143,386.667" stroke="#f58518" stroke-width="2"/>
                                </g>
                            </g>
                            <path class="foreground" aria-hidden="true" d="" display="none"/>
                        </g>
                        <g transform="translate(0,0)">
                            <path class="background" aria-hidden="true" d="M0,0h600v400h-600Z"/>
                            <g>
                                <g class="mark-line role-mark layer_0_layer_0_marks" role="graphics-object" aria-roledescription="line mark container">
                                    <path aria-label="Year: 2017; Stock Price: 1053.4; Company Name: Google" role="graphics-symbol" aria-roledescription="line mark" d="M42.857,306.364L128.571,302.561L214.286,280.943L300,295.482L385.714,265.14L471.429,222.222L557.143,204.444" stroke="#e45756" stroke-width="2"/>
                                </g>
                            </g>
                            <path class="foreground" aria-hidden="true" d="" display="none"/>
                        </g>
                    </g>
                    <g class="mark-symbol role-mark layer_0_layer_1_marks" role="graphics-object" aria-roledescription="symbol mark container">
                        <path aria-label="Year: 2017; Stock Price: 1169.47; Company Name: Amazon" role="graphics-symbol" aria-roledescription="point" transform="translate(42.85714285714289,296.0471111111111)" d="M2.739,0A2.739,2.739,0,1,1,-2.739,0A2.739,2.739,0,1,1,2.739,0" fill="#4c78a8" stroke-width="2" opacity="1"/>
                        <path aria-label="Year: 2018; Stock Price: 1501.97; Company Name: Amazon" role="graphics-symbol" aria-roledescription="point" transform="translate(128.5714285714286,266.4915555555555)" d="M2.739,0A2.739,2.739,0,1,1,-2.739,0A2.739,2.739,0,1,1,2.739,0" fill="#4c78a8" stroke-width="2" opacity="1"/>
                        <path aria-label="Year: 2019; Stock Price: 1847.84; Company Name: Amazon" role="graphics-symbol" aria-roledescription="point" transform="translate(214.2857142857143,235.74755555555552)" d="M2.739,0A2.739,2.739,0,1,1,-2.739,0A2.739,2.739,0,1,1,2.739,0" fill="#4c78a8" stroke-width="2" opacity="1"/>
                        <path aria-label="Year: 2020; Stock Price: 3102.97; Company Name: Amazon" role="graphics-symbol" aria-roledescription="point" transform="translate(300,124.18044444444445)" d="M2.739,0A2.739,2.739,0,1,1,-2.739,0A2.739,2.739,0,1,1,2.739,0" fill="#4c78a8" stroke-width="2" opacity="1"/>
                        <path aria-label="Year: 2021; Stock Price: 3218.51; Company Name: Amazon" role="graphics-symbol" aria-roledescription="point" transform="translate(385.7142857142857,113.91022222222222)" d="M2.739,0A2.739,2.739,0,1,1,-2.739,0A2.739,2.739,0,1,1,2.739,0" fill="#4c78a8" stroke-width="2" opacity="1"/>
                        <path aria-label="Year: 2022; Stock Price: 4000; Company Name: Amazon" role="graphics-symbol" aria-roledescription="point" transform="translate(471.42857142857144,44.444444444444464)" d="M2.739,0A2.739,2.739,0,1,1,-2.739,0A2.739,2.739,0,1,1,2.739,0" fill="#4c78a8" stroke-width="2" opacity="1"/>
                        <path aria-label="Year: 2023; Stock Price: 4500; Company Name: Amazon" role="graphics-symbol" aria-roledescription="point" transform="translate(557.1428571428571,0)" d="M2.739,0A2.739,2.739,0,1,1,-2.739,0A2.739,2.739,0,1,1,2.739,0" fill="#4c78a8" stroke-width="2" opacity="1"/>
                        <path aria-label="Year: 2017; Stock Price: 62.14; Company Name: Microsoft" role="graphics-symbol" aria-roledescription="point" transform="translate(42.85714285714289,394.47644444444444)" d="M2.739,0A2.739,2.739,0,1,1,-2.739,0A2.739,2.739,0,1,1,2.739,0" fill="#72b7b2" stroke-width="2" opacity="1"/>
                        <path aria-label="Year: 2018; Stock Price: 89.47; Company Name: Microsoft" role="graphics-symbol" aria-roledescription="point" transform="translate(128.5714285714286,392.0471111111111)" d="M2.739,0A2.739,2.739,0,1,1,-2.739,0A2.739,2.739,0,1,1,2.739,0" fill="#72b7b2" stroke-width="2" opacity="1"/>
                        <path aria-label="Year: 2019; Stock Price: 115.8; Company Name: Microsoft" role="graphics-symbol" aria-roledescription="point" transform="translate(214.2857142857143,389.70666666666665)" d="M2.739,0A2.739,2.739,0,1,1,-2.739,0A2.739,2.739,0,1,1,2.739,0" fill="#72b7b2" stroke-width="2" opacity="1"/>
                        <path aria-label="Year: 2020; Stock Price: 157.7; Company Name: Microsoft" role="graphics-symbol" aria-roledescription="point" transform="translate(300,385.9822222222222)" d="M2.739,0A2.739,2.739,0,1,1,-2.739,0A2.739,2.739,0,1,1,2.739,0" fill="#72b7b2" stroke-width="2" opacity="1"/>
                        <path aria-label="Year: 2021; Stock Price: 222.75; Company Name: Microsoft" role="graphics-symbol" aria-roledescription="point" transform="translate(385.7142857142857,380.2)" d="M2.739,0A2.739,2.739,0,1,1,-2.739,0A2.739,2.739,0,1,1,2.739,0" fill="#72b7b2" stroke-width="2" opacity="1"/>
                        <path aria-label="Year: 2022; Stock Price: 300; Company Name: Microsoft" role="graphics-symbol" aria-roledescription="point" transform="translate(471.42857142857144,373.3333333333333)" d="M2.739,0A2.739,2.739,0,1,1,-2.739,0A2.739,2.739,0,1,1,2.739,0" fill="#72b7b2" stroke-width="2" opacity="1"/>
                        <path aria-label="Year: 2023; Stock Price: 350; Company Name: Microsoft" role="graphics-symbol" aria-roledescription="point" transform="translate(557.1428571428571,368.8888888888889)" d="M2.739,0A2.739,2.739,0,1,1,-2.739,0A2.739,2.739,0,1,1,2.739,0" fill="#72b7b2" stroke-width="2" opacity="1"/>
                        <path aria-label="Year: 2017; Stock Price: 169.23; Company Name: Apple" role="graphics-symbol" aria-roledescription="point" transform="translate(42.85714285714289,384.95733333333334)" d="M2.739,0A2.739,2.739,0,1,1,-2.739,0A2.739,2.739,0,1,1,2.739,0" fill="#f58518" stroke-width="2" opacity="1"/>
                        <path aria-label="Year: 2018; Stock Price: 157.74; Company Name: Apple" role="graphics-symbol" aria-roledescription="point" transform="translate(128.5714285714286,385.97866666666664)" d="M2.739,0A2.739,2.739,0,1,1,-2.739,0A2.739,2.739,0,1,1,2.739,0" fill="#f58518" stroke-width="2" opacity="1"/>
                        <path aria-label="Year: 2019; Stock Price: 293.65; Company Name: Apple" role="graphics-symbol" aria-roledescription="point" transform="translate(214.2857142857143,373.8977777777778)" d="M2.739,0A2.739,2.739,0,1,1,-2.739,0A2.739,2.739,0,1,1,2.739,0" fill="#f58518" stroke-width="2" opacity="1"/>
                        <path aria-label="Year: 2020; Stock Price: 293.65; Company Name: Apple" role="graphics-symbol" aria-roledescription="point" transform="translate(300,373.8977777777778)" d="M2.739,0A2.739,2.739,0,1,1,-2.739,0A2.739,2.739,0,1,1,2.739,0" fill="#f58518" stroke-width="2" opacity="1"/>
                        <path aria-label="Year: 2021; Stock Price: 182.92; Company Name: Apple" role="graphics-symbol" aria-roledescription="point" transform="translate(385.7142857142857,383.74044444444445)" d="M2.739,0A2.739,2.739,0,1,1,-2.739,0A2.739,2.739,0,1,1,2.739,0" fill="#f58518" stroke-width="2" opacity="1"/>
                        <path aria-label="Year: 2022; Stock Price: 200; Company Name: Apple" role="graphics-symbol" aria-roledescription="point" transform="translate(471.42857142857144,382.22222222222223)" d="M2.739,0A2.739,2.739,0,1,1,-2.739,0A2.739,2.739,0,1,1,2.739,0" fill="#f58518" stroke-width="2" opacity="1"/>
                        <path aria-label="Year: 2023; Stock Price: 150; Company Name: Apple" role="graphics-symbol" aria-roledescription="point" transform="translate(557.1428571428571,386.6666666666667)" d="M2.739,0A2.739,2.739,0,1,1,-2.739,0A2.739,2.739,0,1,1,2.739,0" fill="#f58518" stroke-width="2" opacity="1"/>
                        <path aria-label="Year: 2017; Stock Price: 1053.4; Company Name: Google" role="graphics-symbol" aria-roledescription="point" transform="translate(42.85714285714289,306.3644444444444)" d="M2.739,0A2.739,2.739,0,1,1,-2.739,0A2.739,2.739,0,1,1,2.739,0" fill="#e45756" stroke-width="2" opacity="1"/>
                        <path aria-label="Year: 2018; Stock Price: 1096.19; Company Name: Google" role="graphics-symbol" aria-roledescription="point" transform="translate(128.5714285714286,302.5608888888889)" d="M2.739,0A2.739,2.739,0,1,1,-2.739,0A2.739,2.739,0,1,1,2.739,0" fill="#e45756" stroke-width="2" opacity="1"/>
                        <path aria-label="Year: 2019; Stock Price: 1339.39; Company Name: Google" role="graphics-symbol" aria-roledescription="point" transform="translate(214.2857142857143,280.9431111111111)" d="M2.739,0A2.739,2.739,0,1,1,-2.739,0A2.739,2.739,0,1,1,2.739,0" fill="#e45756" stroke-width="2" opacity="1"/>
                        <path aria-label="Year: 2020; Stock Price: 1175.83; Company Name: Google" role="graphics-symbol" aria-roledescription="point" transform="translate(300,295.4817777777778)" d="M2.739,0A2.739,2.739,0,1,1,-2.739,0A2.739,2.739,0,1,1,2.739,0" fill="#e45756" stroke-width="2" opacity="1"/>
                        <path aria-label="Year: 2021; Stock Price: 1517.18; Company Name: Google" role="graphics-symbol" aria-roledescription="point" transform="translate(385.7142857142857,265.13955555555555)" d="M2.739,0A2.739,2.739,0,1,1,-2.739,0A2.739,2.739,0,1,1,2.739,0" fill="#e45756" stroke-width="2" opacity="1"/>
                        <path aria-label="Year: 2022; Stock Price: 2000; Company Name: Google" role="graphics-symbol" aria-roledescription="point" transform="translate(471.42857142857144,222.22222222222223)" d="M2.739,0A2.739,2.739,0,1,1,-2.739,0A2.739,2.739,0,1,1,2.739,0" fill="#e45756" stroke-width="2" opacity="1"/>
                        <path aria-label="Year: 2023; Stock Price: 2200; Company Name: Google" role="graphics-symbol" aria-roledescription="point" transform="translate(557.1428571428571,204.44444444444443)" d="M2.739,0A2.739,2.739,0,1,1,-2.739,0A2.739,2.739,0,1,1,2.739,0" fill="#e45756" stroke-width="2" opacity="1"/>
                    </g>
                    <g class="mark-symbol role-mark layer_1_marks" role="graphics-object" aria-roledescription="symbol mark container">
                        <path aria-label="Year: 2023; Stock Price: 4500; Company Name: Amazon" role="graphics-symbol" aria-roledescription="circle" transform="translate(557.1428571428571,0)" d="M7.071,0A7.071,7.071,0,1,1,-7.071,0A7.071,7.071,0,1,1,7.071,0" fill="#4c78a8" stroke="black" stroke-width="2" opacity="0.7"/>
                        <path aria-label="Year: 2023; Stock Price: 2200; Company Name: Google" role="graphics-symbol" aria-roledescription="circle" transform="translate(557.1428571428571,204.44444444444443)" d="M7.071,0A7.071,7.071,0,1,1,-7.071,0A7.071,7.071,0,1,1,7.071,0" fill="#e45756" stroke="black" stroke-width="2" opacity="0.7"/>
                        <path aria-label="Year: 2023; Stock Price: 350; Company Name: Microsoft" role="graphics-symbol" aria-roledescription="circle" transform="translate(557.1428571428571,368.8888888888889)" d="M7.071,0A7.071,7.071,0,1,1,-7.071,0A7.071,7.071,0,1,1,7.071,0" fill="#72b7b2" stroke="black" stroke-width="2" opacity="0.7"/>
                        <path aria-label="Year: 2023; Stock Price: 150; Company Name: Apple" role="graphics-symbol" aria-roledescription="circle" transform="translate(557.1428571428571,386.6666666666667)" d="M7.071,0A7.071,7.071,0,1,1,-7.071,0A7.071,7.071,0,1,1,7.071,0" fill="#f58518" stroke="black" stroke-width="2" opacity="0.7"/>
                    </g>
                    <g class="mark-text role-mark layer_2_marks" role="graphics-object" aria-roledescription="text mark container">
                        <text aria-label="Year: 2023; Stock Price: 4500; Company Name: Amazon; Text: Highest and fastest-growing" role="graphics-symbol" aria-roledescription="text mark" text-anchor="start" transform="translate(567.1428571428571,-2)" font-family="sans-serif" font-size="11px" fill="#4c78a8">Highest and fastest-growing</text>
                        <text aria-label="Year: 2023; Stock Price: 2200; Company Name: Google; Text: Second-highest" role="graphics-symbol" aria-roledescription="text mark" text-anchor="start" transform="translate(567.1428571428571,202.44444444444443)" font-family="sans-serif" font-size="11px" fill="#e45756">Second-highest</text>
                        <text aria-label="Year: 2023; Stock Price: 350; Company Name: Microsoft; Text: Third-highest and steady" role="graphics-symbol" aria-roledescription="text mark" text-anchor="start" transform="translate(567.1428571428571,366.8888888888889)" font-family="sans-serif" font-size="11px" fill="#72b7b2">Third-highest and steady</text>
                        <text aria-label="Year: 2023; Stock Price: 150; Company Name: Apple; Text: Lowest and volatile" role="graphics-symbol" aria-roledescription="text mark" text-anchor="start" transform="translate(567.1428571428571,384.6666666666667)" font-family="sans-serif" font-size="11px" fill="#f58518">Lowest and volatile</text>
                    </g>
                    <g class="mark-group role-legend" role="graphics-symbol" aria-roledescription="legend" aria-label="Symbol legend titled 'Company Name' for fill color and stroke color with 4 values: Amazon, Apple, Google, Microsoft">
                        <g transform="translate(618,0)">
                            <path class="background" aria-hidden="true" d="M0,0h84v77h-84Z" pointer-events="none"/>
                            <g>
                                <g class="mark-group role-legend-entry">
                                    <g transform="translate(0,16)">
                                        <path class="background" aria-hidden="true" d="M0,0h0v0h0Z" pointer-events="none"/>
                                        <g>
                                            <g class="mark-group role-scope" role="graphics-object" aria-roledescription="group mark container">
                                                <g transform="translate(0,0)">
                                                    <path class="background" aria-hidden="true" d="M0,0h56.5615234375v12.5h-56.5615234375Z" pointer-events="none" opacity="1"/>
                                                    <g>
                                                        <g class="mark-symbol role-legend-symbol" pointer-events="none">
                                                            <path transform="translate(6,6)" d="M5,0A5,5,0,1,1,-5,0A5,5,0,1,1,5,0" fill="#4c78a8" stroke="#4c78a8" stroke-width="1.5" opacity="1"/>
                                                        </g>
                                                        <g class="mark-text role-legend-label" pointer-events="none">
                                                            <text text-anchor="start" transform="translate(16,9)" font-family="sans-serif" font-size="10px" fill="#000" opacity="1">Amazon</text>
                                                        </g>
                                                    </g>
                                                    <path class="foreground" aria-hidden="true" d="" pointer-events="none" display="none"/>
                                                </g>
                                                <g transform="translate(0,16)">
                                                    <path class="background" aria-hidden="true" d="M0,0h56.5615234375v12.5h-56.5615234375Z" pointer-events="none" opacity="1"/>
                                                    <g>
                                                        <g class="mark-symbol role-legend-symbol" pointer-events="none">
                                                            <path transform="translate(6,6)" d="M5,0A5,5,0,1,1,-5,0A5,5,0,1,1,5,0" fill="#f58518" stroke="#f58518" stroke-width="1.5" opacity="1"/>
                                                        </g>
                                                        <g class="mark-text role-legend-label" pointer-events="none">
                                                            <text text-anchor="start" transform="translate(16,9)" font-family="sans-serif" font-size="10px" fill="#000" opacity="1">Apple</text>
                                                        </g>
                                                    </g>
                                                    <path class="foreground" aria-hidden="true" d="" pointer-events="none" display="none"/>
                                                </g>
                                                <g transform="translate(0,32)">
                                                    <path class="background" aria-hidden="true" d="M0,0h56.5615234375v12.5h-56.5615234375Z" pointer-events="none" opacity="1"/>
                                                    <g>
                                                        <g class="mark-symbol role-legend-symbol" pointer-events="none">
                                                            <path transform="translate(6,6)" d="M5,0A5,5,0,1,1,-5,0A5,5,0,1,1,5,0" fill="#e45756" stroke="#e45756" stroke-width="1.5" opacity="1"/>
                                                        </g>
                                                        <g class="mark-text role-legend-label" pointer-events="none">
                                                            <text text-anchor="start" transform="translate(16,9)" font-family="sans-serif" font-size="10px" fill="#000" opacity="1">Google</text>
                                                        </g>
                                                    </g>
                                                    <path class="foreground" aria-hidden="true" d="" pointer-events="none" display="none"/>
                                                </g>
                                                <g transform="translate(0,48)">
                                                    <path class="background" aria-hidden="true" d="M0,0h56.5615234375v12.5h-56.5615234375Z" pointer-events="none" opacity="1"/>
                                                    <g>
                                                        <g class="mark-symbol role-legend-symbol" pointer-events="none">
                                                            <path transform="translate(6,6)" d="M5,0A5,5,0,1,1,-5,0A5,5,0,1,1,5,0" fill="#72b7b2" stroke="#72b7b2" stroke-width="1.5" opacity="1"/>
                                                        </g>
                                                        <g class="mark-text role-legend-label" pointer-events="none">
                                                            <text text-anchor="start" transform="translate(16,9)" font-family="sans-serif" font-size="10px" fill="#000" opacity="1">Microsoft</text>
                                                        </g>
                                                    </g>
                                                    <path class="foreground" aria-hidden="true" d="" pointer-events="none" display="none"/>
                                                </g>
                                            </g>
                                        </g>
                                        <path class="foreground" aria-hidden="true" d="" pointer-events="none" display="none"/>
                                    </g>
                                </g>
                                <g class="mark-text role-legend-title" pointer-events="none">
                                    <text text-anchor="start" transform="translate(0,9)" font-family="sans-serif" font-size="11px" font-weight="bold" fill="#000" opacity="1">Company Name</text>
                                </g>
                            </g>
                            <path class="foreground" aria-hidden="true" d="" pointer-events="none" display="none"/>
                        </g>
                    </g>
                </g>
                <path class="foreground" aria-hidden="true" d="" display="none"/>
            </g>
        </g>
    </g>
</svg>