<svg xmlns="http://www.w3.org/2000/svg" xmlns:xlink="http://www.w3.org/1999/xlink" version="1.1" class="marks" width="874" height="492" viewBox="0 0 437 246"><rect width="437" height="246" fill="white"/><g fill="none" stroke-miterlimit="10" transform="translate(135,41)"><g class="mark-group role-frame root" role="graphics-object" aria-roledescription="group mark container"><g transform="translate(0,0)"><path class="background" aria-hidden="true" d="M0,0h20v200h-20Z"/><g><g class="mark-arc role-mark layer_0_marks" role="graphics-object" aria-roledescription="arc mark container"><path aria-label="percent: 0.15; state: Strong optimistic" role="graphics-symbol" aria-roledescription="arc mark" transform="translate(10,100) rotate(-30)" d="M-76.475,-47.45A90,90,0,0,0,-83.012,34.771L-55.341,23.181A60,60,0,0,1,-50.984,-31.634Z" fill="#FDA7DF"/><path aria-label="percent: 0.5; state: Somewhat optimistic" role="graphics-symbol" aria-roledescription="arc mark" transform="translate(10,100) rotate(-30)" d="M-83.012,34.771A90,90,0,1,0,81.867,-37.387L54.578,-24.925A60,60,0,1,1,-55.341,23.181Z" fill="#C393FF"/><path aria-label="percent: 0.18; state: Not optimistic" role="graphics-symbol" aria-roledescription="arc mark" transform="translate(10,100) rotate(-30)" d="M81.867,-37.387A90,90,0,0,0,0,-90L0,-60A60,60,0,0,1,54.578,-24.925Z" fill="#C4E538"/><path aria-label="percent: 0.16; state: Undecided" role="graphics-symbol" aria-roledescription="arc mark" transform="translate(10,100) rotate(-30)" d="M0,-90A90,90,0,0,0,-76.475,-47.45L-50.984,-31.634A60,60,0,0,1,0,-60Z" fill="#FFC312"/></g><g class="mark-image role-mark layer_1_marks" role="graphics-object" aria-roledescription="image mark container"><image aria-label="state: Not optimistic" role="graphics-symbol" aria-roledescription="image mark" xlink:href="https://shenleixian.github.io/tourism.svg" transform="translate(-40,50)" width="100" height="100" preserveAspectRatio="xMidYMid" stroke="white"/></g><g class="mark-group role-legend" role="graphics-symbol" aria-roledescription="legend" aria-label="Symbol legend for fill color with 4 values: Strong optimistic, Somewhat optimistic, Not optimistic, Undecided"><g transform="translate(130,30)"><path class="background" aria-hidden="true" d="M0,0h167v106h-167Z" pointer-events="none"/><g><g class="mark-group role-legend-entry"><g transform="translate(0,0)"><path class="background" aria-hidden="true" d="M0,0h0v0h0Z" pointer-events="none"/><g><g class="mark-group role-scope" role="graphics-object" aria-roledescription="group mark container"><g transform="translate(0,0)"><path class="background" aria-hidden="true" d="M0,0h166.71875v25h-166.71875Z" pointer-events="none" opacity="1"/><g><g class="mark-symbol role-legend-symbol" clip-path="url(#clip600)" pointer-events="none"><path transform="translate(8,12.5)" d="M7.071,0A7.071,7.071,0,1,1,-7.071,0A7.071,7.071,0,1,1,7.071,0" fill="#FDA7DF" stroke="white" stroke-width="1.5" opacity="1"/></g><g class="mark-text role-legend-label" pointer-events="none"><text text-anchor="start" transform="translate(20,17.5)" font-family="sans-serif" font-size="16px" fill="#000" opacity="1">Strong optimistic</text></g></g><path class="foreground" aria-hidden="true" d="" pointer-events="none" display="none"/></g><g transform="translate(0,27)"><path class="background" aria-hidden="true" d="M0,0h166.71875v25h-166.71875Z" pointer-events="none" opacity="1"/><g><g class="mark-symbol role-legend-symbol" clip-path="url(#clip601)" pointer-events="none"><path transform="translate(8,12.5)" d="M7.071,0A7.071,7.071,0,1,1,-7.071,0A7.071,7.071,0,1,1,7.071,0" fill="#C393FF" stroke="white" stroke-width="1.5" opacity="1"/></g><g class="mark-text role-legend-label" pointer-events="none"><text text-anchor="start" transform="translate(20,17.5)" font-family="sans-serif" font-size="16px" fill="#000" opacity="1">Somewhat optimistic</text></g></g><path class="foreground" aria-hidden="true" d="" pointer-events="none" display="none"/></g><g transform="translate(0,54)"><path class="background" aria-hidden="true" d="M0,0h166.71875v25h-166.71875Z" pointer-events="none" opacity="1"/><g><g class="mark-symbol role-legend-symbol" clip-path="url(#clip602)" pointer-events="none"><path transform="translate(8,12.5)" d="M7.071,0A7.071,7.071,0,1,1,-7.071,0A7.071,7.071,0,1,1,7.071,0" fill="#C4E538" stroke="white" stroke-width="1.5" opacity="1"/></g><g class="mark-text role-legend-label" pointer-events="none"><text text-anchor="start" transform="translate(20,17.5)" font-family="sans-serif" font-size="16px" fill="#000" opacity="1">Not optimistic</text></g></g><path class="foreground" aria-hidden="true" d="" pointer-events="none" display="none"/></g><g transform="translate(0,81)"><path class="background" aria-hidden="true" d="M0,0h166.71875v25h-166.71875Z" pointer-events="none" opacity="1"/><g><g class="mark-symbol role-legend-symbol" clip-path="url(#clip603)" pointer-events="none"><path transform="translate(8,12.5)" d="M7.071,0A7.071,7.071,0,1,1,-7.071,0A7.071,7.071,0,1,1,7.071,0" fill="#FFC312" stroke="white" stroke-width="1.5" opacity="1"/></g><g class="mark-text role-legend-label" pointer-events="none"><text text-anchor="start" transform="translate(20,17.5)" font-family="sans-serif" font-size="16px" fill="#000" opacity="1">Undecided</text></g></g><path class="foreground" aria-hidden="true" d="" pointer-events="none" display="none"/></g></g></g><path class="foreground" aria-hidden="true" d="" pointer-events="none" display="none"/></g></g></g><path class="foreground" aria-hidden="true" d="" pointer-events="none" display="none"/></g></g><g class="mark-group role-title"><g transform="translate(-80,-36)"><path class="background" aria-hidden="true" d="M0,0h0v0h0Z" pointer-events="none"/><g><g class="mark-text role-title-text" role="graphics-symbol" aria-roledescription="title" aria-label="Title text 'Future outlook of the tourism sector over the next year'" pointer-events="none"><text text-anchor="start" transform="translate(-50,13)" font-family="sans-serif" font-size="16px" font-weight="bold" fill="#0F2741" opacity="1">Future outlook of the tourism sector over the next year</text></g></g><path class="foreground" aria-hidden="true" d="" pointer-events="none" display="none"/></g></g></g><path class="foreground" aria-hidden="true" d="" display="none"/></g></g></g><defs><clipPath id="clip600"><rect x="0" y="0" width="166.71875" height="25"/></clipPath><clipPath id="clip601"><rect x="0" y="0" width="166.71875" height="25"/></clipPath><clipPath id="clip602"><rect x="0" y="0" width="166.71875" height="25"/></clipPath><clipPath id="clip603"><rect x="0" y="0" width="166.71875" height="25"/></clipPath></defs></svg>