<svg xmlns="http://www.w3.org/2000/svg" xmlns:xlink="http://www.w3.org/1999/xlink" version="1.1" class="marks" width="833" height="288" viewBox="0 0 833 288" style="background-color: rgb(255, 255, 255);">
<line id="None_0" x1="24.5" y1="265.5" x2="828.5" y2="265.5" stroke="#D0D0D0" stroke-width="1" stroke-dasharray="1,0" opacity="1"/>
<line id="None_1" x1="24.5" y1="232.5" x2="828.5" y2="232.5" stroke="#D0D0D0" stroke-width="1" stroke-dasharray="1,0" opacity="1"/>
<line id="None_2" x1="24.5" y1="198.5" x2="828.5" y2="198.5" stroke="#D0D0D0" stroke-width="1" stroke-dasharray="1,0" opacity="1"/>
<line id="None_3" x1="24.5" y1="165.5" x2="828.5" y2="165.5" stroke="#D0D0D0" stroke-width="1" stroke-dasharray="1,0" opacity="1"/>
<line id="None_4" x1="24.5" y1="132.5" x2="828.5" y2="132.5" stroke="#D0D0D0" stroke-width="1" stroke-dasharray="1,0" opacity="1"/>
<line id="None_5" x1="24.5" y1="98.5" x2="828.5" y2="98.5" stroke="#D0D0D0" stroke-width="1" stroke-dasharray="1,0" opacity="1"/>
<line id="None_6" x1="24.5" y1="65.5" x2="828.5" y2="65.5" stroke="#D0D0D0" stroke-width="1" stroke-dasharray="1,0" opacity="1"/>
<text id="mark_data_0" aria-label="78,104,269,282" text-anchor="middle" x="91.5" y="281.5" font-family="avenir" font-size="12px" font-weight="bold" fill="#000" opacity="1">1878</text>
<text id="X-axis_label_0" aria-label="212,238,269,282" text-anchor="middle" x="225.5" y="281.5" font-family="avenir" font-size="12px" font-weight="bold" fill="#000" opacity="1">1880</text>
<text id="X-axis_label_1" aria-label="346,372,269,282" text-anchor="middle" x="359.5" y="281.5" font-family="avenir" font-size="12px" font-weight="bold" fill="#000" opacity="1">1882</text>
<text id="X-axis_label_2" aria-label="480,506,269,282" text-anchor="middle" x="493.5" y="281.5" font-family="avenir" font-size="12px" font-weight="bold" fill="#000" opacity="1">1884</text>
<text id="X-axis_label_3" aria-label="614,640,269,282" text-anchor="middle" x="627.5" y="281.5" font-family="avenir" font-size="12px" font-weight="bold" fill="#000" opacity="1">1886</text>
<text id="X-axis_label_4" aria-label="748,774,269,282" text-anchor="middle" x="761.5" y="281.5" font-family="avenir" font-size="12px" font-weight="bold" fill="#000" opacity="1">1888</text>
<line id="X-axis_tick_0" aria-label="91,91,265,270" x1="91.5" y1="265.5" x2="91.5" y2="270.5" stroke="#888" stroke-width="1" opacity="1"/>
<line id="X-axis_tick_1" aria-label="225,225,265,270" x1="225.5" y1="265.5" x2="225.5" y2="270.5" stroke="#888" stroke-width="1" opacity="1"/>
<line id="X-axis_tick_2" aria-label="359,359,265,270" x1="359.5" y1="265.5" x2="359.5" y2="270.5" stroke="#888" stroke-width="1" opacity="1"/>
<line id="X-axis_tick_3" aria-label="493,493,265,270" x1="493.5" y1="265.5" x2="493.5" y2="270.5" stroke="#888" stroke-width="1" opacity="1"/>
<line id="X-axis_tick_4" aria-label="627,627,265,270" x1="627.5" y1="265.5" x2="627.5" y2="270.5" stroke="#888" stroke-width="1" opacity="1"/>
<line id="X-axis_tick_5" aria-label="761,761,265,270" x1="761.5" y1="265.5" x2="761.5" y2="270.5" stroke="#888" stroke-width="1" opacity="1"/>
<line id="X-axis_domain_0" aria-label="24,828,265,265" x1="24.5" y1="265.5" x2="828.5" y2="265.5" stroke="#888" stroke-width="1" opacity="1"/>
<text class="chart_title" id="chart_title_0" aria-label="367,484,0,26" text-anchor="middle" x="426.0" y="25.0" font-family="avenir" font-size="25px" font-weight="bold" fill="#000" opacity="1">Assurance</text>
<text id="Y-axis_label_0" aria-label="11,17,257,270" text-anchor="end" x="17.5" y="269.5" font-family="avenir" font-size="12px" font-weight="bold" fill="#000" opacity="1">0</text>
<text id="Y-axis_label_1" aria-label="4,17,224,237" text-anchor="end" x="17.5" y="236.16666666666669" font-family="avenir" font-size="12px" font-weight="bold" fill="#000" opacity="1">10</text>
<text id="Y-axis_label_2" aria-label="4,17,190,203" text-anchor="end" x="17.5" y="202.83333333333334" font-family="avenir" font-size="12px" font-weight="bold" fill="#000" opacity="1">20</text>
<text id="Y-axis_label_3" aria-label="4,17,157,170" text-anchor="end" x="17.5" y="169.5" font-family="avenir" font-size="12px" font-weight="bold" fill="#000" opacity="1">30</text>
<text id="Y-axis_label_4" aria-label="4,17,124,137" text-anchor="end" x="17.5" y="136.16666666666669" font-family="avenir" font-size="12px" font-weight="bold" fill="#000" opacity="1">40</text>
<text id="Y-axis_label_5" aria-label="4,17,90,103" text-anchor="end" x="17.5" y="102.83333333333333" font-family="avenir" font-size="12px" font-weight="bold" fill="#000" opacity="1">50</text>
<text id="Y-axis_label_6" aria-label="4,17,57,70" text-anchor="end" x="17.5" y="69.5" font-family="avenir" font-size="12px" font-weight="bold" fill="#000" opacity="1">60</text>
<line id="Y-axis_tick_0" aria-label="19,24,265,265" x1="24.5" y1="265.5" x2="19.5" y2="265.5" stroke="#888" stroke-width="1" opacity="1"/>
<line id="Y-axis_tick_1" aria-label="19,24,232,232" x1="24.5" y1="232.5" x2="19.5" y2="232.5" stroke="#888" stroke-width="1" opacity="1"/>
<line id="Y-axis_tick_2" aria-label="19,24,198,198" x1="24.5" y1="198.5" x2="19.5" y2="198.5" stroke="#888" stroke-width="1" opacity="1"/>
<line id="Y-axis_tick_3" aria-label="19,24,165,165" x1="24.5" y1="165.5" x2="19.5" y2="165.5" stroke="#888" stroke-width="1" opacity="1"/>
<line id="Y-axis_tick_4" aria-label="19,24,132,132" x1="24.5" y1="132.5" x2="19.5" y2="132.5" stroke="#888" stroke-width="1" opacity="1"/>
<line id="Y-axis_tick_5" aria-label="19,24,98,98" x1="24.5" y1="98.5" x2="19.5" y2="98.5" stroke="#888" stroke-width="1" opacity="1"/>
<line id="Y-axis_tick_6" aria-label="19,24,65,65" x1="24.5" y1="65.5" x2="19.5" y2="65.5" stroke="#888" stroke-width="1" opacity="1"/>
<path id="mark_line_0" aria-label="Year: 1878; Baby communities Account: 52; Human Northeast worth: Diesel" role="graphics-symbol" aria-roledescription="line mark" fill="none" d="M91.0,91.66666666666666C135.66666666666666,125.35619351408825,180.33333333333331,159.04572036150984,225.0,178.33333333333331C269.6666666666667,197.62094630515682,314.33333333333337,202.5066454013822,359.0,208.33333333333334C403.66666666666663,214.16002126528448,448.33333333333337,220.9276980329612,493.0,221.66666666666666C537.6666666666666,222.40563530037213,582.3333333333333,217.11589580010633,627.0,198.33333333333334C671.6666666666667,179.55077086656036,716.3333333333334,147.27538543328018,761.0,115.0" stroke="#3c0daf" stroke-width="2" stroke-dasharray="8,4"/>
<path id="mark_line_1" aria-label="Year: 1878; Baby communities Account: 36; Human Northeast worth: Waco Centreville" role="graphics-symbol" aria-roledescription="line mark" fill="none" d="M91.0,145.0C135.66666666666666,107.18500797448166,180.33333333333331,69.37001594896331,225.0,105.0C269.6666666666667,140.62998405103667,314.33333333333337,249.70494417862838,359.0,235.0C403.66666666666663,220.29505582137162,448.33333333333337,81.81020733652312,493.0,85.0C537.6666666666666,88.18979266347688,582.3333333333333,233.0542264752791,627.0,255.0C671.6666666666667,276.9457735247209,716.3333333333334,175.97288676236045,761.0,75.00000000000001" stroke="#ff3dd7" stroke-width="2" stroke-dasharray="8,4"/>
<path ac-data="{&quot;X-None&quot;:1878, &quot;Y-None&quot;:52, &quot;None&quot;:&quot;Diesel&quot;}" id="mark_point_0" aria-label="Year: 1878; Baby communities Account: 52; Human Northeast worth: Diesel" role="graphics-symbol" aria-roledescription="point"  d="M93.73861278752582,91.66666666666666A2.7386127875258306,2.7386127875258306,0,1,1,88.26138721247418,91.66666666666666A2.7386127875258306,2.7386127875258306,0,1,1,93.73861278752582,91.66666666666666" fill="#fff" stroke="#3c0daf" stroke-width="4" opacity="1"/>
<path ac-data="{&quot;X-None&quot;:1880, &quot;Y-None&quot;:26, &quot;None&quot;:&quot;Diesel&quot;}" id="mark_point_1" aria-label="Year: 1880; Baby communities Account: 26; Human Northeast worth: Diesel" role="graphics-symbol" aria-roledescription="point"  d="M227.73861278752582,178.33333333333331A2.7386127875258306,2.7386127875258306,0,1,1,222.26138721247418,178.33333333333331A2.7386127875258306,2.7386127875258306,0,1,1,227.73861278752582,178.33333333333331" fill="#fff" stroke="#3c0daf" stroke-width="4" opacity="1"/>
<path ac-data="{&quot;X-None&quot;:1882, &quot;Y-None&quot;:9, &quot;None&quot;:&quot;Diesel&quot;}" id="mark_point_2" aria-label="Year: 1882; Baby communities Account: 17; Human Northeast worth: Diesel" role="graphics-symbol" aria-roledescription="point"  d="M361.7386127875258,208.33333333333334A2.7386127875258306,2.7386127875258306,0,1,1,356.2613872124742,208.33333333333334A2.7386127875258306,2.7386127875258306,0,1,1,361.7386127875258,208.33333333333334" fill="#fff" stroke="#3c0daf" stroke-width="4" opacity="1"/>
<path ac-data="{&quot;X-None&quot;:1884, &quot;Y-None&quot;:53, &quot;None&quot;:&quot;Diesel&quot;}" id="mark_point_3" aria-label="Year: 1884; Baby communities Account: 13; Human Northeast worth: Diesel" role="graphics-symbol" aria-roledescription="point"  d="M495.7386127875258,221.66666666666666A2.7386127875258306,2.7386127875258306,0,1,1,490.2613872124742,221.66666666666666A2.7386127875258306,2.7386127875258306,0,1,1,495.7386127875258,221.66666666666666" fill="#fff" stroke="#3c0daf" stroke-width="4" opacity="1"/>
<path ac-data="{&quot;X-None&quot;:1886, &quot;Y-None&quot;:3, &quot;None&quot;:&quot;Diesel&quot;}" id="mark_point_4" aria-label="Year: 1886; Baby communities Account: 20; Human Northeast worth: Diesel" role="graphics-symbol" aria-roledescription="point"  d="M629.7386127875259,198.33333333333334A2.7386127875258306,2.7386127875258306,0,1,1,624.2613872124741,198.33333333333334A2.7386127875258306,2.7386127875258306,0,1,1,629.7386127875259,198.33333333333334" fill="#fff" stroke="#3c0daf" stroke-width="4" opacity="1"/>
<path ac-data="{&quot;X-None&quot;:1888, &quot;Y-None&quot;:58, &quot;None&quot;:&quot;Diesel&quot;}" id="mark_point_5" aria-label="Year: 1888; Baby communities Account: 45; Human Northeast worth: Diesel" role="graphics-symbol" aria-roledescription="point"  d="M763.7386127875259,115.0A2.7386127875258306,2.7386127875258306,0,1,1,758.2613872124741,115.0A2.7386127875258306,2.7386127875258306,0,1,1,763.7386127875259,115.0" fill="#fff" stroke="#3c0daf" stroke-width="4" opacity="1"/>
<path ac-data="{&quot;X-None&quot;:1878, &quot;Y-None&quot;:36, &quot;None&quot;:&quot;Waco Centreville&quot;}" id="mark_point_6" aria-label="Year: 1878; Baby communities Account: 36; Human Northeast worth: Waco Centreville" role="graphics-symbol" aria-roledescription="point"  d="M93.73861278752582,145.0A2.7386127875258306,2.7386127875258306,0,1,1,88.26138721247418,145.0A2.7386127875258306,2.7386127875258306,0,1,1,93.73861278752582,145.0" fill="#fff" stroke="#ff3dd7" stroke-width="4" opacity="1"/>
<path ac-data="{&quot;X-None&quot;:1880, &quot;Y-None&quot;:49, &quot;None&quot;:&quot;Waco Centreville&quot;}" id="mark_point_7" aria-label="Year: 1880; Baby communities Account: 48; Human Northeast worth: Waco Centreville" role="graphics-symbol" aria-roledescription="point"  d="M227.73861278752582,105.0A2.7386127875258306,2.7386127875258306,0,1,1,222.26138721247418,105.0A2.7386127875258306,2.7386127875258306,0,1,1,227.73861278752582,105.0" fill="#fff" stroke="#ff3dd7" stroke-width="4" opacity="1"/>
<path ac-data="{&quot;X-None&quot;:1882, &quot;Y-None&quot;:10, &quot;None&quot;:&quot;Waco Centreville&quot;}" id="mark_point_8" aria-label="Year: 1882; Baby communities Account: 9; Human Northeast worth: Waco Centreville" role="graphics-symbol" aria-roledescription="point"  d="M361.7386127875258,235.0A2.7386127875258306,2.7386127875258306,0,1,1,356.2613872124742,235.0A2.7386127875258306,2.7386127875258306,0,1,1,361.7386127875258,235.0" fill="#fff" stroke="#ff3dd7" stroke-width="4" opacity="1"/>
<path ac-data="{&quot;X-None&quot;:1884, &quot;Y-None&quot;:54, &quot;None&quot;:&quot;Waco Centreville&quot;}" id="mark_point_9" aria-label="Year: 1884; Baby communities Account: 54; Human Northeast worth: Waco Centreville" role="graphics-symbol" aria-roledescription="point"  d="M495.7386127875258,85.0A2.7386127875258306,2.7386127875258306,0,1,1,490.2613872124742,85.0A2.7386127875258306,2.7386127875258306,0,1,1,495.7386127875258,85.0" fill="#fff" stroke="#ff3dd7" stroke-width="4" opacity="1"/>
<path ac-data="{&quot;X-None&quot;:1886, &quot;Y-None&quot;:3, &quot;None&quot;:&quot;Waco Centreville&quot;}" id="mark_point_10" aria-label="Year: 1886; Baby communities Account: 3; Human Northeast worth: Waco Centreville" role="graphics-symbol" aria-roledescription="point"  d="M629.7386127875259,255.0A2.7386127875258306,2.7386127875258306,0,1,1,624.2613872124741,255.0A2.7386127875258306,2.7386127875258306,0,1,1,629.7386127875259,255.0" fill="#fff" stroke="#ff3dd7" stroke-width="4" opacity="1"/>
<path ac-data="{&quot;X-None&quot;:1888, &quot;Y-None&quot;:58, &quot;None&quot;:&quot;Waco Centreville&quot;}" id="mark_point_11" aria-label="Year: 1888; Baby communities Account: 57; Human Northeast worth: Waco Centreville" role="graphics-symbol" aria-roledescription="point"  d="M763.7386127875259,75.00000000000001A2.7386127875258306,2.7386127875258306,0,1,1,758.2613872124741,75.00000000000001A2.7386127875258306,2.7386127875258306,0,1,1,763.7386127875259,75.00000000000001" fill="#fff" stroke="#ff3dd7" stroke-width="4" opacity="1"/>
<path class="legend" id="legend_symbol_0"  d="M35.0,40.25A5,5,0,1,1,25.0,40.25A5,5,0,1,1,35.0,40.25" fill="#fff" stroke="#3c0daf" stroke-width="1.5" opacity="1"/>
<path class="legend" id="legend_symbol_1"  d="M88.0,40.25A5,5,0,1,1,78.0,40.25A5,5,0,1,1,88.0,40.25" fill="#fff" stroke="#ff3dd7" stroke-width="1.5" opacity="1"/>
<text id="legend_label_0" aria-label="40,73,33,44" text-anchor="start" x="40.0" y="43.25" font-family="avenir" font-size="10px" fill="#000" opacity="1">Diesel</text>
<text id="legend_label_1" aria-label="93,181,33,44" text-anchor="start" x="93.0" y="43.25" font-family="avenir" font-size="10px" fill="#000" opacity="1">Waco Centreville</text>
</svg>