<svg xmlns="http://www.w3.org/2000/svg" xmlns:xlink="http://www.w3.org/1999/xlink" version="1.1" class="marks" width="720" height="620" viewBox="0 0 360 310"><rect width="360" height="310" fill="white"/><g fill="none" stroke-miterlimit="10" transform="translate(80,105)"><g class="mark-group role-frame root" role="graphics-object" aria-roledescription="group mark container"><g transform="translate(0,0)"><path class="background" aria-hidden="true" d="M0,0h200v200h-200Z"/><g><g class="mark-arc role-mark layer_0_marks" role="graphics-object" aria-roledescription="arc mark container"><path aria-label="UMMC COVID-19 PATIENT STATUS: 0.138; legend-none: Fully Vaccinated" role="graphics-symbol" aria-roledescription="arc mark" transform="translate(100,100)" d="M76.244,-64.706A100,100,0,0,0,0,-100L0,0Z" fill="#00B7D8"/><path aria-label="UMMC COVID-19 PATIENT STATUS: 0.075; legend-none: Not Eligible" role="graphics-symbol" aria-roledescription="arc mark" transform="translate(100,100)" d="M97.31,-23.039A100,100,0,0,0,76.244,-64.706L0,0Z" fill="#00E4E8"/><path aria-label="UMMC COVID-19 PATIENT STATUS: 0.106; legend-none: Unknown" role="graphics-symbol" aria-roledescription="arc mark" transform="translate(100,100)" d="M90.748,42.009A100,100,0,0,0,97.31,-23.039L0,0Z" fill="#065B9D"/><path aria-label="UMMC COVID-19 PATIENT STATUS: 0.681; legend-none: Unvaccinated" role="graphics-symbol" aria-roledescription="arc mark" transform="translate(100,100)" d="M0,-100A100,100,0,1,0,90.748,42.009L0,0Z" fill="#0088BF"/></g><g class="mark-text role-mark layer_1_marks" role="graphics-object" aria-roledescription="text mark container"><text aria-label="UMMC COVID-19 PATIENT STATUS: 0.138; legend-none: Fully Vaccinated" role="graphics-symbol" aria-roledescription="text mark" text-anchor="middle" transform="translate(154.61114469353484,-12.972975190345196)" font-family="sans-serif" font-size="15px" font-weight="bold" fill="#00B7D8">13.8%</text><text aria-label="UMMC COVID-19 PATIENT STATUS: 0.075; legend-none: Not Eligible" role="graphics-symbol" aria-roledescription="text mark" text-anchor="middle" transform="translate(216.01568915608334,46.345419022560144)" font-family="sans-serif" font-size="15px" font-weight="bold" fill="#00E4E8">7.5%</text><text aria-label="UMMC COVID-19 PATIENT STATUS: 0.106; legend-none: Unknown" role="graphics-symbol" aria-roledescription="text mark" text-anchor="middle" transform="translate(229.34363220756902,118.04702293065796)" font-family="sans-serif" font-size="15px" font-weight="bold" fill="#065B9D">10.6%</text><text aria-label="UMMC COVID-19 PATIENT STATUS: 0.681; legend-none: Unvaccinated" role="graphics-symbol" aria-roledescription="text mark" text-anchor="middle" transform="translate(-9.543253580856174,175.00196850746585)" font-family="sans-serif" font-size="15px" font-weight="bold" fill="#0088BF">68.1%</text></g><g class="mark-group role-legend" role="graphics-symbol" aria-roledescription="legend" aria-label="Symbol legend for fill color with 4 values: Fully Vaccinated, Not Eligible, Unknown, Unvaccinated"><g transform="translate(-70,-60)"><path class="background" aria-hidden="true" d="M0,0h338v11h-338Z" pointer-events="none"/><g><g class="mark-group role-legend-entry"><g transform="translate(0,0)"><path class="background" aria-hidden="true" d="M0,0h0v0h0Z" pointer-events="none"/><g><g class="mark-group role-scope" role="graphics-object" aria-roledescription="group mark container"><g transform="translate(0,0)"><path class="background" aria-hidden="true" d="M0,0h92.6552734375v11h-92.6552734375Z" pointer-events="none" opacity="1"/><g><g class="mark-symbol role-legend-symbol" pointer-events="none"><path transform="translate(6,6)" d="M5,0A5,5,0,1,1,-5,0A5,5,0,1,1,5,0" fill="#00B7D8" stroke-width="1.5" opacity="1"/></g><g class="mark-text role-legend-label" pointer-events="none"><text text-anchor="start" transform="translate(16,9)" font-family="sans-serif" font-size="10px" fill="#000" opacity="1">Fully Vaccinated</text></g></g><path class="foreground" aria-hidden="true" d="" pointer-events="none" display="none"/></g><g transform="translate(103,0)"><path class="background" aria-hidden="true" d="M0,0h71.771484375v11h-71.771484375Z" pointer-events="none" opacity="1"/><g><g class="mark-symbol role-legend-symbol" pointer-events="none"><path transform="translate(6,6)" d="M5,0A5,5,0,1,1,-5,0A5,5,0,1,1,5,0" fill="#00E4E8" stroke-width="1.5" opacity="1"/></g><g class="mark-text role-legend-label" pointer-events="none"><text text-anchor="start" transform="translate(16,9)" font-family="sans-serif" font-size="10px" fill="#000" opacity="1">Not Eligible</text></g></g><path class="foreground" aria-hidden="true" d="" pointer-events="none" display="none"/></g><g transform="translate(185,0)"><path class="background" aria-hidden="true" d="M0,0h61.6494140625v11h-61.6494140625Z" pointer-events="none" opacity="1"/><g><g class="mark-symbol role-legend-symbol" pointer-events="none"><path transform="translate(6,6)" d="M5,0A5,5,0,1,1,-5,0A5,5,0,1,1,5,0" fill="#065B9D" stroke-width="1.5" opacity="1"/></g><g class="mark-text role-legend-label" pointer-events="none"><text text-anchor="start" transform="translate(16,9)" font-family="sans-serif" font-size="10px" fill="#000" opacity="1">Unknown</text></g></g><path class="foreground" aria-hidden="true" d="" pointer-events="none" display="none"/></g><g transform="translate(257,0)"><path class="background" aria-hidden="true" d="M0,0h80.3017578125v11h-80.3017578125Z" pointer-events="none" opacity="1"/><g><g class="mark-symbol role-legend-symbol" pointer-events="none"><path transform="translate(6,6)" d="M5,0A5,5,0,1,1,-5,0A5,5,0,1,1,5,0" fill="#0088BF" stroke-width="1.5" opacity="1"/></g><g class="mark-text role-legend-label" pointer-events="none"><text text-anchor="start" transform="translate(16,9)" font-family="sans-serif" font-size="10px" fill="#000" opacity="1">Unvaccinated</text></g></g><path class="foreground" aria-hidden="true" d="" pointer-events="none" display="none"/></g></g></g><path class="foreground" aria-hidden="true" d="" pointer-events="none" display="none"/></g></g></g><path class="foreground" aria-hidden="true" d="" pointer-events="none" display="none"/></g></g><g class="mark-group role-title"><g transform="translate(100,-100)"><path class="background" aria-hidden="true" d="M0,0h0v0h0Z" pointer-events="none"/><g><g class="mark-text role-title-text" role="graphics-symbol" aria-roledescription="title" aria-label="Title text 'UMMC COVID-19 PATIENT STATUS'" pointer-events="none"><text text-anchor="middle" transform="translate(0,16)" font-family="sans-serif" font-size="20px" font-weight="bold" fill="#005DB0" opacity="1">UMMC COVID-19 PATIENT STATUS</text></g></g><path class="foreground" aria-hidden="true" d="" pointer-events="none" display="none"/></g></g></g><path class="foreground" aria-hidden="true" d="" display="none"/></g></g></g></svg>